<svg width="155" height="153" viewBox="0 0 155 153" fill="none" xmlns="http://www.w3.org/2000/svg">
    <rect x="2.44922" y="0.450195" width="152.1" height="152.1" rx="8" fill="white"/>
    <mask id="mask0_2392_47658" style="mask-type:alpha" maskUnits="userSpaceOnUse" x="0" y="0" width="153" height="153">
        <rect x="0.766094" y="0.76707" width="151.466" height="151.466" rx="7.68313" fill="#D9D9D9" stroke="#C3C3CE" stroke-width="0.63375"/>
    </mask>
    <g mask="url(#mask0_2392_47658)">
        <path d="M85.8152 50.4476C89.7644 50.5749 93.0291 53.5664 93.5003 57.4894L95.1974 71.6202C95.3847 73.1799 95.1087 74.7603 94.4037 76.1642L83.9085 97.0641C80.7155 103.423 71.4328 102.761 69.1734 96.0144L63.4398 78.8935C62.9807 77.5226 62.9017 76.0528 63.2112 74.6406L67.2105 56.3913C68.0357 52.6253 71.4296 49.9837 75.2829 50.1079L85.8152 50.4476Z" fill="#FDB4B4"/>
        <path d="M88.5314 75.4058H69.6445C65.2263 75.4058 61.6445 78.9875 61.6445 83.4058V109.558C61.6445 113.976 65.2263 117.558 69.6445 117.558H88.5314C92.9497 117.558 96.5314 113.976 96.5314 109.558V83.4058C96.5314 78.9875 92.9497 75.4058 88.5314 75.4058Z" fill="#6C63FF"/>
        <path d="M148.83 326.935C148.9 327.195 148.704 327.449 148.435 327.449L6.30215 326.984C6.03757 326.984 5.84424 326.734 5.90927 326.478L42.2169 182.626C42.4603 181.662 42.5217 180.661 42.3981 179.674L33.3979 107.834C31.6573 93.938 39.096 80.8035 51.9084 75.1511L55.8433 73.4154C56.3023 73.2129 56.7385 72.9619 57.1443 72.6668C61.1112 69.782 66.7386 71.7292 68.0742 76.4488L70.6037 85.3869C72.6344 92.5626 82.5127 93.302 85.589 86.5086L90.6645 75.3006C92.5501 71.1366 98.0162 70.1412 101.249 73.3732C102.064 74.1888 103.081 74.7742 104.196 75.07L120.378 79.3635C131.525 82.3207 138.747 93.1662 137.176 104.591L137.157 104.671L110.666 180.262C110.132 181.786 110.071 183.435 110.492 184.994L148.83 326.935Z" fill="#E8E9EA"/>
        <path d="M138.371 226.812C137.63 230.79 134.035 233.588 129.997 233.33L109.955 232.051C109.728 232.037 109.557 231.839 109.575 231.612L115.006 163.628C115.051 163.057 115.036 162.482 114.959 161.915L106.29 98.0328C105.742 94.0006 106.846 90.0343 109.399 86.8652C111.951 83.6957 115.591 81.7718 119.647 81.447C127.415 80.8348 134.301 86.383 135.345 94.0964L147.01 180.352C147.015 180.395 147.014 180.439 147.006 180.481L138.371 226.812Z" fill="#E8E9EA"/>
        <path d="M42.2765 223.902C41.6625 228.002 38.0193 230.953 33.882 230.703L14.0559 229.504C13.8193 229.49 13.645 229.277 13.6776 229.042L32.6923 91.1339C34.6921 83.5596 42.2238 78.9007 49.8446 80.4767C53.83 81.3009 57.203 83.6606 59.3436 87.1215C61.4842 90.5824 62.0893 94.6544 61.0468 98.5881L42.2765 223.902Z" fill="#E8E9EA"/>
        <path d="M79.6802 62.5825C92.2772 62.5825 102.489 52.3705 102.489 39.7734C102.489 27.1763 92.2772 16.9644 79.6802 16.9644C67.0831 16.9644 56.8711 27.1763 56.8711 39.7734C56.8711 52.3705 67.0831 62.5825 79.6802 62.5825Z" fill="#FDB4B4"/>
        <path d="M91.6348 13.1468C92.7278 15.3697 90.9944 18.1464 88.7004 19.081C86.4064 20.0155 83.815 19.6369 81.3687 19.2478C78.9223 18.8588 76.3272 18.4899 74.04 19.4411C71.0805 20.6717 69.4123 23.7588 67.9748 26.6234C65.2912 31.9714 62.6077 37.3193 59.9241 42.6672C58.613 45.2801 57.2721 48.0104 57.2469 50.9337C57.2005 56.2996 61.4572 60.5879 63.7475 65.4407C66.536 71.3493 66.3061 78.5902 63.1483 84.3099C59.9905 90.0296 53.9854 94.0822 47.4996 94.8705C45.7932 95.0779 43.9871 95.0554 42.4528 94.2802C40.9186 93.5049 39.7476 91.8119 40.0317 90.1165C40.5874 86.8005 45.6543 86.0257 46.5849 82.7948C47.0706 81.1083 46.2103 79.3071 45.0505 77.9898C43.8907 76.6725 42.424 75.6449 41.3177 74.2822C38.7668 71.1402 38.5969 66.2899 40.9216 62.9771C42.2878 61.0301 44.401 59.5836 45.284 57.3751C46.0366 55.4927 45.7633 53.3767 45.4782 51.3695C45.1119 48.7903 44.7456 46.2111 44.3794 43.632C43.9521 40.6228 43.5312 37.5058 44.3758 34.5861C46.3112 27.8954 53.8659 24.7531 58.2963 19.3789C60.355 16.8815 61.7399 13.878 63.852 11.4256C67.3964 7.31007 72.9765 5.03975 78.3874 5.5117C83.7982 5.98365 88.901 9.18575 91.6794 13.8527" fill="#2E2E41"/>
        <path d="M88.0318 13.5688C86.9175 13.9674 86.504 15.4188 86.8248 16.5579C87.1455 17.6971 87.9854 18.6023 88.7543 19.502C97.4495 29.6781 99.4706 45.0704 93.6971 57.1463C92.1614 60.3583 90.1157 63.3813 89.2874 66.8439C88.6847 69.3633 88.7171 72.127 87.3193 74.3081C85.8963 76.5287 83.0765 78.0166 82.7976 80.6392C82.6187 82.3223 83.6445 83.9571 85.0196 84.9438C86.3948 85.9306 88.0747 86.382 89.7267 86.7502C94.0205 87.707 98.411 88.2293 102.809 88.3067C104.243 88.3319 105.723 88.3008 107.039 87.7295C108.354 87.1581 109.477 85.9189 109.492 84.4848C109.504 83.3577 108.854 82.3179 108.771 81.1938C108.522 77.8254 113.055 76.0334 113.938 72.7733C114.518 70.63 113.374 68.4245 112.156 66.5682C110.937 64.7119 109.547 62.7626 109.577 60.5422C109.606 58.4167 110.94 56.5447 111.458 54.4831C112.175 51.6315 111.294 48.6488 110.42 45.8412C109.677 43.4543 108.935 41.0674 108.192 38.6805C107.402 36.1431 106.612 33.6057 105.823 31.0683C104.444 26.6386 102.997 22.0805 100.014 18.5276C97.0302 14.9747 92.0868 12.6461 87.6801 14.0967" fill="#2E2E41"/>
        <path d="M103.785 101.172C103.678 101.608 103.226 101.853 102.794 101.727C102.362 101.601 102.115 101.153 102.221 100.715C104.647 90.6465 99.6203 73.8083 98.4232 70.0426C98.287 69.6144 98.52 69.1645 98.9454 69.0195C99.3714 68.8741 99.833 69.099 99.971 69.5274C101.223 73.4114 106.39 90.5508 103.785 101.172Z" fill="#3F3C57"/>
        <path d="M102.794 114.782C106.551 114.782 109.597 111.737 109.597 107.98C109.597 104.223 106.551 101.178 102.794 101.178C99.0377 101.178 95.9922 104.223 95.9922 107.98C95.9922 111.737 99.0377 114.782 102.794 114.782Z" fill="#3F3C57"/>
        <path d="M58.0981 132.061H53.9728C53.5228 132.061 53.1586 131.697 53.1586 131.247C53.1586 130.797 53.5228 130.433 53.9728 130.433H58.0981C59.2352 130.433 60.3031 129.99 61.1062 129.185C61.9085 128.381 62.3498 127.312 62.3475 126.176L62.2974 100.766C62.2974 95.2459 57.8079 90.7564 52.2895 90.7564C46.7711 90.7564 42.2808 95.2459 42.2808 100.764L42.3309 124.548C42.3357 126.868 44.2274 128.77 46.5477 128.788L49.3792 128.81C49.8285 128.813 50.1903 129.18 50.1871 129.63C50.1839 130.077 49.8197 130.438 49.3729 130.438H49.3665L46.5349 130.417C43.3257 130.392 40.7088 127.76 40.7024 124.551L40.6523 100.766C40.6523 94.3481 45.8726 89.1279 52.2895 89.1279C58.7056 89.1279 63.9258 94.3481 63.9258 100.764L63.9759 126.172C63.9791 127.744 63.3692 129.223 62.2584 130.335C61.1484 131.448 59.6702 132.061 58.0981 132.061Z" fill="#3F3C57"/>
        <path d="M49.3742 132.51C50.9681 132.51 52.2602 131.218 52.2602 129.624C52.2602 128.03 50.9681 126.738 49.3742 126.738C47.7804 126.738 46.4883 128.03 46.4883 129.624C46.4883 131.218 47.7804 132.51 49.3742 132.51Z" fill="#3F3C57"/>
        <path d="M53.9719 134.133C55.5658 134.133 56.8578 132.841 56.8578 131.247C56.8578 129.653 55.5658 128.361 53.9719 128.361C52.378 128.361 51.0859 129.653 51.0859 131.247C51.0859 132.841 52.378 134.133 53.9719 134.133Z" fill="#3F3C57"/>
    </g>
    <path d="M74.2158 36.0581C74.2158 37.4988 73.0486 38.6659 71.6079 38.6659C70.1682 38.6659 69 37.4988 69 36.0581C69 34.6184 70.1672 33.4502 71.6079 33.4502C73.0486 33.4513 74.2158 34.6184 74.2158 36.0581Z" fill="#352929"/>
    <path d="M90.2158 36.0581C90.2158 37.4988 89.0486 38.6659 87.6079 38.6659C86.1672 38.6659 85 37.4988 85 36.0581C85 34.6184 86.1672 33.4502 87.6079 33.4502C89.0486 33.4513 90.2158 34.6184 90.2158 36.0581Z" fill="#352929"/>
    <path d="M84.9144 52.4887C83.518 52.9704 81.114 53.5756 77.8555 53.5756C74.5969 53.5756 72.194 52.9704 70.7965 52.4887C70.2948 52.3155 69.8111 52.7602 70.0741 53.1499C71.105 54.6762 73.4256 57.0623 77.8544 57.0623C82.2843 57.0623 84.6049 54.6762 85.6347 53.1499C85.8999 52.7602 85.4161 52.3155 84.9144 52.4887Z" fill="#D39090"/>
    <path d="M82.2325 44.2208C82.3227 42.1007 80.1786 40.2375 79.2805 42.16C78.5342 43.7577 77.7894 47.6497 79.5236 47.3302C80.0292 47.2371 80.5421 47.1009 81.0417 46.9075C81.6715 46.6638 82.0758 46.0719 82.1461 45.4003C82.1809 45.0684 82.2134 44.6695 82.2325 44.2208Z" fill="#E2ABAA"/>
</svg>
