<svg width="426" height="482" viewBox="0 0 426 482" fill="none" xmlns="http://www.w3.org/2000/svg">
    <g clip-path="url(#clip0_2392_13574)">
        <path d="M272.051 144.938L286.489 96.6255L317.587 114.951L368.676 124.391L365.344 141.606L357.014 162.153L272.051 144.938Z" fill="#DFF2D5" stroke="#30333F" stroke-opacity="0.13" stroke-width="1.11063"/>
        <path d="M371.45 143.827L374.227 126.057L424.761 134.387V182.699L363.676 163.263L371.45 143.827Z" fill="#DFF2D5" stroke="#30333F" stroke-opacity="0.13" stroke-width="1.11063"/>
        <path d="M271.493 151.602L304.257 158.821L265.385 335.967L218.738 326.526L271.493 151.602Z" fill="#F5F8F7" stroke="#30333F" stroke-opacity="0.13" stroke-width="1.11063"/>
        <path d="M362.009 169.372L310.365 160.487L270.938 336.522L315.918 345.407L362.009 169.372Z" fill="#F5F8F7" stroke="#30333F" stroke-opacity="0.13" stroke-width="1.11063"/>
        <path d="M380.336 174.37L367.008 171.593L322.027 346.518L369.785 356.514L372.006 335.967L377.559 322.639L380.336 274.327L390.887 248.227V231.567L400.327 205.468L393.108 203.246V195.472L377.559 186.587L380.336 174.37Z" fill="#F5F8F7" stroke="#30333F" stroke-opacity="0.13" stroke-width="1.11063"/>
        <path d="M382.004 184.366L383.67 175.48L408.659 183.255L401.44 202.691L396.442 200.47L395.887 192.695L382.004 184.366Z" fill="#F5F8F7" stroke="#30333F" stroke-opacity="0.13" stroke-width="1.11063"/>
        <path d="M400.328 218.795L413.1 184.921H420.32V222.127L400.328 218.795Z" fill="#F5F8F7" stroke="#30333F" stroke-opacity="0.13" stroke-width="1.11063"/>
        <path d="M399.219 222.127L420.876 224.904L418.655 364.843L374.785 357.624L376.451 338.188L383.115 323.194L385.336 274.882L395.332 249.337V233.233L399.219 222.127Z" fill="#F5F8F7" stroke="#30333F" stroke-opacity="0.13" stroke-width="1.11063"/>
        <path d="M355.903 359.29L420.875 370.952L406.437 445.364L303.703 425.373L320.363 352.626L351.46 359.29L344.241 396.496H348.684L355.903 359.29Z" fill="#F5F8F7" stroke="#30333F" stroke-opacity="0.13" stroke-width="1.11063"/>
        <path d="M419.763 401.494L411.988 446.474L419.763 448.696V401.494Z" fill="#F5F8F7" stroke="#30333F" stroke-opacity="0.13" stroke-width="1.11063"/>
        <path d="M216.516 332.08L314.807 351.516L298.148 423.707L222.625 408.714L198.746 400.939L216.516 332.08Z" fill="#F5F8F7" stroke="#30333F" stroke-opacity="0.13" stroke-width="1.11063"/>
        <path d="M197.638 408.713L296.484 430.371L279.269 510.336L233.178 495.343L179.312 482.015L197.638 408.713Z" fill="#F5F8F7" stroke="#30333F" stroke-opacity="0.13" stroke-width="1.11063"/>
        <path d="M284.82 512.002L302.59 432.036L387.554 448.14L373.116 524.774H375.337L390.33 448.14L405.879 450.362L390.33 543.655L368.673 535.325L354.79 531.438L341.463 535.325L284.82 512.002Z" fill="#F5F8F7" stroke="#30333F" stroke-opacity="0.13" stroke-width="1.11063"/>
        <path d="M422.54 456.471L410.878 452.583L394.219 548.653L422.54 574.198V456.471Z" fill="#F5F8F7" stroke="#30333F" stroke-opacity="0.13" stroke-width="1.11063"/>
        <path d="M382.557 24.9897L376.448 107.732L328.691 99.9574L294.262 84.9639L298.149 46.6471L382.557 24.9897Z" fill="#FCFBF2" stroke="#30333F" stroke-opacity="0.13" stroke-width="1.11063"/>
        <path d="M292.039 6.66455L285.375 87.7407L323.137 107.732L429.202 126.613" stroke="#30333F" stroke-opacity="0.13" stroke-width="1.11063" stroke-dasharray="8.89 8.89"/>
        <path d="M384.223 108.287L390.331 13.8833H430.314V118.283L384.223 108.287Z" fill="#FCFBF2" stroke="#30333F" stroke-opacity="0.13" stroke-width="1.11063"/>
        <path d="M279.823 26.6557L282.6 1.6665H218.738L230.955 33.8748L279.823 26.6557Z" fill="#FCFBF2" stroke="#30333F" stroke-opacity="0.13" stroke-width="1.11063"/>
        <path d="M224.293 33.8748L208.189 0.000488281L105.455 3.8877L96.5703 56.6427L224.293 33.8748Z" fill="#F5F8F7" stroke="#30333F" stroke-opacity="0.13" stroke-width="1.11063"/>
        <path d="M99.9026 4.44287L89.907 57.1979L-12.8265 74.4127L-21.1562 4.44287H99.9026Z" fill="#F5F8F7" stroke="#30333F" stroke-opacity="0.13" stroke-width="1.11063"/>
        <path d="M-22.2695 87.7406L385.888 18.8813" stroke="#30333F" stroke-opacity="0.13" stroke-width="1.11063" stroke-dasharray="8.89 8.89"/>
        <path d="M207.631 324.86L229.289 248.227L29.375 239.342L46.5898 317.086L207.631 324.86Z" fill="#F5F8F7" stroke="#30333F" stroke-opacity="0.13" stroke-width="1.11063"/>
        <path d="M19.935 315.42L-8.94141 193.25V324.86L19.935 315.42Z" fill="#F5F8F7" stroke="#30333F" stroke-opacity="0.13" stroke-width="1.11063"/>
        <path d="M22.713 324.305L39.3725 398.162L-6.71875 414.266V332.635L22.713 324.305Z" fill="#F5F8F7" stroke="#30333F" stroke-opacity="0.13" stroke-width="1.11063"/>
        <path d="M32.1515 469.798L53.8088 464.245L40.4813 403.715L-5.05469 417.598L-3.38874 487.568L32.1515 469.798Z" fill="#F5F8F7" stroke="#30333F" stroke-opacity="0.13" stroke-width="1.11063"/>
        <path d="M34.3754 474.796L55.4775 469.798L63.2519 497.009L76.5795 529.217L8.27556 560.87L-3.94141 541.434V493.677L34.3754 474.796Z" fill="#FCFBF2" stroke="#30333F" stroke-opacity="0.13" stroke-width="1.11063"/>
        <path d="M-14.4922 107.177L63.2521 462.024L81.5776 515.889L150.992 617.512" stroke="#30333F" stroke-opacity="0.13" stroke-width="1.11063" stroke-dasharray="8.89 8.89"/>
        <path d="M205.965 332.08L46.5898 323.75L52.6983 358.735L61.0281 392.609H172.091L192.083 397.607L205.965 332.08Z" fill="#F5F8F7" stroke="#30333F" stroke-opacity="0.13" stroke-width="1.11063"/>
        <path d="M190.975 405.382L170.428 482.015L75.4688 464.8L61.5859 398.718H170.428L190.975 405.382Z" fill="#F5F8F7" stroke="#30333F" stroke-opacity="0.13" stroke-width="1.11063"/>
        <path d="M77.1328 469.798L168.205 487.013L145.437 585.304L118.226 556.428L96.0136 520.887L84.3519 494.788L77.1328 469.798Z" fill="#F5F8F7" stroke="#30333F" stroke-opacity="0.13" stroke-width="1.11063"/>
        <path d="M232.068 57.7534L277.603 91.0724L258.167 144.383L12.1624 167.151L3.27734 98.2915L232.068 57.7534Z" fill="#F5F8F7" stroke="#30333F" stroke-opacity="0.13" stroke-width="1.11063"/>
        <path d="M14.9375 173.259L257.611 151.602L233.732 241.007L26.5991 233.788L14.9375 173.259Z" fill="#F5F8F7" stroke="#30333F" stroke-opacity="0.13" stroke-width="1.11063"/>
        <path d="M373.657 409.497L369.339 404.632L373.564 400.167H375.523L370.858 405.019L370.872 404.179L375.656 409.497H373.657ZM368.02 409.497V400.167H369.552V409.497H368.02ZM376.74 409.497V400.167H378.273V409.497H376.74ZM377.793 405.498V404.099H382.537V405.498H377.793ZM377.793 401.567V400.167H382.764V401.567H377.793ZM388.397 409.63C387.721 409.63 387.095 409.51 386.517 409.27C385.949 409.021 385.451 408.679 385.025 408.244C384.598 407.8 384.27 407.289 384.039 406.711C383.808 406.125 383.692 405.498 383.692 404.832C383.692 404.166 383.808 403.544 384.039 402.966C384.27 402.38 384.598 401.869 385.025 401.433C385.451 400.998 385.949 400.656 386.517 400.407C387.095 400.158 387.721 400.034 388.397 400.034C389.152 400.034 389.805 400.158 390.356 400.407C390.907 400.656 391.395 400.994 391.822 401.42L390.782 402.46C390.507 402.158 390.169 401.922 389.769 401.753C389.378 401.584 388.921 401.5 388.397 401.5C387.935 401.5 387.513 401.58 387.131 401.74C386.749 401.9 386.415 402.131 386.131 402.433C385.856 402.726 385.642 403.077 385.491 403.486C385.34 403.895 385.265 404.343 385.265 404.832C385.265 405.321 385.34 405.769 385.491 406.178C385.642 406.587 385.856 406.942 386.131 407.244C386.415 407.537 386.749 407.764 387.131 407.924C387.513 408.084 387.935 408.164 388.397 408.164C388.965 408.164 389.445 408.079 389.836 407.911C390.236 407.733 390.574 407.493 390.849 407.191L391.889 408.23C391.462 408.666 390.96 409.008 390.382 409.257C389.805 409.505 389.143 409.63 388.397 409.63Z" fill="#30333F"/>
        <path d="M113.526 367.426C112.789 367.426 112.163 367.292 111.647 367.026C111.132 366.759 110.67 366.368 110.261 365.853L111.301 364.814C111.558 365.187 111.865 365.48 112.22 365.693C112.576 365.898 113.029 366 113.58 366C114.095 366 114.504 365.893 114.806 365.68C115.117 365.467 115.272 365.173 115.272 364.8C115.272 364.489 115.192 364.236 115.033 364.041C114.873 363.845 114.659 363.685 114.393 363.561C114.135 363.427 113.846 363.312 113.526 363.214C113.216 363.108 112.9 362.992 112.58 362.868C112.269 362.734 111.98 362.57 111.714 362.375C111.456 362.179 111.247 361.926 111.088 361.615C110.928 361.304 110.848 360.909 110.848 360.429C110.848 359.878 110.981 359.411 111.247 359.029C111.523 358.638 111.892 358.341 112.354 358.136C112.816 357.932 113.331 357.83 113.9 357.83C114.513 357.83 115.059 357.95 115.539 358.19C116.028 358.43 116.423 358.736 116.725 359.109L115.686 360.149C115.419 359.847 115.139 359.625 114.846 359.483C114.562 359.331 114.233 359.256 113.86 359.256C113.398 359.256 113.033 359.349 112.767 359.536C112.509 359.722 112.38 359.985 112.38 360.322C112.38 360.606 112.46 360.837 112.62 361.015C112.78 361.184 112.989 361.331 113.247 361.455C113.513 361.571 113.802 361.682 114.113 361.788C114.433 361.895 114.748 362.015 115.059 362.148C115.379 362.281 115.668 362.455 115.925 362.668C116.192 362.872 116.405 363.139 116.565 363.467C116.725 363.796 116.805 364.209 116.805 364.707C116.805 365.542 116.507 366.204 115.912 366.693C115.326 367.181 114.531 367.426 113.526 367.426ZM121.001 367.426C120.37 367.426 119.797 367.279 119.281 366.986C118.775 366.693 118.375 366.293 118.082 365.786C117.789 365.28 117.642 364.716 117.642 364.094C117.642 363.463 117.789 362.899 118.082 362.401C118.375 361.895 118.775 361.495 119.281 361.202C119.797 360.909 120.37 360.762 121.001 360.762C121.498 360.762 121.96 360.86 122.387 361.055C122.822 361.242 123.191 361.513 123.493 361.868L122.533 362.841C122.347 362.619 122.12 362.455 121.854 362.348C121.596 362.232 121.312 362.175 121.001 362.175C120.636 362.175 120.312 362.259 120.028 362.428C119.752 362.588 119.535 362.81 119.375 363.094C119.224 363.379 119.148 363.712 119.148 364.094C119.148 364.467 119.224 364.8 119.375 365.093C119.535 365.378 119.752 365.604 120.028 365.773C120.312 365.933 120.636 366.013 121.001 366.013C121.312 366.013 121.596 365.96 121.854 365.853C122.12 365.738 122.347 365.569 122.533 365.347L123.493 366.32C123.191 366.675 122.822 366.95 122.387 367.146C121.96 367.332 121.498 367.426 121.001 367.426ZM128.935 367.292V363.601C128.935 363.174 128.797 362.823 128.521 362.548C128.255 362.272 127.908 362.135 127.482 362.135C127.198 362.135 126.944 362.197 126.722 362.321C126.5 362.446 126.327 362.619 126.202 362.841C126.078 363.063 126.016 363.316 126.016 363.601L125.443 363.281C125.443 362.792 125.549 362.361 125.763 361.988C125.976 361.606 126.269 361.308 126.642 361.095C127.024 360.873 127.451 360.762 127.922 360.762C128.402 360.762 128.828 360.869 129.201 361.082C129.574 361.295 129.868 361.593 130.081 361.975C130.294 362.348 130.401 362.783 130.401 363.281V367.292H128.935ZM124.55 367.292V357.697H126.016V367.292H124.55ZM134.823 367.426C134.201 367.426 133.636 367.279 133.13 366.986C132.623 366.684 132.219 366.28 131.917 365.773C131.624 365.267 131.477 364.702 131.477 364.081C131.477 363.459 131.624 362.899 131.917 362.401C132.219 361.904 132.623 361.508 133.13 361.215C133.636 360.913 134.201 360.762 134.823 360.762C135.453 360.762 136.022 360.909 136.528 361.202C137.035 361.495 137.435 361.895 137.728 362.401C138.03 362.899 138.181 363.459 138.181 364.081C138.181 364.702 138.03 365.267 137.728 365.773C137.435 366.28 137.035 366.684 136.528 366.986C136.022 367.279 135.453 367.426 134.823 367.426ZM134.823 366.013C135.187 366.013 135.507 365.933 135.782 365.773C136.066 365.604 136.284 365.373 136.435 365.08C136.595 364.787 136.675 364.454 136.675 364.081C136.675 363.707 136.595 363.379 136.435 363.094C136.275 362.81 136.058 362.588 135.782 362.428C135.507 362.259 135.187 362.175 134.823 362.175C134.467 362.175 134.147 362.259 133.863 362.428C133.587 362.588 133.37 362.81 133.21 363.094C133.059 363.379 132.983 363.707 132.983 364.081C132.983 364.454 133.059 364.787 133.21 365.08C133.37 365.373 133.587 365.604 133.863 365.773C134.147 365.933 134.467 366.013 134.823 366.013ZM142.332 367.426C141.71 367.426 141.146 367.279 140.64 366.986C140.133 366.684 139.729 366.28 139.427 365.773C139.134 365.267 138.987 364.702 138.987 364.081C138.987 363.459 139.134 362.899 139.427 362.401C139.729 361.904 140.133 361.508 140.64 361.215C141.146 360.913 141.71 360.762 142.332 360.762C142.963 360.762 143.532 360.909 144.038 361.202C144.545 361.495 144.945 361.895 145.238 362.401C145.54 362.899 145.691 363.459 145.691 364.081C145.691 364.702 145.54 365.267 145.238 365.773C144.945 366.28 144.545 366.684 144.038 366.986C143.532 367.279 142.963 367.426 142.332 367.426ZM142.332 366.013C142.697 366.013 143.016 365.933 143.292 365.773C143.576 365.604 143.794 365.373 143.945 365.08C144.105 364.787 144.185 364.454 144.185 364.081C144.185 363.707 144.105 363.379 143.945 363.094C143.785 362.81 143.567 362.588 143.292 362.428C143.016 362.259 142.697 362.175 142.332 362.175C141.977 362.175 141.657 362.259 141.373 362.428C141.097 362.588 140.88 362.81 140.72 363.094C140.569 363.379 140.493 363.707 140.493 364.081C140.493 364.454 140.569 364.787 140.72 365.08C140.88 365.373 141.097 365.604 141.373 365.773C141.657 365.933 141.977 366.013 142.332 366.013ZM146.91 367.292V357.697H148.376V367.292H146.91Z" fill="#30333F"/>
        <path d="M19.79 445.036L15.4719 440.172L19.6967 435.707H21.6559L16.9912 440.558L17.0046 439.718L21.7892 445.036H19.79ZM14.1525 445.036V435.707H15.6851V445.036H14.1525ZM22.8727 445.036V435.707H24.4053V445.036H22.8727ZM23.9255 441.038V439.638H28.6702V441.038H23.9255ZM23.9255 437.106V435.707H28.8967V437.106H23.9255ZM34.5295 445.169C33.8542 445.169 33.2278 445.049 32.6503 444.81C32.0817 444.561 31.5841 444.219 31.1576 443.783C30.7311 443.339 30.4024 442.828 30.1714 442.251C29.9404 441.664 29.8249 441.038 29.8249 440.371C29.8249 439.705 29.9404 439.083 30.1714 438.506C30.4024 437.919 30.7311 437.408 31.1576 436.973C31.5841 436.538 32.0817 436.195 32.6503 435.947C33.2278 435.698 33.8542 435.574 34.5295 435.574C35.2847 435.574 35.9378 435.698 36.4887 435.947C37.0395 436.195 37.5282 436.533 37.9547 436.96L36.9151 437.999C36.6397 437.697 36.3021 437.462 35.9022 437.293C35.5113 437.124 35.0537 437.04 34.5295 437.04C34.0675 437.04 33.6454 437.12 33.2634 437.279C32.8813 437.439 32.5481 437.67 32.2638 437.973C31.9884 438.266 31.7751 438.617 31.6241 439.025C31.473 439.434 31.3975 439.883 31.3975 440.371C31.3975 440.86 31.473 441.309 31.6241 441.718C31.7751 442.126 31.9884 442.482 32.2638 442.784C32.5481 443.077 32.8813 443.304 33.2634 443.463C33.6454 443.623 34.0675 443.703 34.5295 443.703C35.0981 443.703 35.5779 443.619 35.9689 443.45C36.3687 443.272 36.7063 443.033 36.9818 442.73L38.0213 443.77C37.5948 444.205 37.0928 444.547 36.5153 444.796C35.9378 445.045 35.2758 445.169 34.5295 445.169Z" fill="#30333F"/>
        <path d="M233.17 385.062L237.009 375.733H238.075L241.887 385.062H240.234L237.249 377.505H237.808L234.796 385.062H233.17ZM235.063 383.263V381.93H240.007V383.263H235.063ZM243.035 385.062V378.665H244.501V385.062H243.035ZM243.768 377.492C243.519 377.492 243.31 377.408 243.141 377.239C242.981 377.07 242.902 376.861 242.902 376.612C242.902 376.364 242.981 376.155 243.141 375.986C243.31 375.817 243.519 375.733 243.768 375.733C244.025 375.733 244.234 375.817 244.394 375.986C244.554 376.155 244.634 376.364 244.634 376.612C244.634 376.861 244.554 377.07 244.394 377.239C244.234 377.408 244.025 377.492 243.768 377.492ZM246.145 385.062V378.665H247.611V385.062H246.145ZM247.611 381.504L247.105 381.25C247.105 380.442 247.282 379.789 247.638 379.291C248.002 378.785 248.549 378.531 249.277 378.531C249.597 378.531 249.886 378.589 250.143 378.705C250.401 378.82 250.641 379.007 250.863 379.265L249.904 380.251C249.788 380.126 249.659 380.038 249.517 379.984C249.375 379.931 249.21 379.904 249.024 379.904C248.615 379.904 248.278 380.033 248.011 380.291C247.744 380.548 247.611 380.953 247.611 381.504ZM254.998 385.195C254.509 385.195 254.074 385.093 253.692 384.889C253.31 384.676 253.007 384.387 252.785 384.022C252.572 383.658 252.465 383.245 252.465 382.783V380.944C252.465 380.482 252.576 380.069 252.799 379.704C253.021 379.34 253.323 379.056 253.705 378.851C254.087 378.638 254.518 378.531 254.998 378.531C255.575 378.531 256.095 378.683 256.557 378.985C257.028 379.278 257.397 379.678 257.663 380.184C257.939 380.682 258.076 381.246 258.076 381.877C258.076 382.499 257.939 383.063 257.663 383.569C257.397 384.067 257.028 384.462 256.557 384.755C256.095 385.049 255.575 385.195 254.998 385.195ZM254.758 383.809C255.113 383.809 255.424 383.729 255.691 383.569C255.966 383.401 256.179 383.169 256.33 382.876C256.49 382.583 256.57 382.245 256.57 381.863C256.57 381.481 256.49 381.144 256.33 380.85C256.179 380.557 255.966 380.331 255.691 380.171C255.424 380.002 255.113 379.918 254.758 379.918C254.402 379.918 254.087 380.002 253.812 380.171C253.536 380.331 253.323 380.557 253.172 380.85C253.021 381.144 252.945 381.481 252.945 381.863C252.945 382.245 253.021 382.583 253.172 382.876C253.323 383.169 253.536 383.401 253.812 383.569C254.087 383.729 254.402 383.809 254.758 383.809ZM251.572 387.728V378.665H253.039V380.384L252.785 381.943L253.039 383.489V387.728H251.572ZM262.236 385.195C261.614 385.195 261.049 385.049 260.543 384.755C260.037 384.453 259.632 384.049 259.33 383.543C259.037 383.036 258.89 382.472 258.89 381.85C258.89 381.228 259.037 380.668 259.33 380.171C259.632 379.673 260.037 379.278 260.543 378.985C261.049 378.683 261.614 378.531 262.236 378.531C262.866 378.531 263.435 378.678 263.942 378.971C264.448 379.265 264.848 379.664 265.141 380.171C265.443 380.668 265.594 381.228 265.594 381.85C265.594 382.472 265.443 383.036 265.141 383.543C264.848 384.049 264.448 384.453 263.942 384.755C263.435 385.049 262.866 385.195 262.236 385.195ZM262.236 383.783C262.6 383.783 262.92 383.703 263.195 383.543C263.479 383.374 263.697 383.143 263.848 382.85C264.008 382.556 264.088 382.223 264.088 381.85C264.088 381.477 264.008 381.148 263.848 380.864C263.688 380.579 263.471 380.357 263.195 380.197C262.92 380.029 262.6 379.944 262.236 379.944C261.88 379.944 261.56 380.029 261.276 380.197C261.001 380.357 260.783 380.579 260.623 380.864C260.472 381.148 260.396 381.477 260.396 381.85C260.396 382.223 260.472 382.556 260.623 382.85C260.783 383.143 261.001 383.374 261.276 383.543C261.56 383.703 261.88 383.783 262.236 383.783ZM266.813 385.062V378.665H268.279V385.062H266.813ZM268.279 381.504L267.773 381.25C267.773 380.442 267.951 379.789 268.306 379.291C268.67 378.785 269.217 378.531 269.945 378.531C270.265 378.531 270.554 378.589 270.812 378.705C271.069 378.82 271.309 379.007 271.531 379.265L270.572 380.251C270.456 380.126 270.327 380.038 270.185 379.984C270.043 379.931 269.879 379.904 269.692 379.904C269.283 379.904 268.946 380.033 268.679 380.291C268.413 380.548 268.279 380.953 268.279 381.504ZM273.227 385.062V375.999H274.693V385.062H273.227ZM271.694 379.998V378.665H276.225V379.998H271.694Z" fill="#30333F"/>
        <path d="M99.6365 279.828L99.6897 278.563L102.047 278.663C102.517 278.682 102.886 278.578 103.154 278.349C103.43 278.112 103.578 277.775 103.596 277.34C103.613 276.95 103.498 276.616 103.252 276.339C103.005 276.062 102.647 275.913 102.177 275.893L99.8063 275.794L99.8623 274.462L102.299 274.565C102.885 274.589 103.395 274.731 103.829 274.989C104.263 275.239 104.591 275.573 104.814 275.991C105.045 276.401 105.15 276.863 105.129 277.378C105.106 277.92 104.962 278.385 104.696 278.774C104.44 279.163 104.085 279.46 103.632 279.663C103.179 279.866 102.659 279.956 102.073 279.931L99.6365 279.828ZM98.4181 283.739L98.8104 274.418L100.342 274.482L99.9494 283.803L98.4181 283.739ZM103.531 283.954L100.439 279.769L101.886 279.309L105.462 284.035L103.531 283.954ZM109.166 284.325C108.527 284.298 107.956 284.131 107.453 283.826C106.96 283.511 106.573 283.095 106.292 282.576C106.02 282.058 105.898 281.484 105.924 280.853C105.951 280.223 106.121 279.666 106.435 279.181C106.749 278.687 107.161 278.304 107.67 278.032C108.189 277.761 108.754 277.638 109.367 277.663C109.962 277.688 110.48 277.848 110.921 278.142C111.371 278.437 111.714 278.829 111.952 279.32C112.198 279.81 112.308 280.362 112.282 280.974C112.278 281.081 112.264 281.191 112.241 281.306C112.228 281.412 112.205 281.531 112.173 281.663L106.927 281.442L106.977 280.244L111.465 280.433L110.898 280.889C110.897 280.498 110.835 280.166 110.714 279.894C110.592 279.622 110.409 279.41 110.167 279.258C109.933 279.106 109.639 279.022 109.284 279.007C108.911 278.991 108.583 279.058 108.301 279.206C108.019 279.354 107.797 279.572 107.634 279.858C107.471 280.136 107.381 280.474 107.364 280.874C107.347 281.273 107.412 281.627 107.56 281.936C107.707 282.244 107.923 282.489 108.209 282.67C108.495 282.842 108.829 282.936 109.211 282.953C109.539 282.966 109.844 282.921 110.124 282.818C110.413 282.714 110.659 282.556 110.864 282.342L111.756 283.326C111.43 283.677 111.041 283.937 110.59 284.104C110.138 284.272 109.664 284.346 109.166 284.325ZM115.401 284.587C115.046 284.572 114.706 284.513 114.381 284.411C114.057 284.299 113.76 284.153 113.492 283.973C113.225 283.784 112.994 283.561 112.8 283.304L113.771 282.411C113.983 282.678 114.227 282.884 114.506 283.029C114.793 283.165 115.119 283.241 115.483 283.257C115.812 283.27 116.062 283.232 116.235 283.141C116.408 283.051 116.498 282.912 116.506 282.726C116.514 282.531 116.441 282.376 116.285 282.263C116.13 282.15 115.925 282.052 115.671 281.971C115.426 281.88 115.163 281.789 114.882 281.697C114.61 281.606 114.348 281.488 114.096 281.344C113.854 281.192 113.658 280.992 113.508 280.746C113.358 280.499 113.292 280.185 113.308 279.803C113.325 279.395 113.433 279.048 113.631 278.763C113.839 278.479 114.119 278.264 114.472 278.118C114.834 277.974 115.259 277.911 115.747 277.932C116.262 277.954 116.711 278.066 117.094 278.269C117.486 278.463 117.807 278.748 118.058 279.123L117.087 280.016C116.91 279.777 116.705 279.595 116.47 279.47C116.235 279.344 115.962 279.275 115.651 279.262C115.358 279.249 115.13 279.284 114.967 279.366C114.803 279.448 114.718 279.574 114.711 279.742C114.703 279.92 114.777 280.061 114.933 280.165C115.089 280.27 115.289 280.363 115.535 280.444C115.789 280.526 116.052 280.617 116.324 280.717C116.605 280.809 116.866 280.936 117.108 281.097C117.36 281.25 117.56 281.454 117.709 281.71C117.859 281.956 117.926 282.274 117.909 282.665C117.883 283.286 117.645 283.77 117.195 284.116C116.744 284.461 116.146 284.618 115.401 284.587ZM120.009 284.648L120.39 275.593L121.855 275.655L121.474 284.709L120.009 284.648ZM118.691 279.523L118.747 278.192L123.274 278.382L123.218 279.714L118.691 279.523ZM126.559 285.057C125.982 285.032 125.464 284.864 125.006 284.551C124.556 284.239 124.205 283.828 123.95 283.319C123.705 282.802 123.596 282.233 123.622 281.612C123.649 280.981 123.806 280.423 124.093 279.937C124.389 279.443 124.774 279.059 125.248 278.785C125.732 278.503 126.262 278.374 126.839 278.399C127.327 278.419 127.753 278.544 128.117 278.773C128.49 278.993 128.78 279.29 128.987 279.663C129.193 280.036 129.287 280.454 129.267 280.915L129.19 282.753C129.171 283.215 129.042 283.623 128.805 283.977C128.577 284.332 128.267 284.608 127.876 284.805C127.486 284.993 127.047 285.077 126.559 285.057ZM126.857 283.682C127.398 283.705 127.841 283.541 128.184 283.191C128.537 282.841 128.725 282.382 128.749 281.814C128.765 281.432 128.704 281.092 128.566 280.792C128.427 280.493 128.223 280.258 127.955 280.086C127.696 279.907 127.384 279.809 127.02 279.794C126.665 279.779 126.346 279.85 126.064 280.007C125.791 280.155 125.568 280.373 125.396 280.659C125.233 280.946 125.143 281.28 125.127 281.662C125.111 282.043 125.173 282.384 125.311 282.683C125.459 282.983 125.662 283.223 125.921 283.402C126.19 283.574 126.501 283.667 126.857 283.682ZM128.522 285.006L128.594 283.288L128.912 281.741L128.724 280.186L128.791 278.614L130.255 278.676L129.986 285.068L128.522 285.006ZM134.229 285.38C133.688 285.357 133.209 285.217 132.793 284.959C132.386 284.702 132.071 284.359 131.849 283.932C131.636 283.496 131.542 283.003 131.565 282.453L131.721 278.738L133.186 278.799L133.032 282.448C133.019 282.759 133.057 283.027 133.145 283.253C133.243 283.47 133.387 283.641 133.577 283.765C133.776 283.889 134.014 283.956 134.289 283.968C134.715 283.986 135.044 283.875 135.277 283.636C135.518 283.388 135.649 283.029 135.669 282.559L135.822 278.91L137.287 278.972L137.131 282.687C137.107 283.246 136.967 283.734 136.709 284.15C136.461 284.557 136.123 284.872 135.695 285.094C135.269 285.308 134.78 285.403 134.229 285.38ZM138.491 285.425L138.76 279.034L140.225 279.096L139.956 285.487L138.491 285.425ZM140.105 281.932L139.61 281.658C139.644 280.85 139.849 280.205 140.225 279.722C140.61 279.232 141.167 279.002 141.895 279.032C142.214 279.046 142.5 279.116 142.753 279.242C143.005 279.368 143.237 279.565 143.448 279.831L142.448 280.777C142.338 280.647 142.213 280.553 142.073 280.494C141.933 280.435 141.77 280.401 141.584 280.393C141.176 280.376 140.833 280.491 140.556 280.737C140.279 280.983 140.128 281.381 140.105 281.932ZM146.389 285.891C145.812 285.867 145.295 285.698 144.836 285.386C144.387 285.073 144.035 284.663 143.781 284.154C143.536 283.637 143.427 283.068 143.453 282.446C143.479 281.816 143.636 281.258 143.923 280.772C144.22 280.277 144.605 279.894 145.079 279.62C145.562 279.338 146.092 279.209 146.669 279.233C147.158 279.254 147.584 279.379 147.948 279.607C148.321 279.828 148.611 280.124 148.817 280.498C149.024 280.871 149.117 281.288 149.098 281.75L149.021 283.588C149.001 284.049 148.873 284.457 148.636 284.812C148.407 285.167 148.098 285.443 147.707 285.64C147.317 285.828 146.877 285.912 146.389 285.891ZM146.687 284.517C147.229 284.539 147.671 284.376 148.015 284.026C148.368 283.676 148.556 283.217 148.58 282.649C148.596 282.267 148.535 281.926 148.396 281.627C148.258 281.328 148.054 281.092 147.786 280.921C147.526 280.741 147.215 280.644 146.851 280.628C146.496 280.613 146.177 280.684 145.895 280.842C145.622 280.99 145.399 281.208 145.227 281.494C145.064 281.78 144.974 282.114 144.958 282.496C144.942 282.878 145.003 283.218 145.142 283.518C145.289 283.817 145.493 284.057 145.752 284.237C146.02 284.408 146.332 284.502 146.687 284.517ZM148.352 285.841L148.425 284.123L148.743 282.575L148.555 281.02L148.621 279.449L150.086 279.511L149.817 285.902L148.352 285.841ZM155.823 286.155L155.979 282.467C155.997 282.04 155.874 281.684 155.61 281.397C155.355 281.111 155.015 280.959 154.589 280.941C154.305 280.929 154.049 280.98 153.822 281.095C153.595 281.21 153.414 281.376 153.281 281.593C153.147 281.809 153.074 282.06 153.063 282.344L152.503 282C152.524 281.512 152.649 281.086 152.877 280.722C153.106 280.349 153.412 280.064 153.794 279.867C154.185 279.661 154.616 279.568 155.086 279.588C155.565 279.608 155.986 279.75 156.349 280.014C156.711 280.27 156.991 280.597 157.188 280.997C157.385 281.387 157.474 281.791 157.457 282.209L157.288 286.217L155.823 286.155ZM151.443 285.971L151.712 279.579L153.176 279.641L152.907 286.032L151.443 285.971ZM159.671 286.317L160.052 277.262L161.516 277.324L161.135 286.379L159.671 286.317ZM158.352 281.192L158.408 279.861L162.936 280.051L162.88 281.383L158.352 281.192Z" fill="#30333F"/>
        <path d="M227.42 480.882L227.65 479.569L230.289 480.03C230.752 480.111 231.137 480.029 231.441 479.785C231.745 479.54 231.93 479.23 231.996 478.853C232.04 478.6 232.025 478.353 231.949 478.115C231.873 477.876 231.738 477.672 231.542 477.502C231.346 477.333 231.095 477.221 230.789 477.168L228.15 476.707L228.379 475.394L230.795 475.816C231.189 475.885 231.521 475.839 231.793 475.679C232.064 475.519 232.234 475.242 232.303 474.848C232.372 474.454 232.306 474.136 232.105 473.894C231.903 473.651 231.606 473.495 231.212 473.427L228.796 473.005L229.026 471.692L231.481 472.121C232.102 472.229 232.599 472.433 232.97 472.732C233.342 473.032 233.597 473.379 233.736 473.773C233.874 474.167 233.908 474.569 233.836 474.981C233.752 475.462 233.542 475.863 233.206 476.183C232.88 476.505 232.438 476.734 231.882 476.872L232.083 476.42C232.619 476.757 233.012 477.168 233.261 477.654C233.51 478.139 233.584 478.671 233.483 479.248C233.4 479.721 233.206 480.134 232.901 480.486C232.605 480.84 232.208 481.1 231.71 481.266C231.222 481.424 230.65 481.446 229.994 481.331L227.42 480.882ZM226.383 480.701L227.988 471.511L229.498 471.774L227.893 480.964L226.383 480.701ZM236.917 482.676C236.383 482.583 235.926 482.381 235.548 482.071C235.178 481.763 234.91 481.383 234.746 480.93C234.592 480.47 234.562 479.969 234.657 479.426L235.297 475.763L236.741 476.016L236.112 479.613C236.059 479.919 236.061 480.19 236.119 480.426C236.188 480.654 236.308 480.842 236.481 480.99C236.662 481.139 236.889 481.237 237.16 481.284C237.58 481.358 237.921 481.291 238.182 481.084C238.454 480.87 238.631 480.531 238.712 480.067L239.34 476.47L240.784 476.722L240.145 480.385C240.048 480.936 239.845 481.402 239.536 481.78C239.236 482.152 238.86 482.42 238.407 482.585C237.956 482.74 237.459 482.771 236.917 482.676ZM243.174 483.769C242.824 483.708 242.495 483.605 242.186 483.461C241.879 483.308 241.604 483.125 241.362 482.911C241.121 482.689 240.922 482.437 240.763 482.157L241.843 481.399C242.017 481.691 242.233 481.927 242.49 482.107C242.758 482.28 243.071 482.398 243.43 482.461C243.753 482.517 244.007 482.512 244.19 482.445C244.373 482.377 244.481 482.252 244.513 482.068C244.546 481.875 244.494 481.713 244.354 481.58C244.215 481.448 244.025 481.324 243.783 481.21C243.552 481.088 243.303 480.964 243.037 480.836C242.779 480.71 242.535 480.559 242.304 480.383C242.084 480.201 241.915 479.977 241.799 479.713C241.683 479.45 241.657 479.129 241.723 478.753C241.793 478.35 241.946 478.021 242.18 477.764C242.423 477.509 242.729 477.332 243.098 477.234C243.475 477.138 243.905 477.132 244.386 477.216C244.894 477.305 245.324 477.474 245.677 477.726C246.04 477.969 246.322 478.294 246.522 478.698L245.442 479.457C245.298 479.197 245.118 478.99 244.902 478.835C244.685 478.68 244.424 478.575 244.118 478.522C243.829 478.471 243.598 478.476 243.425 478.536C243.252 478.596 243.151 478.709 243.122 478.876C243.092 479.051 243.147 479.2 243.287 479.324C243.428 479.448 243.615 479.566 243.848 479.679C244.089 479.793 244.338 479.918 244.594 480.053C244.861 480.181 245.103 480.34 245.322 480.532C245.552 480.716 245.724 480.945 245.838 481.217C245.955 481.481 245.979 481.806 245.912 482.191C245.805 482.803 245.506 483.252 245.014 483.536C244.523 483.82 243.909 483.897 243.174 483.769Z" fill="#30333F"/>
        <path d="M129.398 118.733L128.455 109.452L129.979 109.297L130.923 118.578L129.398 118.733ZM135.299 118.133L134.355 108.852L135.88 108.697L136.824 117.978L135.299 118.133ZM130.028 114.516L129.886 113.124L135.071 112.597L135.212 113.989L130.028 114.516ZM141.57 117.63C140.951 117.693 140.375 117.604 139.841 117.363C139.307 117.114 138.864 116.753 138.512 116.279C138.169 115.805 137.966 115.259 137.903 114.64C137.84 114.021 137.929 113.45 138.171 112.925C138.421 112.399 138.783 111.965 139.257 111.622C139.731 111.27 140.277 111.063 140.895 111C141.523 110.936 142.104 111.025 142.637 111.265C143.171 111.505 143.609 111.863 143.952 112.337C144.303 112.801 144.509 113.343 144.572 113.962C144.635 114.581 144.542 115.157 144.293 115.692C144.052 116.225 143.695 116.668 143.222 117.019C142.748 117.362 142.197 117.566 141.57 117.63ZM141.427 116.224C141.789 116.187 142.099 116.075 142.357 115.888C142.623 115.692 142.816 115.44 142.937 115.133C143.066 114.825 143.112 114.485 143.074 114.114C143.036 113.743 142.924 113.424 142.736 113.157C142.548 112.891 142.309 112.692 142.019 112.56C141.727 112.42 141.401 112.369 141.038 112.405C140.685 112.441 140.375 112.558 140.109 112.754C139.851 112.941 139.657 113.184 139.527 113.484C139.405 113.782 139.364 114.116 139.401 114.488C139.439 114.859 139.548 115.183 139.728 115.459C139.917 115.735 140.157 115.942 140.448 116.083C140.747 116.213 141.073 116.26 141.427 116.224ZM146.897 116.954L145.98 107.938L147.439 107.789L148.355 116.806L146.897 116.954ZM144.86 112.07L144.725 110.745L149.233 110.286L149.368 111.612L144.86 112.07ZM153.729 116.393C153.093 116.458 152.504 116.375 151.962 116.144C151.429 115.904 150.986 115.547 150.634 115.073C150.291 114.599 150.088 114.048 150.024 113.421C149.96 112.793 150.049 112.217 150.29 111.692C150.531 111.159 150.884 110.721 151.349 110.379C151.823 110.036 152.365 109.834 152.975 109.772C153.568 109.711 154.103 109.795 154.582 110.024C155.069 110.251 155.465 110.59 155.77 111.041C156.084 111.492 156.272 112.022 156.334 112.632C156.345 112.738 156.347 112.849 156.341 112.966C156.343 113.073 156.338 113.194 156.324 113.329L151.1 113.861L150.979 112.667L155.447 112.213L154.952 112.745C154.895 112.358 154.787 112.039 154.627 111.787C154.468 111.536 154.257 111.352 153.995 111.235C153.742 111.118 153.439 111.078 153.085 111.113C152.714 111.151 152.399 111.264 152.141 111.451C151.883 111.638 151.694 111.885 151.574 112.192C151.452 112.49 151.412 112.838 151.452 113.235C151.493 113.633 151.608 113.974 151.797 114.259C151.987 114.543 152.236 114.754 152.545 114.893C152.853 115.022 153.197 115.067 153.577 115.029C153.904 114.996 154.199 114.907 154.461 114.765C154.732 114.621 154.954 114.429 155.126 114.188L156.15 115.035C155.877 115.429 155.529 115.741 155.106 115.972C154.683 116.202 154.224 116.343 153.729 116.393ZM157.842 115.841L156.871 106.294L158.329 106.146L159.3 115.693L157.842 115.841Z" fill="#30333F"/>
        <path d="M272.731 284.699C272.61 285.228 272.399 285.676 272.096 286.045C271.786 286.402 271.425 286.666 271.013 286.836L270.292 285.565C270.55 285.469 270.766 285.322 270.939 285.124C271.111 284.927 271.228 284.694 271.29 284.425C271.357 284.131 271.353 283.866 271.28 283.63C271.206 283.395 271.069 283.195 270.869 283.031C270.67 282.867 270.414 282.749 270.102 282.678L263.813 281.244L264.154 279.749L270.326 281.157C270.933 281.295 271.438 281.538 271.842 281.886C272.247 282.224 272.532 282.635 272.695 283.119C272.849 283.601 272.861 284.128 272.731 284.699ZM274.344 277.629C274.223 278.157 273.998 278.603 273.67 278.965C273.343 279.319 272.949 279.566 272.489 279.707C272.022 279.838 271.519 279.842 270.982 279.719L267.357 278.892L267.683 277.463L271.243 278.275C271.547 278.344 271.817 278.356 272.056 278.31C272.287 278.253 272.481 278.143 272.637 277.978C272.795 277.804 272.905 277.583 272.966 277.315C273.061 276.899 273.012 276.555 272.819 276.283C272.619 276.001 272.289 275.807 271.83 275.702L268.27 274.89L268.596 273.461L272.221 274.288C272.767 274.412 273.221 274.639 273.584 274.968C273.939 275.286 274.188 275.675 274.329 276.135C274.461 276.594 274.466 277.092 274.344 277.629ZM275.164 273.433L268.927 272.011L269.253 270.581L275.49 272.004L275.164 273.433ZM267.946 271.035C267.891 271.278 267.762 271.463 267.56 271.59C267.36 271.708 267.139 271.74 266.896 271.684C266.654 271.629 266.468 271.504 266.339 271.311C266.212 271.109 266.176 270.887 266.231 270.644C266.288 270.393 266.417 270.208 266.617 270.09C266.818 269.971 267.039 269.94 267.281 269.995C267.524 270.05 267.71 270.175 267.839 270.368C267.968 270.562 268.004 270.784 267.946 271.035ZM276.64 267.559C276.5 268.174 276.23 268.7 275.829 269.137C275.431 269.566 274.952 269.867 274.393 270.04C273.834 270.213 273.252 270.231 272.645 270.092C272.03 269.952 271.513 269.684 271.093 269.287C270.664 268.889 270.363 268.41 270.19 267.851C270.019 267.283 270.003 266.692 270.144 266.077C270.254 265.592 270.452 265.163 270.738 264.791C271.016 264.408 271.363 264.109 271.776 263.893L272.511 265.045C272.253 265.178 272.043 265.362 271.88 265.598C271.71 265.824 271.59 266.088 271.521 266.391C271.44 266.746 271.45 267.081 271.551 267.396C271.646 267.7 271.814 267.962 272.056 268.181C272.3 268.391 272.608 268.539 272.98 268.624C273.344 268.707 273.686 268.708 274.005 268.626C274.318 268.533 274.587 268.371 274.813 268.14C275.032 267.898 275.182 267.6 275.263 267.245C275.332 266.942 275.344 266.653 275.297 266.378C275.244 266.092 275.129 265.834 274.954 265.602L276.116 264.883C276.396 265.257 276.582 265.677 276.676 266.145C276.763 266.603 276.751 267.074 276.64 267.559ZM278.062 261.328C277.92 261.952 277.652 262.483 277.261 262.922C276.862 263.351 276.382 263.656 275.822 263.838C275.263 264.011 274.676 264.028 274.061 263.887C273.445 263.747 272.928 263.479 272.508 263.082C272.08 262.684 271.778 262.209 271.602 261.659C271.429 261.1 271.411 260.522 271.547 259.924C271.679 259.344 271.93 258.863 272.3 258.483C272.671 258.093 273.119 257.826 273.644 257.682C274.171 257.529 274.734 257.52 275.331 257.657C275.435 257.68 275.542 257.714 275.65 257.757C275.752 257.789 275.865 257.833 275.989 257.889L274.821 263.008L273.652 262.742L274.651 258.363L274.997 259.002C274.612 258.932 274.275 258.933 273.985 259.004C273.696 259.074 273.454 259.215 273.26 259.426C273.068 259.628 272.933 259.903 272.854 260.249C272.771 260.613 272.776 260.947 272.871 261.251C272.966 261.555 273.139 261.814 273.391 262.026C273.635 262.237 273.952 262.386 274.342 262.475C274.731 262.564 275.091 262.564 275.421 262.475C275.752 262.387 276.032 262.218 276.261 261.97C276.482 261.719 276.636 261.408 276.72 261.036C276.794 260.715 276.804 260.408 276.753 260.113C276.704 259.811 276.592 259.539 276.419 259.299L277.549 258.6C277.835 258.984 278.02 259.414 278.103 259.888C278.186 260.363 278.172 260.843 278.062 261.328ZM280.564 250.356C280.414 251.015 280.158 251.599 279.796 252.108C279.427 252.607 278.983 253.016 278.463 253.335C277.935 253.652 277.364 253.859 276.75 253.956C276.126 254.051 275.49 254.024 274.84 253.876C274.191 253.728 273.61 253.477 273.098 253.123C272.578 252.768 272.153 252.333 271.823 251.821C271.494 251.308 271.271 250.747 271.155 250.137C271.041 249.519 271.059 248.881 271.209 248.222C271.377 247.486 271.643 246.877 272.008 246.395C272.373 245.913 272.811 245.512 273.322 245.191L274.104 246.436C273.749 246.637 273.444 246.914 273.19 247.266C272.939 247.61 272.755 248.037 272.638 248.548C272.535 248.999 272.52 249.428 272.591 249.836C272.661 250.244 272.813 250.62 273.044 250.965C273.269 251.298 273.563 251.584 273.928 251.823C274.293 252.061 274.714 252.234 275.19 252.343C275.667 252.451 276.121 252.478 276.553 252.421C276.985 252.365 277.379 252.236 277.735 252.035C278.084 251.823 278.379 251.548 278.62 251.211C278.861 250.874 279.032 250.481 279.135 250.03C279.262 249.476 279.286 248.989 279.208 248.571C279.124 248.141 278.965 247.759 278.732 247.423L279.977 246.641C280.306 247.153 280.528 247.719 280.642 248.337C280.756 248.956 280.73 249.629 280.564 250.356ZM282.209 243.145C282.071 243.751 281.803 244.269 281.404 244.697C280.997 245.124 280.513 245.428 279.952 245.61C279.393 245.783 278.81 245.801 278.204 245.663C277.598 245.524 277.084 245.257 276.665 244.86C276.247 244.455 275.951 243.973 275.778 243.414C275.596 242.853 275.574 242.269 275.712 241.663C275.853 241.048 276.122 240.526 276.521 240.098C276.919 239.669 277.398 239.368 277.957 239.195C278.509 239.011 279.088 238.988 279.695 239.127C280.301 239.265 280.818 239.538 281.244 239.945C281.673 240.343 281.978 240.823 282.16 241.384C282.333 241.943 282.35 242.53 282.209 243.145ZM280.832 242.831C280.913 242.476 280.906 242.146 280.811 241.842C280.71 241.527 280.533 241.264 280.281 241.051C280.031 240.83 279.724 240.678 279.36 240.595C278.996 240.512 278.658 240.517 278.345 240.61C278.032 240.702 277.767 240.865 277.55 241.098C277.324 241.329 277.171 241.622 277.09 241.977C277.011 242.324 277.022 242.654 277.123 242.969C277.218 243.273 277.386 243.535 277.628 243.754C277.871 243.965 278.175 244.111 278.539 244.194C278.903 244.277 279.244 244.278 279.564 244.196C279.885 244.105 280.159 243.944 280.385 243.713C280.604 243.471 280.753 243.177 280.832 242.831ZM283.097 238.652L276.86 237.23L277.186 235.8L283.423 237.223L283.097 238.652ZM279.954 236.432L279.595 236.869C278.806 236.689 278.209 236.371 277.803 235.914C277.39 235.446 277.265 234.857 277.427 234.146C277.498 233.835 277.619 233.566 277.789 233.34C277.958 233.115 278.194 232.922 278.494 232.763L279.242 233.918C279.095 234.003 278.98 234.109 278.897 234.236C278.813 234.362 278.75 234.517 278.709 234.699C278.618 235.097 278.669 235.455 278.861 235.772C279.052 236.089 279.417 236.309 279.954 236.432ZM285.28 229.086L281.68 228.265C281.264 228.17 280.892 228.226 280.562 228.434C280.234 228.632 280.023 228.939 279.928 229.355C279.865 229.632 279.869 229.893 279.941 230.137C280.013 230.382 280.143 230.589 280.332 230.76C280.521 230.93 280.754 231.047 281.031 231.111L280.592 231.598C280.115 231.489 279.719 231.29 279.403 230.999C279.077 230.706 278.852 230.354 278.728 229.943C278.596 229.521 278.583 229.08 278.687 228.621C278.794 228.153 279.01 227.765 279.336 227.457C279.653 227.146 280.025 226.931 280.454 226.81C280.874 226.687 281.287 226.672 281.694 226.764L285.606 227.657L285.28 229.086ZM284.304 233.361L278.067 231.938L278.393 230.509L284.63 231.932L284.304 233.361ZM286.728 223.336C286.585 223.96 286.318 224.491 285.927 224.93C285.528 225.359 285.048 225.664 284.487 225.846C283.928 226.019 283.341 226.036 282.726 225.896C282.111 225.755 281.594 225.487 281.174 225.09C280.745 224.692 280.444 224.217 280.268 223.667C280.095 223.108 280.077 222.53 280.213 221.932C280.345 221.352 280.596 220.871 280.966 220.491C281.337 220.102 281.785 219.835 282.31 219.69C282.837 219.537 283.4 219.529 283.997 219.665C284.101 219.689 284.208 219.722 284.316 219.765C284.418 219.797 284.531 219.841 284.655 219.897L283.487 225.017L282.318 224.75L283.317 220.371L283.663 221.01C283.278 220.941 282.941 220.941 282.651 221.012C282.362 221.083 282.12 221.223 281.926 221.434C281.734 221.637 281.599 221.911 281.519 222.257C281.436 222.621 281.442 222.955 281.537 223.259C281.632 223.563 281.805 223.822 282.057 224.034C282.301 224.245 282.618 224.394 283.008 224.483C283.397 224.572 283.757 224.572 284.087 224.484C284.418 224.395 284.697 224.226 284.927 223.978C285.148 223.728 285.301 223.416 285.386 223.044C285.46 222.723 285.47 222.416 285.419 222.122C285.37 221.819 285.258 221.547 285.085 221.307L286.215 220.608C286.501 220.993 286.686 221.422 286.769 221.897C286.852 222.371 286.838 222.851 286.728 223.336ZM287.52 219.263L281.283 217.84L281.609 216.411L287.846 217.834L287.52 219.263ZM284.377 217.042L284.017 217.48C283.229 217.3 282.632 216.982 282.226 216.524C281.813 216.057 281.688 215.468 281.85 214.757C281.921 214.445 282.041 214.177 282.211 213.951C282.381 213.726 282.616 213.533 282.917 213.374L283.665 214.529C283.518 214.614 283.403 214.72 283.319 214.846C283.236 214.973 283.173 215.127 283.132 215.309C283.041 215.708 283.091 216.066 283.283 216.383C283.475 216.7 283.84 216.92 284.377 217.042Z" fill="#30333F"/>
        <path d="M278.156 49.4238L243.727 54.977L278.156 81.0768V49.4238Z" fill="#FCFBF2" stroke="#30333F" stroke-opacity="0.13" stroke-width="1.11063"/>
        <path d="M312.034 -22.7676L302.594 19.4365L422.542 -5.55278L312.034 -22.7676Z" fill="#FCFBF2" stroke="#30333F" stroke-opacity="0.13" stroke-width="1.11063"/>
        <g filter="url(#filter0_d_2392_13574)">
            <rect x="324.844" y="363.888" width="49.8666" height="33.8786" rx="16.9393" fill="white"/>
        </g>
        <path fill-rule="evenodd" clip-rule="evenodd" d="M359.911 380.058C359.39 376.847 355.638 374.298 350.912 373.944V372.358H348.646V373.944C343.92 374.298 340.168 376.847 339.647 380.058H337.312V381.598H339.647C340.168 384.808 343.92 387.357 348.646 387.711V389.297H350.912V387.711C355.638 387.357 359.39 384.808 359.911 381.598H362.246V380.058H359.911ZM349.779 377.748C347.275 377.748 345.246 379.126 345.246 380.828C345.246 382.529 347.275 383.908 349.779 383.908C352.284 383.908 354.313 382.529 354.313 380.828C354.313 379.126 352.284 377.748 349.779 377.748ZM341.846 380.828C341.846 383.807 345.393 386.217 349.779 386.217C354.165 386.217 357.713 383.807 357.713 380.828C357.713 377.848 354.165 375.438 349.779 375.438C345.393 375.438 341.846 377.848 341.846 380.828Z" fill="black"/>
        <path fill-rule="evenodd" clip-rule="evenodd" d="M172.68 376.84C241.893 376.84 298 338.721 298 291.699C298 244.677 241.893 206.559 172.68 206.559C103.467 206.559 47.3594 244.677 47.3594 291.699C47.3594 338.721 103.467 376.84 172.68 376.84Z" fill="#4CE5B1" fill-opacity="0.1"/>
        <g filter="url(#filter1_d_2392_13574)">
            <path fill-rule="evenodd" clip-rule="evenodd" d="M173.226 313.169C190.378 313.169 204.283 303.723 204.283 292.069C204.283 280.416 190.378 270.969 173.226 270.969C156.073 270.969 142.168 280.416 142.168 292.069C142.168 303.723 156.073 313.169 173.226 313.169Z" fill="#F0C414"/>
            <path fill-rule="evenodd" clip-rule="evenodd" d="M173.226 313.169C190.378 313.169 204.283 303.723 204.283 292.069C204.283 280.416 190.378 270.969 173.226 270.969C156.073 270.969 142.168 280.416 142.168 292.069C142.168 303.723 156.073 313.169 173.226 313.169Z" stroke="white" stroke-width="2.13583"/>
        </g>
        <path d="M188.852 285.733L174.582 303.004C174.313 303.365 173.861 303.545 173.228 303.545C173.148 303.545 173.03 303.535 172.871 303.514C172.523 303.463 172.242 303.347 172.028 303.167C171.814 302.986 171.707 302.783 171.707 302.556L172.028 293.409L157.852 290.85C157.503 290.85 157.19 290.781 156.913 290.642C156.636 290.503 156.458 290.32 156.378 290.093C156.299 289.867 156.331 289.65 156.473 289.444C156.616 289.238 156.846 289.084 157.163 288.981L186.809 284.404C187.015 284.332 187.244 284.296 187.498 284.296C187.926 284.296 188.282 284.394 188.567 284.589C188.805 284.734 188.951 284.911 189.007 285.122C189.062 285.333 189.011 285.537 188.852 285.733Z" fill="white"/>
    </g>
    <defs>
        <filter id="filter0_d_2392_13574" x="313.737" y="358.335" width="72.0798" height="56.0911" filterUnits="userSpaceOnUse" color-interpolation-filters="sRGB">
            <feFlood flood-opacity="0" result="BackgroundImageFix"/>
            <feColorMatrix in="SourceAlpha" type="matrix" values="0 0 0 0 0 0 0 0 0 0 0 0 0 0 0 0 0 0 127 0" result="hardAlpha"/>
            <feOffset dy="5.55316"/>
            <feGaussianBlur stdDeviation="5.55316"/>
            <feColorMatrix type="matrix" values="0 0 0 0 0 0 0 0 0 0 0 0 0 0 0 0 0 0 0.1 0"/>
            <feBlend mode="normal" in2="BackgroundImageFix" result="effect1_dropShadow_2392_13574"/>
            <feBlend mode="normal" in="SourceGraphic" in2="effect1_dropShadow_2392_13574" result="shape"/>
        </filter>
        <filter id="filter1_d_2392_13574" x="136.83" y="267.766" width="72.7933" height="52.8793" filterUnits="userSpaceOnUse" color-interpolation-filters="sRGB">
            <feFlood flood-opacity="0" result="BackgroundImageFix"/>
            <feColorMatrix in="SourceAlpha" type="matrix" values="0 0 0 0 0 0 0 0 0 0 0 0 0 0 0 0 0 0 127 0" result="hardAlpha"/>
            <feOffset dy="2.13583"/>
            <feGaussianBlur stdDeviation="2.13583"/>
            <feColorMatrix type="matrix" values="0 0 0 0 0 0 0 0 0 0 0 0 0 0 0 0 0 0 0.3 0"/>
            <feBlend mode="normal" in2="BackgroundImageFix" result="effect1_dropShadow_2392_13574"/>
            <feBlend mode="normal" in="SourceGraphic" in2="effect1_dropShadow_2392_13574" result="shape"/>
        </filter>
        <clipPath id="clip0_2392_13574">
            <rect width="425" height="482" fill="white" transform="translate(0.5)"/>
        </clipPath>
    </defs>
</svg>
