<svg width="153" height="153" viewBox="0 0 153 153" fill="none" xmlns="http://www.w3.org/2000/svg">
    <rect x="0.77" y="0.316387" width="151.466" height="151.466" rx="7.68313" fill="#FCFEFF" stroke="#C3C3CE" stroke-width="0.63375"/>
    <path d="M127.152 102.273C125.479 96.1071 120.43 91.4606 114.157 90.2502C104.302 88.3489 95.2225 88.7809 95.2225 88.7809H57.9538C57.9538 88.7809 48.8742 88.3489 39.0194 90.2502C32.7464 91.4606 27.6964 96.1071 26.0244 102.273C22.8493 113.977 15.2422 134.782 15.2422 151.442L18.6053 151.556C72.2797 151.442 64.3578 151.556 79.6734 151.556L95.2225 151.442L98.1578 151.556L101.855 151.442H105.552H109.248H117.17L120.339 151.556H125.092C133.014 151.442 125.783 151.637 134.573 151.556L137.936 151.442C137.934 134.782 130.326 113.977 127.152 102.273Z" fill="#E8F1F7"/>
    <path d="M87.262 75.7476C87.262 75.7476 85.0903 85.1598 95.2261 88.7806C95.2261 88.7806 94.5173 101.451 76.5896 101.451C58.6619 101.451 57.9531 88.7806 57.9531 88.7806C68.09 85.1609 65.9172 75.7476 65.9172 75.7476H87.262Z" fill="#F7C9C6"/>
    <path d="M76.5903 14.9919C44.231 14.6993 50.0763 44.4011 51.8867 51.4315C52.1519 52.4624 52.3789 53.4996 52.5912 54.5464C53.8873 60.9451 59.7463 83.8108 76.5903 83.8108C93.4333 83.8108 99.2933 60.9451 100.589 54.5464C100.802 53.4996 101.028 52.4613 101.294 51.4315C103.105 44.4011 108.95 14.6983 76.5903 14.9919Z" fill="#F7C9C6"/>
    <path d="M101.292 51.4314C101.292 51.4314 93.1807 40.0778 94.0827 28.533C94.0827 28.533 74.2442 35.6997 54.2769 31.668C54.2769 31.668 54.9265 44.1201 51.6257 50.3741C51.6257 50.3741 41.9758 30.6497 49.3304 18.6771C55.4578 8.70295 76.5859 2.85873 96.0273 14.2102C96.0273 14.2102 114.823 12.7209 101.292 51.4314Z" fill="#352929"/>
    <path d="M65.4814 47.1538C65.4814 48.5945 64.3142 49.7616 62.8735 49.7616C61.4338 49.7616 60.2656 48.5945 60.2656 47.1538C60.2656 45.7141 61.4328 44.5459 62.8735 44.5459C64.3142 44.547 65.4814 45.7141 65.4814 47.1538Z" fill="#352929"/>
    <path d="M87.2744 47.1538C87.2744 48.5945 86.1072 49.7616 84.6665 49.7616C83.2257 49.7616 82.0586 48.5945 82.0586 47.1538C82.0586 45.7141 83.2257 44.5459 84.6665 44.5459C86.1072 44.547 87.2744 45.7141 87.2744 47.1538Z" fill="#352929"/>
    <path d="M81.8441 67.6201C80.4477 68.1017 78.0437 68.7069 74.7852 68.7069C71.5266 68.7069 69.1236 68.1017 67.7262 67.6201C67.2245 67.4468 66.7408 67.8915 67.0038 68.2813C68.0347 69.8076 70.3552 72.1936 74.7841 72.1936C79.214 72.1936 81.5346 69.8076 82.5644 68.2813C82.8296 67.8915 82.3458 67.4468 81.8441 67.6201Z" fill="#D39090"/>
    <path d="M52.3891 43.9449C52.3891 43.9449 52.2856 39.0798 47.937 40.3145C43.5884 41.5493 47.1734 55.5604 53.4517 53.4659L52.3891 43.9449Z" fill="#F7C9C6"/>
    <path d="M101.309 43.9449C101.309 43.9449 101.412 39.0798 105.761 40.3145C110.109 41.5503 106.524 55.5604 100.246 53.4659L101.309 43.9449Z" fill="#F7C9C6"/>
    <path d="M57.9546 88.7802L57.4159 86.7681L51.5273 87.3765C51.5273 87.3765 53.5553 107.163 75.8961 106.622C98.2368 106.081 101.161 88.8087 101.161 88.8087V87.3184L95.2265 86.7691L95.2244 88.8045C95.2244 88.8045 93.7815 101.231 76.59 101.452C59.3996 101.672 57.9546 88.7802 57.9546 88.7802Z" fill="#9BB4C6"/>
    <path d="M74.0732 45.4497C74.0732 45.4497 74.9393 56.2794 68.5078 60.8815C68.5078 60.8815 73.2599 62.4701 75.8921 60.1432C75.8921 60.1432 76.4233 51.0151 74.0732 45.4497Z" fill="#E2ABAA"/>
</svg>
