<svg width="214" height="226" viewBox="0 0 214 226" fill="none" xmlns="http://www.w3.org/2000/svg">
    <path d="M141.877 215.829C141.877 221.446 124.314 226 102.648 226C80.9817 226 63.418 221.446 63.418 215.829C63.418 210.212 80.9817 205.658 102.648 205.658C124.314 205.658 141.877 210.212 141.877 215.829Z" fill="#E6F4F2"/>
    <path d="M59.2413 59.7623C57.6865 58.309 56.4596 56.61 55.5888 54.7729C53.5803 50.558 53.421 45.6224 55.3589 41.3025C57.3262 36.9185 61.2101 33.713 65.8145 32.4549C67.1155 32.0957 68.4779 31.8922 69.8707 31.8663C73.654 49.8814 59.2413 59.7623 59.2413 59.7623Z" fill="#96D2CB"/>
    <path d="M57.2349 43.9834C57.0467 43.8904 52.5838 41.6461 48.9583 36.1647C45.6412 31.1493 42.4295 22.3544 45.9666 8.93745L48.3354 9.5621C45.6963 19.5725 46.5695 28.032 50.9307 34.7053C54.1835 39.6827 58.2805 41.7673 58.3214 41.7876L57.2349 43.9834Z" fill="#96D2CB"/>
    <path d="M53.6901 6.2288C53.7962 9.37686 51.3303 12.0148 48.1822 12.1209C45.0342 12.227 42.3959 9.76114 42.2898 6.61308C42.1837 3.46502 44.6499 0.827056 47.798 0.720942C50.946 0.614828 53.584 3.08074 53.6901 6.2288Z" fill="#0E0D39"/>
    <path d="M44.1441 5.56929C44.5024 7.22115 46.1317 8.26976 47.7837 7.9115C49.4354 7.5534 50.484 5.92388 50.1258 4.27202C49.7675 2.62031 48.1383 1.57154 46.4865 1.9298C44.8346 2.28806 43.7858 3.91743 44.1441 5.56929Z" fill="#296ABD"/>
    <path d="M59.2436 59.7619C57.6889 58.3085 56.4618 56.6095 55.591 54.7724C57.332 51.4816 59.0741 47.9824 60.7837 44.2768C62.6676 40.1935 64.3365 36.2409 65.8169 32.4544C67.1179 32.0952 68.4803 31.8917 69.8731 31.8659C66.3299 41.1645 62.7868 50.4632 59.2436 59.7619Z" fill="#0596DE"/>
    <path d="M146.093 77.6883C144.459 100.346 92.5117 107.832 68.2128 94.1372C61.4618 90.3328 56.8458 84.8908 56.0337 77.6883C52.2994 44.5595 74.2322 14.2273 99.4306 14.2273C108.565 14.2273 119.292 17.7235 128.174 25.4685C139.559 35.3833 147.93 52.266 146.093 77.6883Z" fill="#96D2CB"/>
    <path d="M132.613 57.6728C132.613 62.219 127.622 65.0189 121.19 66.6813C114.414 68.4346 106.039 68.928 100.209 68.8721C91.8617 68.7916 75.7627 67.3426 69.9567 62.0546C68.5952 60.8157 67.8008 59.3633 67.8008 57.6728C67.8008 52.7487 69.8517 48.2901 73.1695 45.0598C76.4871 41.8329 81.072 39.8381 86.136 39.8381H114.278C120.164 39.8381 125.403 42.5364 128.756 46.7292C131.174 49.7529 132.613 53.5501 132.613 57.6728Z" fill="#0E0D39"/>
    <path d="M132.609 57.6762C132.609 62.2224 127.619 65.0223 121.186 66.6846C114.41 68.438 106.036 68.9314 100.205 68.8754C91.8581 68.795 75.7591 67.3461 69.9531 62.0581C86.4859 61.5611 114.589 58.8488 128.753 46.7327C131.171 49.7564 132.609 53.5535 132.609 57.6762Z" fill="#33487A"/>
    <path d="M146.091 77.6873C144.457 100.345 92.5098 107.831 68.2109 94.1362C83.0569 96.6 127.252 102.011 135.203 80.7181C142.042 62.4073 133.587 37.9755 128.172 25.4675C139.557 35.3823 147.929 52.2651 146.091 77.6873Z" fill="#0596DE"/>
    <path d="M70.3959 36.5215C71.7384 38.2923 79.9926 34.586 85.5356 30.5071C90.8485 26.5975 96.2723 20.4312 95.0757 18.6859C94.0132 17.1362 87.9174 19.345 84.0839 21.3821C75.5039 25.9412 68.9334 34.5925 70.3959 36.5215Z" fill="#96D2CB"/>
    <path d="M58.3678 71.7764C58.5644 77.829 62.2626 83.575 63.7587 83.1831C65.329 82.7719 64.69 75.5429 63.9662 71.5692C63.7584 70.4284 62.4874 63.4509 60.8553 63.4808C59.572 63.5043 58.2405 67.8562 58.3678 71.7764Z" fill="#96D2CB"/>
    <path d="M90.5217 53.8401C90.5217 58.3638 86.8544 62.0311 82.3306 62.0311C78.8335 62.0311 75.8494 59.8438 74.6738 56.7614C74.3277 55.8544 74.1367 54.8697 74.1367 53.8401C74.1367 49.3165 77.8039 45.6492 82.3306 45.6492C85.6608 45.6492 88.5254 47.6365 89.8024 50.4891C90.2649 51.5128 90.5217 52.6464 90.5217 53.8401Z" fill="#393760"/>
    <path d="M82.3267 45.6517C85.6568 45.6517 88.5229 47.6389 89.8 50.4917C90.2626 51.5152 90.5192 52.6491 90.5192 53.8427C90.5192 58.3665 86.8519 62.0338 82.3282 62.0338C78.831 62.0338 75.8471 59.8465 74.6714 56.7639C74.3252 55.8569 74.1342 54.8722 74.1342 53.8427C74.1342 49.3191 77.8001 45.6517 82.3267 45.6517ZM82.3282 44.2517C77.0382 44.2517 72.7344 48.5543 72.7344 53.8427C72.7344 55.0182 72.946 56.169 73.3634 57.263C74.7712 60.9538 78.3738 63.4337 82.3282 63.4337C87.6167 63.4337 91.9191 59.1312 91.9191 53.8427C91.9191 52.4751 91.6353 51.1536 91.0757 49.9152C89.5362 46.4766 86.1018 44.2517 82.3282 44.2517Z" fill="#46AED2"/>
    <path d="M89.7953 50.4643C86.7375 57.8569 79.1484 57.6467 74.6876 56.7872C74.3383 55.8812 74.1442 54.8972 74.1407 53.8678C74.1255 49.344 77.7806 45.6644 82.3072 45.6492C85.6373 45.6382 88.5087 47.616 89.7953 50.4643Z" fill="#2F4572"/>
    <path d="M84.2431 51.123C84.2431 52.6247 83.0256 53.8422 81.5239 53.8422C80.022 53.8422 78.8047 52.6247 78.8047 51.123C78.8047 49.6212 80.022 48.4038 81.5239 48.4038C83.0256 48.4038 84.2431 49.6212 84.2431 51.123Z" fill="#2BA596"/>
    <path d="M88.2964 55.4332C88.7415 55.7324 88.1353 58.5855 86.1081 59.6772C84.3065 60.6471 81.9197 59.937 81.8643 59.4119C81.8233 59.026 83.0602 58.9206 85.1295 57.6676C87.3074 56.349 87.9866 55.2249 88.2964 55.4332Z" fill="#2BA596"/>
    <path d="M82.2537 45.678C87.0144 45.6755 90.4687 49.4017 90.4323 53.8021C90.4305 55.226 89.4354 50.2095 82.1993 50.311C74.9092 50.4134 74.0994 55.3818 74.0752 53.7749C73.857 49.5106 77.7369 45.6802 82.2537 45.678Z" fill="#0E0D39"/>
    <path d="M126.596 54.1431C126.596 58.6667 122.929 62.3341 118.405 62.3341C114.908 62.3341 111.924 60.1468 110.748 57.0644C110.402 56.1573 110.211 55.1727 110.211 54.1431C110.211 49.6195 113.878 45.9521 118.405 45.9521C121.735 45.9521 124.6 47.9395 125.877 50.7921C126.339 51.8157 126.596 52.9494 126.596 54.1431Z" fill="#393760"/>
    <path d="M118.405 45.9527C121.735 45.9527 124.601 47.94 125.878 50.7927C126.341 51.8162 126.597 52.9502 126.597 54.1437C126.597 58.6675 122.93 62.3348 118.406 62.3348C114.909 62.3348 111.925 60.1475 110.75 57.065C110.403 56.1579 110.212 55.1732 110.212 54.1437C110.212 49.6201 113.878 45.9527 118.405 45.9527ZM118.406 44.5527C113.116 44.5527 108.812 48.8554 108.812 54.1437C108.812 55.3192 109.024 56.47 109.442 57.564C110.849 61.2548 114.452 63.7347 118.406 63.7347C123.695 63.7347 127.997 59.4322 127.997 54.1437C127.997 52.7761 127.713 51.4547 127.154 50.2162C125.614 46.7776 122.18 44.5527 118.406 44.5527Z" fill="#46AED2"/>
    <path d="M125.873 50.7673C122.816 58.1599 115.227 57.9497 110.766 57.0902C110.416 56.1842 110.222 55.2001 110.219 54.1708C110.204 49.647 113.859 45.9674 118.385 45.9522C121.715 45.9411 124.587 47.919 125.873 50.7673Z" fill="#2F4572"/>
    <path d="M120.474 51.424C120.474 52.9258 119.256 54.1433 117.754 54.1433C116.253 54.1433 115.035 52.9258 115.035 51.424C115.035 49.9222 116.253 48.7048 117.754 48.7048C119.256 48.7048 120.474 49.9222 120.474 51.424Z" fill="#2BA596"/>
    <path d="M124.828 55.7342C125.273 56.0334 124.667 58.8865 122.639 59.9782C120.838 60.9481 118.451 60.238 118.396 59.7129C118.355 59.327 119.591 59.2216 121.661 57.9687C123.839 56.6501 124.518 55.5259 124.828 55.7342Z" fill="#2BA596"/>
    <path d="M118.328 45.678C123.089 45.6755 126.543 49.4017 126.506 53.8021C126.505 55.226 125.51 50.2095 118.274 50.311C110.983 50.4134 110.174 55.3818 110.149 53.7749C109.931 49.5106 113.811 45.6802 118.328 45.678Z" fill="#0E0D39"/>
    <path d="M102.646 41.7044C102.725 42.2484 99.0442 43.5306 95.2315 43.8821C89.0462 44.4524 83.3786 42.4939 83.4618 41.8082C83.5002 41.4935 87.4111 41.4559 95.2315 41.3935C101.515 41.3433 102.604 41.4171 102.646 41.7044Z" fill="#296ABD"/>
    <path d="M81.9688 72.9333C83.4276 73.7199 84.8994 74.4188 86.3952 75.0417C87.8887 75.6653 89.3971 76.2205 90.9246 76.6807C93.9764 77.607 97.0995 78.1644 100.228 78.244C101.792 78.2746 103.353 78.1767 104.905 77.9737C106.457 77.7579 107.984 77.3882 109.506 76.9507C112.527 76.0004 115.435 74.5919 118.307 72.9333C116.077 75.3874 113.286 77.3735 110.177 78.7565C108.608 79.4122 106.972 79.9358 105.289 80.2655C104.87 80.3526 104.443 80.3992 104.02 80.4665C103.596 80.5388 103.169 80.5739 102.742 80.6083C101.887 80.692 101.029 80.6888 100.172 80.6925C96.7423 80.6046 93.364 79.8116 90.2637 78.4829C88.7135 77.8152 87.2281 77.0165 85.8298 76.0976C85.1328 75.6344 84.4516 75.151 83.8073 74.6201C83.1614 74.0935 82.5317 73.5463 81.9688 72.9333Z" fill="#33487A"/>
    <path d="M142.819 129.471C142.819 152.338 126.776 179.199 101.288 179.199C85.4935 179.199 72.4954 169.529 64.8974 156.601C60.2251 148.664 57.5898 139.498 57.5898 130.587C57.5898 107.16 83.1591 108.276 99.3629 108.276C117.135 108.276 138.231 106.915 142.165 123.465C142.595 125.25 142.819 127.245 142.819 129.471Z" fill="#96D2CB"/>
    <path d="M142.82 129.473C142.82 152.34 126.778 179.201 101.289 179.201C85.4945 179.201 72.4964 169.531 64.8984 156.603C80.7277 164.054 125.819 179.488 142.166 123.468C142.596 125.252 142.82 127.247 142.82 129.473Z" fill="#0596DE"/>
    <path d="M66.4168 121.506C63.1059 126.905 65.4478 134.588 71.1331 137.603C77.1422 140.791 85.3181 137.933 87.5524 131.597C89.6749 125.577 85.585 118.83 79.7247 116.937C75.0253 115.419 69.1695 117.017 66.4168 121.506Z" fill="#96D2CB"/>
    <path d="M48.8923 114.823C53.8335 117.507 51.2426 123.42 45.1173 130.624C37.8014 139.226 18.0043 148.789 6.18399 142.311L6.18054 142.31C5.10366 141.72 4.0959 140.999 3.16646 140.13C-7.95984 129.72 35.8952 112.97 42.2138 113.322C45.2065 113.49 47.3948 114.008 48.8923 114.823Z" fill="#96D2CB"/>
    <path d="M48.8948 114.824C53.8361 117.508 51.2453 123.422 45.12 130.625C37.8041 139.227 18.0068 148.791 6.18655 142.313C18.2946 141.025 38.6525 135.663 48.8948 114.824Z" fill="#0596DE"/>
    <path d="M12.0061 128.456C15.2103 126.835 20.7598 124.656 21.3976 125.717C22.049 126.801 17.5953 131.293 12.2524 133.697C8.60476 135.337 3.8717 136.306 3.39821 135.295C2.86242 134.15 7.82748 130.57 12.0061 128.456Z" fill="#96D2CB"/>
    <path d="M152.808 108.601C154.418 113.988 160.738 112.669 169.047 108.156C178.97 102.766 192.4 85.3589 188.492 72.459L188.492 72.4555C188.135 71.2801 187.637 70.1456 186.978 69.0574C179.079 56.028 153.667 95.5006 152.712 101.756C152.261 104.72 152.319 106.968 152.808 108.601Z" fill="#96D2CB"/>
    <path d="M152.81 108.6C154.42 113.988 160.739 112.668 169.049 108.156C178.972 102.765 192.402 85.3582 188.494 72.4583C184.743 84.0426 175.309 102.863 152.81 108.6Z" fill="#0596DE"/>
    <path d="M173.734 75.3065C171.489 78.1088 168.214 83.0913 169.122 83.9338C170.048 84.7941 175.361 81.3597 178.812 76.6253C181.168 73.3931 183.089 68.9606 182.197 68.2891C181.187 67.5293 176.662 71.6521 173.734 75.3065Z" fill="#96D2CB"/>
    <mask id="mask0_2392_10853" style="mask-type:alpha" maskUnits="userSpaceOnUse" x="92" y="14" width="72" height="73">
        <path d="M109.09 71.6077C109.09 71.6077 128.923 74.6149 150.501 66.544C150.501 66.544 137.1 89.0764 109.09 71.6077Z" fill="#F6F6F6"/>
        <path d="M156.436 27.406C154.647 31.5291 152.398 35.2011 149.813 38.4754C138.475 52.8396 120.707 59.4993 107.44 62.5749C102.634 63.6938 98.4177 64.3363 95.3091 64.7029C94.1561 61.8341 93.353 58.7718 92.9599 55.5566C90.527 35.6605 104.682 17.5583 124.578 15.1255C137.037 13.602 148.79 18.5853 156.436 27.406Z" fill="#E1EEFE"/>
        <path d="M163.269 46.69C165.644 66.1138 151.822 83.7868 132.398 86.1619C116.113 88.1532 101.06 78.7566 95.2229 64.2203C94.0974 61.4196 93.3133 58.4298 92.9295 55.2909C90.5544 35.8669 104.373 18.1945 123.797 15.8194C135.96 14.3321 147.435 19.197 154.9 27.8083C159.357 32.949 162.381 39.4262 163.269 46.69Z" fill="#FFFEFF"/>
    </mask>
    <g mask="url(#mask0_2392_10853)">
        <path d="M139.314 48.3486C139.314 57.1579 132.172 64.2993 123.363 64.2993C116.553 64.2993 110.742 60.0402 108.452 54.0376C107.778 52.2711 107.406 50.3535 107.406 48.3486C107.406 39.5394 114.548 32.3979 123.363 32.3979C129.848 32.3979 135.426 36.2681 137.913 41.8232C138.814 43.8164 139.314 46.0243 139.314 48.3486Z" fill="#393760"/>
        <path d="M123.363 32.3981C129.848 32.3981 135.426 36.2685 137.913 41.8236C138.814 43.8167 139.313 46.0248 139.313 48.3492C139.313 57.1584 132.172 64.3 123.363 64.3C116.552 64.3 110.741 60.0404 108.452 54.0378C107.778 52.2713 107.406 50.354 107.406 48.3492C107.406 39.54 114.548 32.3981 123.363 32.3981ZM123.363 29.6721C113.061 29.6721 104.68 38.0506 104.68 48.3492C104.68 50.6383 105.092 52.8791 105.905 55.0096C108.646 62.1968 115.662 67.0262 123.363 67.0262C133.661 67.0262 142.04 58.6477 142.04 48.3492C142.04 45.6857 141.487 43.1125 140.397 40.701C137.399 34.0048 130.711 29.6721 123.363 29.6721Z" fill="#46AED2"/>
        <path d="M137.899 41.791C131.945 56.1871 117.174 55.758 108.487 54.0844C107.807 52.32 107.429 50.4037 107.422 48.399C107.393 39.5899 114.51 32.4245 123.325 32.3951C129.81 32.3734 135.394 36.2442 137.899 41.791Z" fill="#2F4572"/>
        <path d="M122.665 43.0541C122.665 45.9786 120.294 48.3494 117.369 48.3494C114.445 48.3494 112.074 45.9786 112.074 43.0541C112.074 40.1297 114.445 37.7588 117.369 37.7588C120.294 37.7588 122.665 40.1297 122.665 43.0541Z" fill="#2BA596"/>
        <path d="M135.871 51.4454C136.738 52.0281 135.558 57.584 131.61 59.7097C128.102 61.5989 123.454 60.2157 123.346 59.1932C123.266 58.4418 125.675 58.2362 129.704 55.7964C133.945 53.2285 135.268 51.0398 135.871 51.4454Z" fill="#2BA596"/>
        <path d="M123.372 32.95C132.369 32.9452 138.897 39.9874 138.828 48.3038C138.825 50.9948 136.944 41.5141 123.269 41.706C109.491 41.8994 107.961 51.2894 107.915 48.2524C107.503 40.1932 114.835 32.9542 123.372 32.95Z" fill="#0E0D39"/>
    </g>
    <g opacity="0.2">
        <path d="M109.086 71.6086C109.086 71.6086 128.919 74.6159 150.497 66.545C150.497 66.545 137.096 89.0774 109.086 71.6086Z" fill="#F6F6F6"/>
        <path d="M156.432 27.407C154.643 31.5301 152.394 35.2021 149.809 38.4763C138.471 52.8406 120.703 59.5003 107.436 62.5759C102.63 63.6948 98.4138 64.3373 95.3052 64.7038C94.1522 61.8351 93.3491 58.7728 92.956 55.5576C90.5231 35.6615 104.678 17.5593 124.574 15.1265C137.033 13.603 148.786 18.5862 156.432 27.407Z" fill="#E1EEFE"/>
        <path d="M163.265 46.691C165.64 66.1148 151.818 83.7878 132.394 86.1629C116.109 88.1542 101.056 78.7576 95.219 64.2212C94.0935 61.4206 93.3094 58.4308 92.9256 55.2919C90.5505 35.8679 104.369 18.1954 123.793 15.8204C135.956 14.3331 147.431 19.198 154.896 27.8093C159.353 32.95 162.377 39.4272 163.265 46.691Z" fill="#FFFEFF"/>
    </g>
    <path d="M211.69 94.4417C210.391 97.223 207.084 98.425 204.302 97.1263L156.125 74.6315C153.344 73.3328 152.142 70.0256 153.441 67.2444C154.739 64.4631 158.047 63.2611 160.828 64.5597L209.005 87.0546C211.786 88.3532 212.988 91.6604 211.69 94.4417Z" fill="#0596DE"/>
    <path d="M170.107 73.569C169.894 73.5875 169.673 73.5504 169.467 73.4502L155.338 66.5823C154.73 66.2865 154.476 65.5536 154.772 64.945C155.068 64.3368 155.801 64.083 156.409 64.379L170.538 71.2468C171.146 71.5425 171.4 72.2754 171.104 72.884C170.909 73.286 170.522 73.5329 170.107 73.569Z" fill="#F48B4D"/>
    <path d="M200.897 87.6779C200.704 87.6946 200.505 87.6661 200.315 87.5859L186.901 81.9238C186.278 81.6608 185.986 80.9423 186.249 80.319C186.512 79.6957 187.231 79.403 187.854 79.667L201.268 85.3289C201.891 85.5918 202.183 86.3105 201.92 86.9337C201.737 87.3668 201.334 87.6398 200.897 87.6779Z" fill="#F48B4D"/>
    <path d="M157.895 25.5804C150.351 16.2386 138.448 10.6943 125.586 11.8131C105.047 13.5997 89.8469 31.6998 91.6335 52.2393C91.9222 55.5586 92.6377 58.7352 93.7199 61.7255C99.3311 77.2461 114.836 87.694 132.057 86.1961C152.596 84.4094 167.8 66.3091 166.013 45.7695C165.345 38.0885 162.399 31.1572 157.895 25.5804ZM130.995 73.9929C120.365 74.9176 110.684 69.0359 106.267 59.9738C104.958 57.2877 104.111 54.3263 103.837 51.1779C102.638 37.3989 112.869 25.2146 126.648 24.0161C136.756 23.1369 146.007 28.4096 150.689 36.7216C152.392 39.7386 153.491 43.1596 153.81 46.831C155.009 60.6099 144.774 72.7943 130.995 73.9929Z" fill="#FFAB00"/>
    <path d="M131.437 79.5664C128.783 79.7972 126.284 79.7101 124.21 79.4201C123.444 79.3131 122.91 78.6055 123.017 77.8398C123.124 77.0738 123.831 76.5394 124.597 76.6473C130.252 77.4377 138.406 76.437 143.876 72.4181C144.499 71.9603 145.376 72.0943 145.833 72.7173C146.291 73.3406 146.157 74.2166 145.534 74.6743C141.36 77.7408 136.154 79.1561 131.437 79.5664Z" fill="#FFF5CC"/>
    <path d="M150.415 72.0522C150.045 72.0844 149.662 71.9699 149.362 71.7034C148.785 71.1894 148.733 70.3047 149.247 69.727C156.438 61.645 159.048 50.9061 156.23 40.9999C156.018 40.2562 156.449 39.482 157.193 39.2703C157.937 39.0596 158.711 39.4899 158.923 40.2336C162.005 51.0657 159.17 62.7869 151.339 71.588C151.092 71.8662 150.758 72.0223 150.415 72.0522Z" fill="#FFF5CC"/>
    <path d="M97.3245 58.1828C96.6166 58.2444 95.9633 57.76 95.8291 57.0466C95.8167 56.9808 95.7979 56.8893 95.774 56.7737C93.3086 44.8061 96.1272 33.4642 103.507 25.6569C113.368 15.2251 126.206 14.6073 129.905 14.665C130.678 14.6773 131.295 15.314 131.283 16.0871C131.27 16.86 130.632 17.4768 129.86 17.4645C126.45 17.4099 114.617 17.9792 105.542 27.5801C96.3094 37.3471 97.1772 49.7092 98.5163 56.2088C98.5442 56.3444 98.5662 56.4516 98.5806 56.529C98.7237 57.2889 98.2234 58.0208 97.4636 58.1637C97.4172 58.1723 97.3707 58.1788 97.3245 58.1828Z" fill="#FFF5CC"/>
    <path d="M173.433 71.0895C173.433 71.0895 174.798 85.4213 189.119 76.4994C189.119 76.4994 186.835 63.9535 173.433 71.0895Z" fill="#96D2CB"/>
    <path d="M181.243 73.711C182.3 74.9564 183.356 77.1568 182.634 77.9486C181.693 78.9797 177.546 77.8275 176.265 75.0636C175.746 73.9424 175.527 72.1875 176.327 71.5662C177.371 70.7552 179.872 72.0931 181.243 73.711Z" fill="#2BA596"/>
</svg>
