<svg width="436" height="229" viewBox="0 0 436 229" fill="none" xmlns="http://www.w3.org/2000/svg">
    <path d="M85.1998 87.7005C85.2531 88.0664 85.1964 88.4399 85.0368 88.7735C84.8772 89.1071 84.622 89.3856 84.3036 89.5737C83.9852 89.7618 83.618 89.8509 83.2489 89.8297C82.8797 89.8085 82.5251 89.6779 82.2304 89.4546C81.9356 89.2313 81.714 88.9254 81.5936 88.5757C81.4733 88.2261 81.4597 87.8485 81.5546 87.4911C81.6494 87.1337 81.8485 86.8126 82.1264 86.5686C82.4043 86.3247 82.7485 86.169 83.1152 86.1212C83.5997 86.0622 84.0882 86.194 84.4773 86.4888C84.8663 86.7835 85.1255 87.2181 85.1998 87.7005Z" fill="#FF7900"/>
    <path d="M32.817 172.429C32.8703 172.795 32.8135 173.168 32.6539 173.502C32.4943 173.835 32.2391 174.114 31.9208 174.302C31.6024 174.49 31.2352 174.579 30.866 174.558C30.4969 174.537 30.1423 174.406 29.8476 174.183C29.5528 173.96 29.3312 173.654 29.2108 173.304C29.0905 172.954 29.0769 172.577 29.1718 172.219C29.2666 171.862 29.4657 171.541 29.7436 171.297C30.0215 171.053 30.3657 170.897 30.7323 170.85C31.2176 170.786 31.7082 170.917 32.0982 171.212C32.4883 171.508 32.7465 171.945 32.817 172.429Z" fill="#FFCF80"/>
    <path d="M82.1185 108.152L76.9069 106.194C76.9069 106.194 78.4862 109.905 74.8854 114.375C71.2847 118.844 65.994 117.533 64.3516 122.903L69.9107 125.382C70.2629 123.902 70.9213 122.512 71.8434 121.301C72.7655 120.091 73.9309 119.087 75.2645 118.354C78.581 116.759 82.1501 114.596 82.1185 108.152Z" fill="#FFCF80"/>
    <path d="M46.0185 99.4662L40.1593 96.3076C40.1593 96.3076 35.4215 103.462 41.1228 107.063C41.1228 107.047 40.0014 102.404 46.0185 99.4662Z" fill="#525A66"/>
    <path d="M41.2751 115.765L47.4343 113.475C47.4343 113.475 47.7976 108.184 41.1172 107.047C41.1172 107.047 45.3022 111.832 41.2751 115.765Z" fill="#525A66"/>
    <path d="M97.1558 1.36105C97.0497 0.629894 97.1633 -0.116307 97.4821 -0.782776C97.801 -1.44925 98.3107 -2.00591 98.9466 -2.38208C99.5825 -2.75826 100.316 -2.93696 101.053 -2.89549C101.791 -2.85402 102.5 -2.59427 103.09 -2.1492C103.679 -1.70413 104.123 -1.09384 104.366 -0.395836C104.608 0.302169 104.637 1.05639 104.45 1.77105C104.262 2.48571 103.867 3.12856 103.313 3.61794C102.76 4.10732 102.073 4.42117 101.341 4.51961C100.368 4.65043 99.3827 4.39207 98.5991 3.80068C97.8155 3.20928 97.2968 2.3326 97.1558 1.36105Z" fill="#FFCF80"/>
    <path d="M43.8669 34.542L43.1562 40.0537C43.1562 40.0537 46.4096 37.6532 51.5897 40.2116C56.7697 42.77 56.6118 48.187 62.234 48.5976L63.4185 42.6279C61.896 42.6093 60.3943 42.2722 59.0099 41.6385C57.6255 41.0048 56.3889 40.0884 55.3799 38.9482C53.0425 36.0897 50.1367 33.0732 43.8669 34.542Z" fill="#525A66"/>
    <path d="M357.697 41.7592C357.803 42.4904 357.689 43.2366 357.371 43.903C357.052 44.5695 356.542 45.1262 355.906 45.5024C355.27 45.8785 354.537 46.0572 353.799 46.0158C353.062 45.9743 352.353 45.7145 351.763 45.2695C351.173 44.8244 350.729 44.2141 350.487 43.5161C350.245 42.8181 350.216 42.0639 350.403 41.3492C350.591 40.6346 350.986 39.9917 351.54 39.5023C352.093 39.0129 352.78 38.6991 353.512 38.6007C354.485 38.4656 355.473 38.7223 356.258 39.3144C357.042 39.9066 357.56 40.7858 357.697 41.7592Z" fill="#525A66"/>
    <path d="M283.528 88.4113C283.581 88.7772 283.525 89.1507 283.365 89.4843C283.205 89.8179 282.95 90.0964 282.632 90.2845C282.313 90.4726 281.946 90.5617 281.577 90.5405C281.208 90.5193 280.853 90.3887 280.559 90.1654C280.264 89.9421 280.042 89.6362 279.922 89.2865C279.801 88.9369 279.788 88.5593 279.883 88.2019C279.978 87.8445 280.177 87.5234 280.454 87.2794C280.732 87.0355 281.077 86.8797 281.443 86.832C281.929 86.7688 282.419 86.8991 282.809 87.1946C283.199 87.49 283.457 87.9271 283.528 88.4113Z" fill="#525A66"/>
    <path d="M326.958 186.769C327.011 187.135 326.954 187.508 326.795 187.842C326.635 188.175 326.38 188.454 326.061 188.642C325.743 188.83 325.376 188.919 325.007 188.898C324.638 188.877 324.283 188.746 323.988 188.523C323.693 188.3 323.472 187.994 323.351 187.644C323.231 187.294 323.217 186.917 323.312 186.559C323.407 186.202 323.606 185.881 323.884 185.637C324.162 185.393 324.506 185.237 324.873 185.19C325.358 185.131 325.846 185.262 326.235 185.557C326.624 185.852 326.883 186.286 326.958 186.769Z" fill="#FF7900"/>
    <path d="M201.458 95.9129C201.511 96.2781 201.454 96.6508 201.295 96.9837C201.135 97.3166 200.881 97.5947 200.563 97.7828C200.246 97.9709 199.88 98.0605 199.511 98.0402C199.143 98.02 198.789 97.8908 198.494 97.669C198.199 97.4472 197.976 97.1429 197.854 96.7945C197.733 96.4462 197.717 96.0695 197.81 95.7123C197.902 95.355 198.099 95.0333 198.374 94.7879C198.65 94.5424 198.992 94.3843 199.357 94.3336C199.845 94.2702 200.337 94.3999 200.73 94.6951C201.122 94.9903 201.384 95.4274 201.458 95.9129Z" fill="#FF7900"/>
    <path d="M352.708 156.763L357.982 155.01C357.982 155.01 354.382 153.146 354.382 147.382C354.382 141.617 359.325 139.343 357.193 134.116L351.318 135.695C351.975 137.067 352.339 138.56 352.385 140.081C352.431 141.601 352.159 143.114 351.586 144.523C350.039 147.855 348.617 151.788 352.708 156.763Z" fill="#525A66"/>
    <path d="M409.637 101.835L410.395 96.3232C410.395 96.3232 407.142 98.7237 401.962 96.1653C396.782 93.6068 396.94 88.1741 391.317 87.7793L390.133 93.7332C391.655 93.7518 393.157 94.0889 394.541 94.7226C395.926 95.3563 397.162 96.2727 398.171 97.4129C400.461 100.287 403.367 103.225 409.637 101.835Z" fill="#FF7900"/>
    <path d="M395.703 17.6595L404.594 15.1484C404.594 15.1484 408.811 26.2034 400.015 29.362C400.015 29.362 403.015 23.4555 395.703 17.6595Z" fill="#FFCF80"/>
    <path d="M397.175 41.0799L389.547 36.1209C389.547 36.1209 390.668 28.872 400.018 29.3616C400.018 29.3616 392.911 34.5575 397.175 41.0799Z" fill="#FFCF80"/>
    <path d="M321.83 84.2733L316.034 81.1147C316.034 81.1147 311.297 88.2689 316.998 91.8697C316.935 91.7907 315.766 87.1476 321.83 84.2733Z" fill="#FFCF80"/>
    <path d="M317.095 100.509L323.255 98.2187C323.255 98.2187 323.618 92.9281 316.938 91.791C316.938 91.791 321.123 96.5762 317.095 100.509Z" fill="#FFCF80"/>
    <path d="M290.37 171.134L281.494 173.645C281.494 173.645 277.262 162.59 286.059 159.431C286.027 159.384 283.074 165.291 290.37 171.134Z" fill="#FF7900"/>
    <path d="M288.913 147.666L296.541 152.641C296.541 152.641 295.42 159.874 286.055 159.384C286.023 159.384 293.162 154.188 288.913 147.666Z" fill="#FF7900"/>
    <path d="M397.117 225.098L402.976 228.257C402.976 228.257 407.714 221.102 402.013 217.486C402.013 217.517 403.197 222.161 397.117 225.098Z" fill="#FF7900"/>
    <path d="M401.85 208.815L395.691 211.105C395.691 211.105 395.343 216.38 402.008 217.517C402.008 217.517 397.823 212.732 401.85 208.815Z" fill="#FF7900"/>
    <path d="M108.278 47.9499C108.331 48.3158 108.275 48.6893 108.115 49.0229C107.955 49.3564 107.7 49.635 107.382 49.823C107.063 50.0111 106.696 50.1002 106.327 50.079C105.958 50.0578 105.603 49.9273 105.309 49.704C105.014 49.4807 104.792 49.1747 104.672 48.8251C104.551 48.4754 104.538 48.0979 104.633 47.7405C104.728 47.3831 104.927 47.0619 105.205 46.818C105.482 46.5741 105.827 46.4183 106.193 46.3706C106.679 46.3074 107.169 46.4376 107.559 46.7331C107.949 47.0286 108.207 47.4656 108.278 47.9499Z" fill="#FF7900"/>
    <path d="M123.127 112.101C123.233 112.832 123.119 113.578 122.8 114.244C122.481 114.911 121.972 115.467 121.336 115.844C120.7 116.22 119.967 116.399 119.229 116.357C118.491 116.316 117.783 116.056 117.193 115.611C116.603 115.166 116.159 114.555 115.917 113.857C115.675 113.159 115.645 112.405 115.833 111.691C116.02 110.976 116.416 110.333 116.969 109.844C117.523 109.354 118.209 109.04 118.941 108.942C119.914 108.811 120.9 109.069 121.683 109.661C122.467 110.252 122.986 111.129 123.127 112.101Z" fill="#525A66"/>
    <path d="M141.534 35.1738L146.809 33.4208C146.809 33.4208 143.208 31.5572 143.208 25.7928C143.208 20.0284 148.151 17.7543 146.019 12.5269L140.144 14.1061C140.801 15.4777 141.165 16.9715 141.211 18.4918C141.257 20.0122 140.985 21.5253 140.412 22.9343C138.849 26.2666 137.443 30.199 141.534 35.1738Z" fill="#525A66"/>
    <path d="M143.493 126.914L138.282 124.956C138.282 124.956 139.861 128.667 136.26 133.136C132.66 137.606 127.369 136.295 125.727 141.664L131.286 144.144C131.639 142.662 132.299 141.27 133.224 140.06C134.149 138.849 135.318 137.846 136.655 137.116C139.956 135.537 143.525 133.373 143.493 126.914Z" fill="#FFCF80"/>
    <path d="M118.375 2.65597C118.268 1.92482 118.382 1.17861 118.701 0.512146C119.02 -0.154324 119.529 -0.710991 120.165 -1.08716C120.801 -1.46333 121.535 -1.64204 122.272 -1.60057C123.01 -1.5591 123.719 -1.29935 124.308 -0.85428C124.898 -0.409213 125.342 0.201081 125.584 0.899086C125.826 1.59709 125.856 2.35132 125.668 3.06597C125.481 3.78063 125.085 4.42345 124.532 4.91284C123.978 5.40222 123.292 5.71609 122.56 5.81454C121.587 5.94535 120.601 5.687 119.818 5.0956C119.034 4.5042 118.516 3.62752 118.375 2.65597Z" fill="#FFCF80"/>
</svg>
