<svg width="256" height="256" viewBox="0 0 256 256" fill="none" xmlns="http://www.w3.org/2000/svg">
    <g clip-path="url(#clip0_2392_11659)">
        <path d="M256 0H0V256H256V0Z" fill="white"/>
        <path d="M23.7241 15.9999H16V23.724H23.7241V15.9999Z" fill="black"/>
        <path d="M31.4483 15.9999H23.7241V23.724H31.4483V15.9999Z" fill="black"/>
        <path d="M39.1724 15.9999H31.4483V23.724H39.1724V15.9999Z" fill="black"/>
        <path d="M46.8966 15.9999H39.1724V23.724H46.8966V15.9999Z" fill="black"/>
        <path d="M54.6207 15.9999H46.8966V23.724H54.6207V15.9999Z" fill="black"/>
        <path d="M62.3448 15.9999H54.6207V23.724H62.3448V15.9999Z" fill="black"/>
        <path d="M70.069 15.9999H62.3448V23.724H70.069V15.9999Z" fill="black"/>
        <path d="M85.5172 15.9999H77.7931V23.724H85.5172V15.9999Z" fill="black"/>
        <path d="M100.966 15.9999H93.2414V23.724H100.966V15.9999Z" fill="black"/>
        <path d="M139.586 15.9999H131.862V23.724H139.586V15.9999Z" fill="black"/>
        <path d="M147.31 15.9999H139.586V23.724H147.31V15.9999Z" fill="black"/>
        <path d="M162.759 15.9999H155.034V23.724H162.759V15.9999Z" fill="black"/>
        <path d="M178.207 15.9999H170.483V23.724H178.207V15.9999Z" fill="black"/>
        <path d="M193.655 15.9999H185.931V23.724H193.655V15.9999Z" fill="black"/>
        <path d="M201.379 15.9999H193.655V23.724H201.379V15.9999Z" fill="black"/>
        <path d="M209.103 15.9999H201.379V23.724H209.103V15.9999Z" fill="black"/>
        <path d="M216.828 15.9999H209.103V23.724H216.828V15.9999Z" fill="black"/>
        <path d="M224.552 15.9999H216.828V23.724H224.552V15.9999Z" fill="black"/>
        <path d="M232.276 15.9999H224.552V23.724H232.276V15.9999Z" fill="black"/>
        <path d="M240 15.9999H232.276V23.724H240V15.9999Z" fill="black"/>
        <path d="M23.7241 23.724H16V31.4482H23.7241V23.724Z" fill="black"/>
        <path d="M70.069 23.724H62.3448V31.4482H70.069V23.724Z" fill="black"/>
        <path d="M93.2414 23.724H85.5172V31.4482H93.2414V23.724Z" fill="black"/>
        <path d="M100.966 23.724H93.2414V31.4482H100.966V23.724Z" fill="black"/>
        <path d="M108.69 23.724H100.966V31.4482H108.69V23.724Z" fill="black"/>
        <path d="M116.414 23.724H108.69V31.4482H116.414V23.724Z" fill="black"/>
        <path d="M131.862 23.724H124.138V31.4482H131.862V23.724Z" fill="black"/>
        <path d="M139.586 23.724H131.862V31.4482H139.586V23.724Z" fill="black"/>
        <path d="M193.655 23.724H185.931V31.4482H193.655V23.724Z" fill="black"/>
        <path d="M240 23.724H232.276V31.4482H240V23.724Z" fill="black"/>
        <path d="M23.7241 31.4482H16V39.1723H23.7241V31.4482Z" fill="black"/>
        <path d="M39.1724 31.4482H31.4483V39.1723H39.1724V31.4482Z" fill="black"/>
        <path d="M46.8966 31.4482H39.1724V39.1723H46.8966V31.4482Z" fill="black"/>
        <path d="M54.6207 31.4482H46.8966V39.1723H54.6207V31.4482Z" fill="black"/>
        <path d="M70.069 31.4482H62.3448V39.1723H70.069V31.4482Z" fill="black"/>
        <path d="M100.966 31.4482H93.2414V39.1723H100.966V31.4482Z" fill="black"/>
        <path d="M108.69 31.4482H100.966V39.1723H108.69V31.4482Z" fill="black"/>
        <path d="M116.414 31.4482H108.69V39.1723H116.414V31.4482Z" fill="black"/>
        <path d="M124.138 31.4482H116.414V39.1723H124.138V31.4482Z" fill="black"/>
        <path d="M139.586 31.4482H131.862V39.1723H139.586V31.4482Z" fill="black"/>
        <path d="M147.31 31.4482H139.586V39.1723H147.31V31.4482Z" fill="black"/>
        <path d="M170.483 31.4482H162.759V39.1723H170.483V31.4482Z" fill="black"/>
        <path d="M178.207 31.4482H170.483V39.1723H178.207V31.4482Z" fill="black"/>
        <path d="M193.655 31.4482H185.931V39.1723H193.655V31.4482Z" fill="black"/>
        <path d="M209.103 31.4482H201.379V39.1723H209.103V31.4482Z" fill="black"/>
        <path d="M216.828 31.4482H209.103V39.1723H216.828V31.4482Z" fill="black"/>
        <path d="M224.552 31.4482H216.828V39.1723H224.552V31.4482Z" fill="black"/>
        <path d="M240 31.4482H232.276V39.1723H240V31.4482Z" fill="black"/>
        <path d="M23.7241 39.1723H16V46.8965H23.7241V39.1723Z" fill="black"/>
        <path d="M39.1724 39.1723H31.4483V46.8965H39.1724V39.1723Z" fill="black"/>
        <path d="M46.8966 39.1723H39.1724V46.8965H46.8966V39.1723Z" fill="black"/>
        <path d="M54.6207 39.1723H46.8966V46.8965H54.6207V39.1723Z" fill="black"/>
        <path d="M70.069 39.1723H62.3448V46.8965H70.069V39.1723Z" fill="black"/>
        <path d="M85.5172 39.1723H77.7931V46.8965H85.5172V39.1723Z" fill="black"/>
        <path d="M93.2414 39.1723H85.5172V46.8965H93.2414V39.1723Z" fill="black"/>
        <path d="M100.966 39.1723H93.2414V46.8965H100.966V39.1723Z" fill="black"/>
        <path d="M108.69 39.1723H100.966V46.8965H108.69V39.1723Z" fill="black"/>
        <path d="M124.138 39.1723H116.414V46.8965H124.138V39.1723Z" fill="black"/>
        <path d="M147.31 39.1723H139.586V46.8965H147.31V39.1723Z" fill="black"/>
        <path d="M170.483 39.1723H162.759V46.8965H170.483V39.1723Z" fill="black"/>
        <path d="M193.655 39.1723H185.931V46.8965H193.655V39.1723Z" fill="black"/>
        <path d="M209.103 39.1723H201.379V46.8965H209.103V39.1723Z" fill="black"/>
        <path d="M216.828 39.1723H209.103V46.8965H216.828V39.1723Z" fill="black"/>
        <path d="M224.552 39.1723H216.828V46.8965H224.552V39.1723Z" fill="black"/>
        <path d="M240 39.1723H232.276V46.8965H240V39.1723Z" fill="black"/>
        <path d="M23.7241 46.8965H16V54.6206H23.7241V46.8965Z" fill="black"/>
        <path d="M39.1724 46.8965H31.4483V54.6206H39.1724V46.8965Z" fill="black"/>
        <path d="M46.8966 46.8965H39.1724V54.6206H46.8966V46.8965Z" fill="black"/>
        <path d="M54.6207 46.8965H46.8966V54.6206H54.6207V46.8965Z" fill="black"/>
        <path d="M70.069 46.8965H62.3448V54.6206H70.069V46.8965Z" fill="black"/>
        <path d="M124.138 46.8965H116.414V54.6206H124.138V46.8965Z" fill="black"/>
        <path d="M131.862 46.8965H124.138V54.6206H131.862V46.8965Z" fill="black"/>
        <path d="M139.586 46.8965H131.862V54.6206H139.586V46.8965Z" fill="black"/>
        <path d="M155.034 46.8965H147.31V54.6206H155.034V46.8965Z" fill="black"/>
        <path d="M193.655 46.8965H185.931V54.6206H193.655V46.8965Z" fill="black"/>
        <path d="M209.103 46.8965H201.379V54.6206H209.103V46.8965Z" fill="black"/>
        <path d="M216.828 46.8965H209.103V54.6206H216.828V46.8965Z" fill="black"/>
        <path d="M224.552 46.8965H216.828V54.6206H224.552V46.8965Z" fill="black"/>
        <path d="M240 46.8965H232.276V54.6206H240V46.8965Z" fill="black"/>
        <path d="M23.7241 54.6206H16V62.3447H23.7241V54.6206Z" fill="black"/>
        <path d="M70.069 54.6206H62.3448V62.3447H70.069V54.6206Z" fill="black"/>
        <path d="M85.5172 54.6206H77.7931V62.3447H85.5172V54.6206Z" fill="black"/>
        <path d="M93.2414 54.6206H85.5172V62.3447H93.2414V54.6206Z" fill="black"/>
        <path d="M100.966 54.6206H93.2414V62.3447H100.966V54.6206Z" fill="black"/>
        <path d="M108.69 54.6206H100.966V62.3447H108.69V54.6206Z" fill="black"/>
        <path d="M116.414 54.6206H108.69V62.3447H116.414V54.6206Z" fill="black"/>
        <path d="M124.138 54.6206H116.414V62.3447H124.138V54.6206Z" fill="black"/>
        <path d="M139.586 54.6206H131.862V62.3447H139.586V54.6206Z" fill="black"/>
        <path d="M147.31 54.6206H139.586V62.3447H147.31V54.6206Z" fill="black"/>
        <path d="M193.655 54.6206H185.931V62.3447H193.655V54.6206Z" fill="black"/>
        <path d="M240 54.6206H232.276V62.3447H240V54.6206Z" fill="black"/>
        <path d="M23.7241 62.3447H16V70.0689H23.7241V62.3447Z" fill="black"/>
        <path d="M31.4483 62.3447H23.7241V70.0689H31.4483V62.3447Z" fill="black"/>
        <path d="M39.1724 62.3447H31.4483V70.0689H39.1724V62.3447Z" fill="black"/>
        <path d="M46.8966 62.3447H39.1724V70.0689H46.8966V62.3447Z" fill="black"/>
        <path d="M54.6207 62.3447H46.8966V70.0689H54.6207V62.3447Z" fill="black"/>
        <path d="M62.3448 62.3447H54.6207V70.0689H62.3448V62.3447Z" fill="black"/>
        <path d="M70.069 62.3447H62.3448V70.0689H70.069V62.3447Z" fill="black"/>
        <path d="M85.5172 62.3447H77.7931V70.0689H85.5172V62.3447Z" fill="black"/>
        <path d="M100.966 62.3447H93.2414V70.0689H100.966V62.3447Z" fill="black"/>
        <path d="M116.414 62.3447H108.69V70.0689H116.414V62.3447Z" fill="black"/>
        <path d="M131.862 62.3447H124.138V70.0689H131.862V62.3447Z" fill="black"/>
        <path d="M147.31 62.3447H139.586V70.0689H147.31V62.3447Z" fill="black"/>
        <path d="M162.759 62.3447H155.034V70.0689H162.759V62.3447Z" fill="black"/>
        <path d="M178.207 62.3447H170.483V70.0689H178.207V62.3447Z" fill="black"/>
        <path d="M193.655 62.3447H185.931V70.0689H193.655V62.3447Z" fill="black"/>
        <path d="M201.379 62.3447H193.655V70.0689H201.379V62.3447Z" fill="black"/>
        <path d="M209.103 62.3447H201.379V70.0689H209.103V62.3447Z" fill="black"/>
        <path d="M216.828 62.3447H209.103V70.0689H216.828V62.3447Z" fill="black"/>
        <path d="M224.552 62.3447H216.828V70.0689H224.552V62.3447Z" fill="black"/>
        <path d="M232.276 62.3447H224.552V70.0689H232.276V62.3447Z" fill="black"/>
        <path d="M240 62.3447H232.276V70.0689H240V62.3447Z" fill="black"/>
        <path d="M93.2414 70.0689H85.5172V77.793H93.2414V70.0689Z" fill="black"/>
        <path d="M131.862 70.0689H124.138V77.793H131.862V70.0689Z" fill="black"/>
        <path d="M155.034 70.0689H147.31V77.793H155.034V70.0689Z" fill="black"/>
        <path d="M162.759 70.0689H155.034V77.793H162.759V70.0689Z" fill="black"/>
        <path d="M170.483 70.0689H162.759V77.793H170.483V70.0689Z" fill="black"/>
        <path d="M178.207 70.0689H170.483V77.793H178.207V70.0689Z" fill="black"/>
        <path d="M62.3448 77.793H54.6207V85.5172H62.3448V77.793Z" fill="black"/>
        <path d="M70.069 77.793H62.3448V85.5172H70.069V77.793Z" fill="black"/>
        <path d="M85.5172 77.793H77.7931V85.5172H85.5172V77.793Z" fill="black"/>
        <path d="M93.2414 77.793H85.5172V85.5172H93.2414V77.793Z" fill="black"/>
        <path d="M108.69 77.793H100.966V85.5172H108.69V77.793Z" fill="black"/>
        <path d="M116.414 77.793H108.69V85.5172H116.414V77.793Z" fill="black"/>
        <path d="M131.862 77.793H124.138V85.5172H131.862V77.793Z" fill="black"/>
        <path d="M139.586 77.793H131.862V85.5172H139.586V77.793Z" fill="black"/>
        <path d="M147.31 77.793H139.586V85.5172H147.31V77.793Z" fill="black"/>
        <path d="M155.034 77.793H147.31V85.5172H155.034V77.793Z" fill="black"/>
        <path d="M185.931 77.793H178.207V85.5172H185.931V77.793Z" fill="black"/>
        <path d="M201.379 77.793H193.655V85.5172H201.379V77.793Z" fill="black"/>
        <path d="M216.828 77.793H209.103V85.5172H216.828V77.793Z" fill="black"/>
        <path d="M240 77.793H232.276V85.5172H240V77.793Z" fill="black"/>
        <path d="M23.7241 85.5172H16V93.2413H23.7241V85.5172Z" fill="black"/>
        <path d="M46.8966 85.5172H39.1724V93.2413H46.8966V85.5172Z" fill="black"/>
        <path d="M77.7931 85.5172H70.069V93.2413H77.7931V85.5172Z" fill="black"/>
        <path d="M85.5172 85.5172H77.7931V93.2413H85.5172V85.5172Z" fill="black"/>
        <path d="M93.2414 85.5172H85.5172V93.2413H93.2414V85.5172Z" fill="black"/>
        <path d="M139.586 85.5172H131.862V93.2413H139.586V85.5172Z" fill="black"/>
        <path d="M155.034 85.5172H147.31V93.2413H155.034V85.5172Z" fill="black"/>
        <path d="M170.483 85.5172H162.759V93.2413H170.483V85.5172Z" fill="black"/>
        <path d="M185.931 85.5172H178.207V93.2413H185.931V85.5172Z" fill="black"/>
        <path d="M23.7241 93.2413H16V100.965H23.7241V93.2413Z" fill="black"/>
        <path d="M46.8966 93.2413H39.1724V100.965H46.8966V93.2413Z" fill="black"/>
        <path d="M54.6207 93.2413H46.8966V100.965H54.6207V93.2413Z" fill="black"/>
        <path d="M70.069 93.2413H62.3448V100.965H70.069V93.2413Z" fill="black"/>
        <path d="M77.7931 93.2413H70.069V100.965H77.7931V93.2413Z" fill="black"/>
        <path d="M85.5172 93.2413H77.7931V100.965H85.5172V93.2413Z" fill="black"/>
        <path d="M100.966 93.2413H93.2414V100.965H100.966V93.2413Z" fill="black"/>
        <path d="M116.414 93.2413H108.69V100.965H116.414V93.2413Z" fill="black"/>
        <path d="M139.586 93.2413H131.862V100.965H139.586V93.2413Z" fill="black"/>
        <path d="M162.759 93.2413H155.034V100.965H162.759V93.2413Z" fill="black"/>
        <path d="M178.207 93.2413H170.483V100.965H178.207V93.2413Z" fill="black"/>
        <path d="M193.655 93.2413H185.931V100.965H193.655V93.2413Z" fill="black"/>
        <path d="M209.103 93.2413H201.379V100.965H209.103V93.2413Z" fill="black"/>
        <path d="M224.552 93.2413H216.828V100.965H224.552V93.2413Z" fill="black"/>
        <path d="M240 93.2413H232.276V100.965H240V93.2413Z" fill="black"/>
        <path d="M62.3448 100.965H54.6207V108.69H62.3448V100.965Z" fill="black"/>
        <path d="M100.966 100.965H93.2414V108.69H100.966V100.965Z" fill="black"/>
        <path d="M124.138 100.965H116.414V108.69H124.138V100.965Z" fill="black"/>
        <path d="M131.862 100.965H124.138V108.69H131.862V100.965Z" fill="black"/>
        <path d="M147.31 100.965H139.586V108.69H147.31V100.965Z" fill="black"/>
        <path d="M162.759 100.965H155.034V108.69H162.759V100.965Z" fill="black"/>
        <path d="M170.483 100.965H162.759V108.69H170.483V100.965Z" fill="black"/>
        <path d="M178.207 100.965H170.483V108.69H178.207V100.965Z" fill="black"/>
        <path d="M185.931 100.965H178.207V108.69H185.931V100.965Z" fill="black"/>
        <path d="M201.379 100.965H193.655V108.69H201.379V100.965Z" fill="black"/>
        <path d="M209.103 100.965H201.379V108.69H209.103V100.965Z" fill="black"/>
        <path d="M39.1724 108.69H31.4483V116.414H39.1724V108.69Z" fill="black"/>
        <path d="M70.069 108.69H62.3448V116.414H70.069V108.69Z" fill="black"/>
        <path d="M85.5172 108.69H77.7931V116.414H85.5172V108.69Z" fill="black"/>
        <path d="M93.2414 108.69H85.5172V116.414H93.2414V108.69Z" fill="black"/>
        <path d="M100.966 108.69H93.2414V116.414H100.966V108.69Z" fill="black"/>
        <path d="M108.69 108.69H100.966V116.414H108.69V108.69Z" fill="black"/>
        <path d="M116.414 108.69H108.69V116.414H116.414V108.69Z" fill="black"/>
        <path d="M131.862 108.69H124.138V116.414H131.862V108.69Z" fill="black"/>
        <path d="M139.586 108.69H131.862V116.414H139.586V108.69Z" fill="black"/>
        <path d="M162.759 108.69H155.034V116.414H162.759V108.69Z" fill="black"/>
        <path d="M170.483 108.69H162.759V116.414H170.483V108.69Z" fill="black"/>
        <path d="M193.655 108.69H185.931V116.414H193.655V108.69Z" fill="black"/>
        <path d="M209.103 108.69H201.379V116.414H209.103V108.69Z" fill="black"/>
        <path d="M224.552 108.69H216.828V116.414H224.552V108.69Z" fill="black"/>
        <path d="M240 108.69H232.276V116.414H240V108.69Z" fill="black"/>
        <path d="M23.7241 116.414H16V124.138H23.7241V116.414Z" fill="black"/>
        <path d="M31.4483 116.414H23.7241V124.138H31.4483V116.414Z" fill="black"/>
        <path d="M39.1724 116.414H31.4483V124.138H39.1724V116.414Z" fill="black"/>
        <path d="M46.8966 116.414H39.1724V124.138H46.8966V116.414Z" fill="black"/>
        <path d="M54.6207 116.414H46.8966V124.138H54.6207V116.414Z" fill="black"/>
        <path d="M62.3448 116.414H54.6207V124.138H62.3448V116.414Z" fill="black"/>
        <path d="M139.586 116.414H131.862V124.138H139.586V116.414Z" fill="black"/>
        <path d="M147.31 116.414H139.586V124.138H147.31V116.414Z" fill="black"/>
        <path d="M162.759 116.414H155.034V124.138H162.759V116.414Z" fill="black"/>
        <path d="M170.483 116.414H162.759V124.138H170.483V116.414Z" fill="black"/>
        <path d="M185.931 116.414H178.207V124.138H185.931V116.414Z" fill="black"/>
        <path d="M193.655 116.414H185.931V124.138H193.655V116.414Z" fill="black"/>
        <path d="M201.379 116.414H193.655V124.138H201.379V116.414Z" fill="black"/>
        <path d="M232.276 116.414H224.552V124.138H232.276V116.414Z" fill="black"/>
        <path d="M240 116.414H232.276V124.138H240V116.414Z" fill="black"/>
        <path d="M31.4483 124.138H23.7241V131.862H31.4483V124.138Z" fill="black"/>
        <path d="M46.8966 124.138H39.1724V131.862H46.8966V124.138Z" fill="black"/>
        <path d="M54.6207 124.138H46.8966V131.862H54.6207V124.138Z" fill="black"/>
        <path d="M62.3448 124.138H54.6207V131.862H62.3448V124.138Z" fill="black"/>
        <path d="M70.069 124.138H62.3448V131.862H70.069V124.138Z" fill="black"/>
        <path d="M77.7931 124.138H70.069V131.862H77.7931V124.138Z" fill="black"/>
        <path d="M93.2414 124.138H85.5172V131.862H93.2414V124.138Z" fill="black"/>
        <path d="M108.69 124.138H100.966V131.862H108.69V124.138Z" fill="black"/>
        <path d="M139.586 124.138H131.862V131.862H139.586V124.138Z" fill="black"/>
        <path d="M147.31 124.138H139.586V131.862H147.31V124.138Z" fill="black"/>
        <path d="M178.207 124.138H170.483V131.862H178.207V124.138Z" fill="black"/>
        <path d="M193.655 124.138H185.931V131.862H193.655V124.138Z" fill="black"/>
        <path d="M209.103 124.138H201.379V131.862H209.103V124.138Z" fill="black"/>
        <path d="M216.828 124.138H209.103V131.862H216.828V124.138Z" fill="black"/>
        <path d="M240 124.138H232.276V131.862H240V124.138Z" fill="black"/>
        <path d="M31.4483 131.862H23.7241V139.586H31.4483V131.862Z" fill="black"/>
        <path d="M46.8966 131.862H39.1724V139.586H46.8966V131.862Z" fill="black"/>
        <path d="M85.5172 131.862H77.7931V139.586H85.5172V131.862Z" fill="black"/>
        <path d="M93.2414 131.862H85.5172V139.586H93.2414V131.862Z" fill="black"/>
        <path d="M108.69 131.862H100.966V139.586H108.69V131.862Z" fill="black"/>
        <path d="M124.138 131.862H116.414V139.586H124.138V131.862Z" fill="black"/>
        <path d="M131.862 131.862H124.138V139.586H131.862V131.862Z" fill="black"/>
        <path d="M147.31 131.862H139.586V139.586H147.31V131.862Z" fill="black"/>
        <path d="M155.034 131.862H147.31V139.586H155.034V131.862Z" fill="black"/>
        <path d="M170.483 131.862H162.759V139.586H170.483V131.862Z" fill="black"/>
        <path d="M185.931 131.862H178.207V139.586H185.931V131.862Z" fill="black"/>
        <path d="M193.655 131.862H185.931V139.586H193.655V131.862Z" fill="black"/>
        <path d="M209.103 131.862H201.379V139.586H209.103V131.862Z" fill="black"/>
        <path d="M216.828 131.862H209.103V139.586H216.828V131.862Z" fill="black"/>
        <path d="M232.276 131.862H224.552V139.586H232.276V131.862Z" fill="black"/>
        <path d="M23.7241 139.586H16V147.31H23.7241V139.586Z" fill="black"/>
        <path d="M39.1724 139.586H31.4483V147.31H39.1724V139.586Z" fill="black"/>
        <path d="M54.6207 139.586H46.8966V147.31H54.6207V139.586Z" fill="black"/>
        <path d="M70.069 139.586H62.3448V147.31H70.069V139.586Z" fill="black"/>
        <path d="M100.966 139.586H93.2414V147.31H100.966V139.586Z" fill="black"/>
        <path d="M116.414 139.586H108.69V147.31H116.414V139.586Z" fill="black"/>
        <path d="M131.862 139.586H124.138V147.31H131.862V139.586Z" fill="black"/>
        <path d="M139.586 139.586H131.862V147.31H139.586V139.586Z" fill="black"/>
        <path d="M147.31 139.586H139.586V147.31H147.31V139.586Z" fill="black"/>
        <path d="M170.483 139.586H162.759V147.31H170.483V139.586Z" fill="black"/>
        <path d="M178.207 139.586H170.483V147.31H178.207V139.586Z" fill="black"/>
        <path d="M185.931 139.586H178.207V147.31H185.931V139.586Z" fill="black"/>
        <path d="M201.379 139.586H193.655V147.31H201.379V139.586Z" fill="black"/>
        <path d="M216.828 139.586H209.103V147.31H216.828V139.586Z" fill="black"/>
        <path d="M31.4483 147.31H23.7241V155.034H31.4483V147.31Z" fill="black"/>
        <path d="M39.1724 147.31H31.4483V155.034H39.1724V147.31Z" fill="black"/>
        <path d="M77.7931 147.31H70.069V155.034H77.7931V147.31Z" fill="black"/>
        <path d="M100.966 147.31H93.2414V155.034H100.966V147.31Z" fill="black"/>
        <path d="M116.414 147.31H108.69V155.034H116.414V147.31Z" fill="black"/>
        <path d="M124.138 147.31H116.414V155.034H124.138V147.31Z" fill="black"/>
        <path d="M139.586 147.31H131.862V155.034H139.586V147.31Z" fill="black"/>
        <path d="M147.31 147.31H139.586V155.034H147.31V147.31Z" fill="black"/>
        <path d="M162.759 147.31H155.034V155.034H162.759V147.31Z" fill="black"/>
        <path d="M170.483 147.31H162.759V155.034H170.483V147.31Z" fill="black"/>
        <path d="M193.655 147.31H185.931V155.034H193.655V147.31Z" fill="black"/>
        <path d="M23.7241 155.034H16V162.759H23.7241V155.034Z" fill="black"/>
        <path d="M31.4483 155.034H23.7241V162.759H31.4483V155.034Z" fill="black"/>
        <path d="M39.1724 155.034H31.4483V162.759H39.1724V155.034Z" fill="black"/>
        <path d="M46.8966 155.034H39.1724V162.759H46.8966V155.034Z" fill="black"/>
        <path d="M54.6207 155.034H46.8966V162.759H54.6207V155.034Z" fill="black"/>
        <path d="M70.069 155.034H62.3448V162.759H70.069V155.034Z" fill="black"/>
        <path d="M77.7931 155.034H70.069V162.759H77.7931V155.034Z" fill="black"/>
        <path d="M85.5172 155.034H77.7931V162.759H85.5172V155.034Z" fill="black"/>
        <path d="M124.138 155.034H116.414V162.759H124.138V155.034Z" fill="black"/>
        <path d="M139.586 155.034H131.862V162.759H139.586V155.034Z" fill="black"/>
        <path d="M155.034 155.034H147.31V162.759H155.034V155.034Z" fill="black"/>
        <path d="M162.759 155.034H155.034V162.759H162.759V155.034Z" fill="black"/>
        <path d="M170.483 155.034H162.759V162.759H170.483V155.034Z" fill="black"/>
        <path d="M178.207 155.034H170.483V162.759H178.207V155.034Z" fill="black"/>
        <path d="M201.379 155.034H193.655V162.759H201.379V155.034Z" fill="black"/>
        <path d="M209.103 155.034H201.379V162.759H209.103V155.034Z" fill="black"/>
        <path d="M23.7241 162.759H16V170.483H23.7241V162.759Z" fill="black"/>
        <path d="M62.3448 162.759H54.6207V170.483H62.3448V162.759Z" fill="black"/>
        <path d="M85.5172 162.759H77.7931V170.483H85.5172V162.759Z" fill="black"/>
        <path d="M100.966 162.759H93.2414V170.483H100.966V162.759Z" fill="black"/>
        <path d="M108.69 162.759H100.966V170.483H108.69V162.759Z" fill="black"/>
        <path d="M124.138 162.759H116.414V170.483H124.138V162.759Z" fill="black"/>
        <path d="M170.483 162.759H162.759V170.483H170.483V162.759Z" fill="black"/>
        <path d="M216.828 162.759H209.103V170.483H216.828V162.759Z" fill="black"/>
        <path d="M224.552 162.759H216.828V170.483H224.552V162.759Z" fill="black"/>
        <path d="M232.276 162.759H224.552V170.483H232.276V162.759Z" fill="black"/>
        <path d="M39.1724 170.483H31.4483V178.207H39.1724V170.483Z" fill="black"/>
        <path d="M70.069 170.483H62.3448V178.207H70.069V170.483Z" fill="black"/>
        <path d="M93.2414 170.483H85.5172V178.207H93.2414V170.483Z" fill="black"/>
        <path d="M100.966 170.483H93.2414V178.207H100.966V170.483Z" fill="black"/>
        <path d="M124.138 170.483H116.414V178.207H124.138V170.483Z" fill="black"/>
        <path d="M139.586 170.483H131.862V178.207H139.586V170.483Z" fill="black"/>
        <path d="M147.31 170.483H139.586V178.207H147.31V170.483Z" fill="black"/>
        <path d="M155.034 170.483H147.31V178.207H155.034V170.483Z" fill="black"/>
        <path d="M178.207 170.483H170.483V178.207H178.207V170.483Z" fill="black"/>
        <path d="M185.931 170.483H178.207V178.207H185.931V170.483Z" fill="black"/>
        <path d="M193.655 170.483H185.931V178.207H193.655V170.483Z" fill="black"/>
        <path d="M201.379 170.483H193.655V178.207H201.379V170.483Z" fill="black"/>
        <path d="M209.103 170.483H201.379V178.207H209.103V170.483Z" fill="black"/>
        <path d="M232.276 170.483H224.552V178.207H232.276V170.483Z" fill="black"/>
        <path d="M240 170.483H232.276V178.207H240V170.483Z" fill="black"/>
        <path d="M85.5172 178.207H77.7931V185.931H85.5172V178.207Z" fill="black"/>
        <path d="M116.414 178.207H108.69V185.931H116.414V178.207Z" fill="black"/>
        <path d="M131.862 178.207H124.138V185.931H131.862V178.207Z" fill="black"/>
        <path d="M139.586 178.207H131.862V185.931H139.586V178.207Z" fill="black"/>
        <path d="M147.31 178.207H139.586V185.931H147.31V178.207Z" fill="black"/>
        <path d="M155.034 178.207H147.31V185.931H155.034V178.207Z" fill="black"/>
        <path d="M162.759 178.207H155.034V185.931H162.759V178.207Z" fill="black"/>
        <path d="M178.207 178.207H170.483V185.931H178.207V178.207Z" fill="black"/>
        <path d="M209.103 178.207H201.379V185.931H209.103V178.207Z" fill="black"/>
        <path d="M224.552 178.207H216.828V185.931H224.552V178.207Z" fill="black"/>
        <path d="M232.276 178.207H224.552V185.931H232.276V178.207Z" fill="black"/>
        <path d="M23.7241 185.931H16V193.655H23.7241V185.931Z" fill="black"/>
        <path d="M31.4483 185.931H23.7241V193.655H31.4483V185.931Z" fill="black"/>
        <path d="M39.1724 185.931H31.4483V193.655H39.1724V185.931Z" fill="black"/>
        <path d="M46.8966 185.931H39.1724V193.655H46.8966V185.931Z" fill="black"/>
        <path d="M54.6207 185.931H46.8966V193.655H54.6207V185.931Z" fill="black"/>
        <path d="M62.3448 185.931H54.6207V193.655H62.3448V185.931Z" fill="black"/>
        <path d="M70.069 185.931H62.3448V193.655H70.069V185.931Z" fill="black"/>
        <path d="M93.2414 185.931H85.5172V193.655H93.2414V185.931Z" fill="black"/>
        <path d="M108.69 185.931H100.966V193.655H108.69V185.931Z" fill="black"/>
        <path d="M116.414 185.931H108.69V193.655H116.414V185.931Z" fill="black"/>
        <path d="M131.862 185.931H124.138V193.655H131.862V185.931Z" fill="black"/>
        <path d="M155.034 185.931H147.31V193.655H155.034V185.931Z" fill="black"/>
        <path d="M178.207 185.931H170.483V193.655H178.207V185.931Z" fill="black"/>
        <path d="M193.655 185.931H185.931V193.655H193.655V185.931Z" fill="black"/>
        <path d="M209.103 185.931H201.379V193.655H209.103V185.931Z" fill="black"/>
        <path d="M216.828 185.931H209.103V193.655H216.828V185.931Z" fill="black"/>
        <path d="M240 185.931H232.276V193.655H240V185.931Z" fill="black"/>
        <path d="M23.7241 193.655H16V201.379H23.7241V193.655Z" fill="black"/>
        <path d="M70.069 193.655H62.3448V201.379H70.069V193.655Z" fill="black"/>
        <path d="M85.5172 193.655H77.7931V201.379H85.5172V193.655Z" fill="black"/>
        <path d="M100.966 193.655H93.2414V201.379H100.966V193.655Z" fill="black"/>
        <path d="M108.69 193.655H100.966V201.379H108.69V193.655Z" fill="black"/>
        <path d="M124.138 193.655H116.414V201.379H124.138V193.655Z" fill="black"/>
        <path d="M155.034 193.655H147.31V201.379H155.034V193.655Z" fill="black"/>
        <path d="M162.759 193.655H155.034V201.379H162.759V193.655Z" fill="black"/>
        <path d="M170.483 193.655H162.759V201.379H170.483V193.655Z" fill="black"/>
        <path d="M178.207 193.655H170.483V201.379H178.207V193.655Z" fill="black"/>
        <path d="M209.103 193.655H201.379V201.379H209.103V193.655Z" fill="black"/>
        <path d="M216.828 193.655H209.103V201.379H216.828V193.655Z" fill="black"/>
        <path d="M232.276 193.655H224.552V201.379H232.276V193.655Z" fill="black"/>
        <path d="M23.7241 201.379H16V209.103H23.7241V201.379Z" fill="black"/>
        <path d="M39.1724 201.379H31.4483V209.103H39.1724V201.379Z" fill="black"/>
        <path d="M46.8966 201.379H39.1724V209.103H46.8966V201.379Z" fill="black"/>
        <path d="M54.6207 201.379H46.8966V209.103H54.6207V201.379Z" fill="black"/>
        <path d="M70.069 201.379H62.3448V209.103H70.069V201.379Z" fill="black"/>
        <path d="M100.966 201.379H93.2414V209.103H100.966V201.379Z" fill="black"/>
        <path d="M108.69 201.379H100.966V209.103H108.69V201.379Z" fill="black"/>
        <path d="M131.862 201.379H124.138V209.103H131.862V201.379Z" fill="black"/>
        <path d="M139.586 201.379H131.862V209.103H139.586V201.379Z" fill="black"/>
        <path d="M162.759 201.379H155.034V209.103H162.759V201.379Z" fill="black"/>
        <path d="M170.483 201.379H162.759V209.103H170.483V201.379Z" fill="black"/>
        <path d="M178.207 201.379H170.483V209.103H178.207V201.379Z" fill="black"/>
        <path d="M185.931 201.379H178.207V209.103H185.931V201.379Z" fill="black"/>
        <path d="M193.655 201.379H185.931V209.103H193.655V201.379Z" fill="black"/>
        <path d="M201.379 201.379H193.655V209.103H201.379V201.379Z" fill="black"/>
        <path d="M209.103 201.379H201.379V209.103H209.103V201.379Z" fill="black"/>
        <path d="M216.828 201.379H209.103V209.103H216.828V201.379Z" fill="black"/>
        <path d="M224.552 201.379H216.828V209.103H224.552V201.379Z" fill="black"/>
        <path d="M232.276 201.379H224.552V209.103H232.276V201.379Z" fill="black"/>
        <path d="M240 201.379H232.276V209.103H240V201.379Z" fill="black"/>
        <path d="M23.7241 209.103H16V216.827H23.7241V209.103Z" fill="black"/>
        <path d="M39.1724 209.103H31.4483V216.827H39.1724V209.103Z" fill="black"/>
        <path d="M46.8966 209.103H39.1724V216.827H46.8966V209.103Z" fill="black"/>
        <path d="M54.6207 209.103H46.8966V216.827H54.6207V209.103Z" fill="black"/>
        <path d="M70.069 209.103H62.3448V216.827H70.069V209.103Z" fill="black"/>
        <path d="M93.2414 209.103H85.5172V216.827H93.2414V209.103Z" fill="black"/>
        <path d="M100.966 209.103H93.2414V216.827H100.966V209.103Z" fill="black"/>
        <path d="M108.69 209.103H100.966V216.827H108.69V209.103Z" fill="black"/>
        <path d="M116.414 209.103H108.69V216.827H116.414V209.103Z" fill="black"/>
        <path d="M139.586 209.103H131.862V216.827H139.586V209.103Z" fill="black"/>
        <path d="M147.31 209.103H139.586V216.827H147.31V209.103Z" fill="black"/>
        <path d="M162.759 209.103H155.034V216.827H162.759V209.103Z" fill="black"/>
        <path d="M209.103 209.103H201.379V216.827H209.103V209.103Z" fill="black"/>
        <path d="M216.828 209.103H209.103V216.827H216.828V209.103Z" fill="black"/>
        <path d="M23.7241 216.827H16V224.552H23.7241V216.827Z" fill="black"/>
        <path d="M39.1724 216.827H31.4483V224.552H39.1724V216.827Z" fill="black"/>
        <path d="M46.8966 216.827H39.1724V224.552H46.8966V216.827Z" fill="black"/>
        <path d="M54.6207 216.827H46.8966V224.552H54.6207V216.827Z" fill="black"/>
        <path d="M70.069 216.827H62.3448V224.552H70.069V216.827Z" fill="black"/>
        <path d="M100.966 216.827H93.2414V224.552H100.966V216.827Z" fill="black"/>
        <path d="M108.69 216.827H100.966V224.552H108.69V216.827Z" fill="black"/>
        <path d="M124.138 216.827H116.414V224.552H124.138V216.827Z" fill="black"/>
        <path d="M131.862 216.827H124.138V224.552H131.862V216.827Z" fill="black"/>
        <path d="M178.207 216.827H170.483V224.552H178.207V216.827Z" fill="black"/>
        <path d="M185.931 216.827H178.207V224.552H185.931V216.827Z" fill="black"/>
        <path d="M201.379 216.827H193.655V224.552H201.379V216.827Z" fill="black"/>
        <path d="M23.7241 224.552H16V232.276H23.7241V224.552Z" fill="black"/>
        <path d="M70.069 224.552H62.3448V232.276H70.069V224.552Z" fill="black"/>
        <path d="M100.966 224.552H93.2414V232.276H100.966V224.552Z" fill="black"/>
        <path d="M108.69 224.552H100.966V232.276H108.69V224.552Z" fill="black"/>
        <path d="M116.414 224.552H108.69V232.276H116.414V224.552Z" fill="black"/>
        <path d="M131.862 224.552H124.138V232.276H131.862V224.552Z" fill="black"/>
        <path d="M139.586 224.552H131.862V232.276H139.586V224.552Z" fill="black"/>
        <path d="M147.31 224.552H139.586V232.276H147.31V224.552Z" fill="black"/>
        <path d="M162.759 224.552H155.034V232.276H162.759V224.552Z" fill="black"/>
        <path d="M170.483 224.552H162.759V232.276H170.483V224.552Z" fill="black"/>
        <path d="M185.931 224.552H178.207V232.276H185.931V224.552Z" fill="black"/>
        <path d="M193.655 224.552H185.931V232.276H193.655V224.552Z" fill="black"/>
        <path d="M201.379 224.552H193.655V232.276H201.379V224.552Z" fill="black"/>
        <path d="M209.103 224.552H201.379V232.276H209.103V224.552Z" fill="black"/>
        <path d="M232.276 224.552H224.552V232.276H232.276V224.552Z" fill="black"/>
        <path d="M240 224.552H232.276V232.276H240V224.552Z" fill="black"/>
        <path d="M23.7241 232.276H16V240H23.7241V232.276Z" fill="black"/>
        <path d="M31.4483 232.276H23.7241V240H31.4483V232.276Z" fill="black"/>
        <path d="M39.1724 232.276H31.4483V240H39.1724V232.276Z" fill="black"/>
        <path d="M46.8966 232.276H39.1724V240H46.8966V232.276Z" fill="black"/>
        <path d="M54.6207 232.276H46.8966V240H54.6207V232.276Z" fill="black"/>
        <path d="M62.3448 232.276H54.6207V240H62.3448V232.276Z" fill="black"/>
        <path d="M70.069 232.276H62.3448V240H70.069V232.276Z" fill="black"/>
        <path d="M93.2414 232.276H85.5172V240H93.2414V232.276Z" fill="black"/>
        <path d="M116.414 232.276H108.69V240H116.414V232.276Z" fill="black"/>
        <path d="M131.862 232.276H124.138V240H131.862V232.276Z" fill="black"/>
        <path d="M155.034 232.276H147.31V240H155.034V232.276Z" fill="black"/>
        <path d="M162.759 232.276H155.034V240H162.759V232.276Z" fill="black"/>
        <path d="M170.483 232.276H162.759V240H170.483V232.276Z" fill="black"/>
        <path d="M185.931 232.276H178.207V240H185.931V232.276Z" fill="black"/>
        <path d="M216.828 232.276H209.103V240H216.828V232.276Z" fill="black"/>
        <path d="M224.552 232.276H216.828V240H224.552V232.276Z" fill="black"/>
    </g>
    <defs>
        <clipPath id="clip0_2392_11659">
            <rect width="256" height="256" rx="12" fill="white"/>
        </clipPath>
    </defs>
</svg>
