<svg width="32" height="32" viewBox="0 0 32 32" fill="none" xmlns="http://www.w3.org/2000/svg">
    <path d="M20 22C20.6553 21.3257 22.3997 18.6667 23.3333 18.6667M23.3333 18.6667C24.2669 18.6667 26.0113 21.3257 26.6667 22M23.3333 18.6667V29.3333" stroke="white" stroke-width="2" stroke-linecap="round" stroke-linejoin="round"/>
    <path d="M24 2.66666V5.33332M8 2.66666V5.33332" stroke="white" stroke-width="2" stroke-linecap="round" stroke-linejoin="round"/>
    <path d="M16.6693 29.3333H14.7359C9.36192 29.3333 6.67492 29.3333 5.00543 27.5285C3.33594 25.7236 3.33594 22.8188 3.33594 17.0091V16.3243C3.33594 10.5146 3.33594 7.60971 5.00543 5.80485C6.67492 4 9.36192 4 14.7359 4H17.2693C22.6433 4 25.3303 4 26.9998 5.80485C28.5715 7.50404 28.6635 10.1782 28.6689 15.3333" stroke="white" stroke-width="2" stroke-linecap="round" stroke-linejoin="round"/>
    <path d="M4 10.6667H28" stroke="white" stroke-width="2" stroke-linecap="round" stroke-linejoin="round"/>
</svg>
