<svg width="27" height="28" viewBox="0 0 27 28" fill="none" xmlns="http://www.w3.org/2000/svg">
    <path d="M17.7242 4.06396H19.378C20.0359 4.06396 20.6669 4.32533 21.1322 4.79057C21.5974 5.2558 21.8588 5.88679 21.8588 6.54473V23.0832C21.8588 23.7411 21.5974 24.3721 21.1322 24.8374C20.6669 25.3026 20.0359 25.564 19.378 25.564H7.80108C7.14314 25.564 6.51215 25.3026 6.04691 24.8374C5.58168 24.3721 5.32031 23.7411 5.32031 23.0832V6.54473C5.32031 5.88679 5.58168 5.2558 6.04691 4.79057C6.51215 4.32533 7.14314 4.06396 7.80108 4.06396H9.45493" stroke="#0170BC" stroke-width="1.65385" stroke-linejoin="round"/>
    <path d="M16.3719 2.41016H10.8036C10.0578 2.41016 9.45312 3.01478 9.45312 3.76063V4.36738C9.45312 5.11322 10.0578 5.71785 10.8036 5.71785H16.3719C17.1177 5.71785 17.7224 5.11322 17.7224 4.36738V3.76063C17.7224 3.01478 17.1177 2.41016 16.3719 2.41016Z" stroke="#0170BC" stroke-width="1.65385" stroke-linejoin="round"/>
</svg>
