<svg width="17" height="16" viewBox="0 0 17 16" fill="none" xmlns="http://www.w3.org/2000/svg">
    <path d="M3.97798 7.66059C3.92899 8.59125 3.9853 9.58192 3.15382 10.2055C2.76682 10.4958 2.53906 10.9513 2.53906 11.4351C2.53906 12.1005 3.06026 12.6666 3.73906 12.6666H13.3391C14.0179 12.6666 14.5391 12.1005 14.5391 11.4351C14.5391 10.9513 14.3113 10.4958 13.9243 10.2055C13.0928 9.58192 13.1491 8.59125 13.1001 7.66059C12.9725 5.23474 10.9683 3.33325 8.53906 3.33325C6.10984 3.33325 4.10565 5.23473 3.97798 7.66059Z" stroke="#0E0D39" stroke-linecap="round" stroke-linejoin="round"/>
    <path d="M7.53906 2.08325C7.53906 2.63554 7.9868 3.33325 8.53906 3.33325C9.09133 3.33325 9.53906 2.63554 9.53906 2.08325C9.53906 1.53097 9.09133 1.33325 8.53906 1.33325C7.9868 1.33325 7.53906 1.53097 7.53906 2.08325Z" stroke="#0E0D39"/>
    <path d="M10.5391 12.6667C10.5391 13.7713 9.64366 14.6667 8.53906 14.6667C7.43446 14.6667 6.53906 13.7713 6.53906 12.6667" stroke="#0E0D39" stroke-linecap="round" stroke-linejoin="round"/>
</svg>
