<svg width="25" height="24" viewBox="0 0 25 24" fill="none" xmlns="http://www.w3.org/2000/svg">
    <path d="M21.4606 16.4944C20.9403 15.5981 20.1669 13.0622 20.1669 9.75C20.1669 7.76088 19.3767 5.85322 17.9702 4.4467C16.5637 3.04018 14.656 2.25 12.6669 2.25C10.6778 2.25 8.7701 3.04018 7.36358 4.4467C5.95706 5.85322 5.16688 7.76088 5.16688 9.75C5.16688 13.0631 4.39251 15.5981 3.87219 16.4944C3.73932 16.7222 3.66888 16.9811 3.66798 17.2449C3.66707 17.5086 3.73573 17.768 3.86704 17.9967C3.99834 18.2255 4.18764 18.4156 4.41586 18.5478C4.64407 18.6801 4.90312 18.7498 5.16688 18.75H8.99282C9.16586 19.5967 9.62603 20.3577 10.2955 20.9042C10.965 21.4507 11.8027 21.7492 12.6669 21.7492C13.5311 21.7492 14.3688 21.4507 15.0383 20.9042C15.7077 20.3577 16.1679 19.5967 16.3409 18.75H20.1669C20.4306 18.7496 20.6895 18.6798 20.9176 18.5475C21.1457 18.4151 21.3348 18.225 21.466 17.9963C21.5972 17.7676 21.6658 17.5083 21.6648 17.2446C21.6639 16.9809 21.5935 16.7222 21.4606 16.4944ZM12.6669 20.25C12.2017 20.2499 11.748 20.1055 11.3683 19.8369C10.9885 19.5683 10.7013 19.1886 10.5463 18.75H14.7875C14.6325 19.1886 14.3453 19.5683 13.9655 19.8369C13.5857 20.1055 13.1321 20.2499 12.6669 20.25ZM5.16688 17.25C5.88876 16.0087 6.66688 13.1325 6.66688 9.75C6.66688 8.1587 7.29902 6.63258 8.42424 5.50736C9.54946 4.38214 11.0756 3.75 12.6669 3.75C14.2582 3.75 15.7843 4.38214 16.9095 5.50736C18.0347 6.63258 18.6669 8.1587 18.6669 9.75C18.6669 13.1297 19.4431 16.0059 20.1669 17.25H5.16688Z" fill="#0596DE"/>
</svg>
