<svg width="29" height="29" viewBox="0 0 29 29" fill="none" xmlns="http://www.w3.org/2000/svg">
    <path d="M18.0469 3.86548V5.61548C18.0469 7.26539 18.0469 8.09035 18.5594 8.60291C19.072 9.11548 19.897 9.11548 21.5469 9.11548H23.2969" stroke="#141B34" stroke-width="1.65385" stroke-linecap="round" stroke-linejoin="round"/>
    <path d="M5.21094 19.6153V10.282C5.21094 6.98215 5.21094 5.33224 6.23606 4.30711C7.26119 3.28198 8.9111 3.28198 12.2109 3.28198H17.0778C17.5546 3.28198 17.7931 3.28198 18.0075 3.37079C18.2218 3.4596 18.3905 3.6282 18.7277 3.9654L23.1942 8.43189C23.5313 8.7691 23.7 8.9377 23.7888 9.1521C23.8776 9.3665 23.8776 9.60494 23.8776 10.0818V19.6153C23.8776 22.9151 23.8776 24.565 22.8525 25.5902C21.8273 26.6153 20.1774 26.6153 16.8776 26.6153H12.2109C8.9111 26.6153 7.26119 26.6153 6.23606 25.5902C5.21094 24.565 5.21094 22.9151 5.21094 19.6153Z" stroke="#141B34" stroke-width="1.65385" stroke-linecap="round" stroke-linejoin="round"/>
    <path d="M9.88281 13.7822H19.2161M9.88281 17.2822H19.2161M9.88281 20.7822H14.7487" stroke="#141B34" stroke-width="1.65385" stroke-linecap="round" stroke-linejoin="round"/>
</svg>
