<svg width="29" height="29" viewBox="0 0 29 29" fill="none" xmlns="http://www.w3.org/2000/svg">
    <path d="M21.8672 3.28223V5.61556M7.86719 3.28223V5.61556" stroke="#141B34" stroke-width="1.65385" stroke-linecap="round" stroke-linejoin="round"/>
    <path d="M14.8645 16.1157H14.875M14.8645 20.7824H14.875M19.526 16.1157H19.5365M10.2031 16.1157H10.2136M10.2031 20.7824H10.2136" stroke="#141B34" stroke-width="2.20513" stroke-linecap="round" stroke-linejoin="round"/>
    <path d="M4.95312 10.2822H24.7865" stroke="#141B34" stroke-width="1.65385" stroke-linecap="round" stroke-linejoin="round"/>
    <path d="M3.78125 15.2327C3.78125 10.1492 3.78125 7.60747 5.24206 6.02822C6.70286 4.44897 9.05399 4.44897 13.7562 4.44897H15.9729C20.6752 4.44897 23.0263 4.44897 24.4871 6.02822C25.9479 7.60747 25.9479 10.1492 25.9479 15.2327V15.8319C25.9479 20.9154 25.9479 23.4571 24.4871 25.0364C23.0263 26.6156 20.6752 26.6156 15.9729 26.6156H13.7562C9.05399 26.6156 6.70286 26.6156 5.24206 25.0364C3.78125 23.4571 3.78125 20.9154 3.78125 15.8319V15.2327Z" stroke="#141B34" stroke-width="1.65385" stroke-linecap="round" stroke-linejoin="round"/>
    <path d="M4.36719 10.2822H25.3672" stroke="#141B34" stroke-width="1.65385" stroke-linecap="round" stroke-linejoin="round"/>
</svg>
