<svg width="25" height="24" viewBox="0 0 25 24" fill="none" xmlns="http://www.w3.org/2000/svg">
    <path d="M21.8281 10.8329V19.5001C21.8281 19.8979 21.6701 20.2795 21.3888 20.5608C21.1075 20.8421 20.726 21.0001 20.3281 21.0001H16.5781C16.1803 21.0001 15.7988 20.8421 15.5175 20.5608C15.2362 20.2795 15.0781 19.8979 15.0781 19.5001V15.7501C15.0781 15.5512 14.9991 15.3604 14.8585 15.2198C14.7178 15.0791 14.527 15.0001 14.3281 15.0001H11.3281C11.1292 15.0001 10.9384 15.0791 10.7978 15.2198C10.6571 15.3604 10.5781 15.5512 10.5781 15.7501V19.5001C10.5781 19.8979 10.4201 20.2795 10.1388 20.5608C9.85748 20.8421 9.47595 21.0001 9.07812 21.0001H5.32812C4.9303 21.0001 4.54877 20.8421 4.26746 20.5608C3.98616 20.2795 3.82813 19.8979 3.82813 19.5001V10.8329C3.82809 10.6253 3.87116 10.42 3.95459 10.2299C4.03802 10.0398 4.16 9.86907 4.31281 9.72855L11.8128 2.6523L11.8231 2.64199C12.0993 2.39086 12.4591 2.25171 12.8323 2.25171C13.2056 2.25171 13.5654 2.39086 13.8416 2.64199C13.8448 2.64566 13.8482 2.6491 13.8519 2.6523L21.3519 9.72855C21.5032 9.86981 21.6236 10.0409 21.7055 10.2309C21.7875 10.421 21.8292 10.6259 21.8281 10.8329Z" fill="white"/>
</svg>
