<svg width="25" height="24" viewBox="0 0 25 24" fill="none" xmlns="http://www.w3.org/2000/svg">
    <path d="M21.832 10.8329V19.5001C21.832 19.8979 21.674 20.2795 21.3927 20.5608C21.1114 20.8421 20.7299 21.0001 20.332 21.0001H16.582C16.1842 21.0001 15.8027 20.8421 15.5214 20.5608C15.2401 20.2795 15.082 19.8979 15.082 19.5001V15.7501C15.082 15.5512 15.003 15.3604 14.8624 15.2198C14.7217 15.0791 14.5309 15.0001 14.332 15.0001H11.332C11.1331 15.0001 10.9424 15.0791 10.8017 15.2198C10.661 15.3604 10.582 15.5512 10.582 15.7501V19.5001C10.582 19.8979 10.424 20.2795 10.1427 20.5608C9.86139 20.8421 9.47986 21.0001 9.08203 21.0001H5.33203C4.93421 21.0001 4.55268 20.8421 4.27137 20.5608C3.99007 20.2795 3.83203 19.8979 3.83203 19.5001V10.8329C3.832 10.6253 3.87506 10.42 3.95849 10.2299C4.04192 10.0398 4.1639 9.86907 4.31672 9.72855L11.8167 2.6523L11.827 2.64199C12.1032 2.39086 12.463 2.25171 12.8363 2.25171C13.2095 2.25171 13.5693 2.39086 13.8455 2.64199C13.8487 2.64566 13.8521 2.6491 13.8558 2.6523L21.3558 9.72855C21.5071 9.86981 21.6275 10.0409 21.7094 10.2309C21.7914 10.421 21.8331 10.6259 21.832 10.8329Z" fill="white"/>
</svg>
