<svg width="29" height="29" viewBox="0 0 29 29" fill="none" xmlns="http://www.w3.org/2000/svg">
    <path d="M23.5339 26.6152V23.1152C23.5339 19.8154 23.5339 18.1654 22.5087 17.1404C21.4836 16.1152 19.8337 16.1152 16.5339 16.1152H11.8672C8.56735 16.1152 6.91744 16.1152 5.89231 17.1404C4.86719 18.1654 4.86719 19.8154 4.86719 23.1152C4.86719 24.2025 4.86719 24.746 5.0448 25.1748C5.28162 25.7465 5.73586 26.2007 6.30759 26.4376C6.7364 26.6152 7.27999 26.6152 8.36719 26.6152" stroke="#141B34" stroke-width="1.65385" stroke-linecap="round" stroke-linejoin="round"/>
    <path d="M11.2839 16.1152L14.7839 26.6152M8.36719 16.6986V26.6152" stroke="#141B34" stroke-width="1.65385" stroke-linecap="round" stroke-linejoin="round"/>
    <path d="M14.2031 23.1152H17.1198C18.0863 23.1152 18.8698 23.8988 18.8698 24.8652C18.8698 25.8317 18.0863 26.6152 17.1198 26.6152H14.7865" stroke="#141B34" stroke-width="1.65385" stroke-linecap="round" stroke-linejoin="round"/>
    <path d="M18.2839 8.53198V7.36532C18.2839 5.11015 16.4557 3.28198 14.2005 3.28198C11.9454 3.28198 10.1172 5.11015 10.1172 7.36532V8.53198C10.1172 10.7871 11.9454 12.6153 14.2005 12.6153C16.4557 12.6153 18.2839 10.7871 18.2839 8.53198Z" stroke="#141B34" stroke-width="1.65385" stroke-linecap="round" stroke-linejoin="round"/>
</svg>
