<svg width="39" height="37" viewBox="0 0 39 37" fill="none" xmlns="http://www.w3.org/2000/svg">
    <path d="M11.125 25.75V25.875H11.25H15C15.5636 25.875 16.1041 26.0989 16.5026 26.4974C16.9011 26.8959 17.125 27.4364 17.125 28C17.125 28.5636 16.9011 29.1041 16.5026 29.5026C16.1041 29.9011 15.5636 30.125 15 30.125H11.25H11.125V30.25V34C11.125 34.5636 10.9011 35.1041 10.5026 35.5026C10.1041 35.9011 9.56358 36.125 9 36.125C8.43642 36.125 7.89591 35.9011 7.4974 35.5026C7.09888 35.1041 6.875 34.5636 6.875 34V30.25V30.125H6.75H3C2.43642 30.125 1.89591 29.9011 1.4974 29.5026C1.09888 29.1041 0.875 28.5636 0.875 28C0.875 27.4364 1.09888 26.8959 1.4974 26.4974C1.89591 26.0989 2.43641 25.875 3 25.875H6.75H6.875V25.75V22C6.875 21.4364 7.09888 20.8959 7.4974 20.4974C7.89591 20.0989 8.43642 19.875 9 19.875C9.56359 19.875 10.1041 20.0989 10.5026 20.4974C10.9011 20.8959 11.125 21.4364 11.125 22V25.75ZM23.9967 13.0036L23.9965 13.0034C23.7989 12.8061 23.6422 12.5717 23.5352 12.3137C23.4283 12.0558 23.3732 11.7792 23.3732 11.5C23.3732 11.2207 23.4283 10.9442 23.5352 10.6862C23.6422 10.4283 23.7989 10.1939 23.9965 9.99654L23.9966 9.99644L26.9009 7.08831L26.9893 6.99987L26.9008 6.91153L23.9928 4.00722L23.9927 4.00716C23.5935 3.60792 23.3692 3.06645 23.3692 2.50185C23.3692 1.93723 23.5935 1.39574 23.9928 0.996493C24.392 0.597246 24.9335 0.372952 25.4981 0.372952C26.0627 0.372952 26.6042 0.597246 27.0035 0.996493L27.0035 0.996549L29.9117 3.90092L30 3.98917L30.0884 3.9009L32.9984 0.992772L32.9984 0.992743C33.3976 0.593496 33.9391 0.369202 34.5037 0.369202C35.0684 0.369202 35.6099 0.593496 36.0091 0.992743C36.4084 1.39199 36.6327 1.93348 36.6327 2.4981C36.6327 3.06271 36.4084 3.60419 36.0091 4.00344C36.0091 4.00345 36.0091 4.00346 36.0091 4.00347L33.0991 6.91156L33.0107 6.99992L33.0991 7.08834L36.0072 9.99834L36.0072 9.99837C36.4065 10.3976 36.6308 10.9391 36.6308 11.5037C36.6308 12.0683 36.4065 12.6098 36.0072 13.0091C35.608 13.4083 35.0665 13.6326 34.5019 13.6326C33.9373 13.6326 33.3958 13.4083 32.9965 13.0091L30.0884 10.0991L30 10.0107L29.9116 10.0991L27.0072 13.0035L27.0071 13.0036C26.8097 13.2017 26.5751 13.3589 26.3168 13.4662C26.0585 13.5734 25.7816 13.6286 25.5019 13.6286C25.2222 13.6286 24.9453 13.5734 24.687 13.4662C24.4287 13.3589 24.1941 13.2017 23.9967 13.0036ZM17.125 6.99998C17.125 7.56356 16.9011 8.10407 16.5026 8.50258C16.1041 8.9011 15.5636 9.12498 15 9.12498H3C2.43641 9.12498 1.89591 8.9011 1.4974 8.50258C1.09888 8.10407 0.875 7.56356 0.875 6.99998C0.875 6.43639 1.09888 5.89589 1.4974 5.49738C1.89591 5.09886 2.43641 4.87498 3 4.87498H15C15.5636 4.87498 16.1041 5.09886 16.5026 5.49738C16.9011 5.89589 17.125 6.43639 17.125 6.99998ZM36 26.375H24C23.4364 26.375 22.8959 26.1511 22.4974 25.7526C22.0989 25.3541 21.875 24.8136 21.875 24.25C21.875 23.6864 22.0989 23.1459 22.4974 22.7474C22.8959 22.3489 23.4364 22.125 24 22.125H36C36.5636 22.125 37.1041 22.3489 37.5026 22.7474C37.9011 23.1459 38.125 23.6864 38.125 24.25C38.125 24.8136 37.9011 25.3541 37.5026 25.7526C37.1041 26.1511 36.5636 26.375 36 26.375ZM22.4974 30.2474C22.8959 29.8489 23.4364 29.625 24 29.625H36C36.5636 29.625 37.1041 29.8489 37.5026 30.2474C37.9011 30.6459 38.125 31.1864 38.125 31.75C38.125 32.3136 37.9011 32.8541 37.5026 33.2526C37.1041 33.6511 36.5636 33.875 36 33.875H24C23.4364 33.875 22.8959 33.6511 22.4974 33.2526C22.0989 32.8541 21.875 32.3136 21.875 31.75C21.875 31.1864 22.0989 30.6459 22.4974 30.2474Z" fill="white" stroke="white" stroke-width="0.25"/>
</svg>
