<svg width="32" height="32" viewBox="0 0 32 32" fill="none" xmlns="http://www.w3.org/2000/svg">
    <path d="M22.9375 4V4.0625H23H26C26.5139 4.0625 27.0067 4.26663 27.37 4.62998C27.7334 4.99333 27.9375 5.48614 27.9375 6V26C27.9375 26.5139 27.7334 27.0067 27.37 27.37C27.0067 27.7334 26.5139 27.9375 26 27.9375H6C5.48614 27.9375 4.99333 27.7334 4.62998 27.37C4.26663 27.0067 4.0625 26.5139 4.0625 26V6C4.0625 5.48614 4.26663 4.99333 4.62998 4.62998C4.99333 4.26663 5.48614 4.0625 6 4.0625H9H9.0625V4V3C9.0625 2.75136 9.16127 2.5129 9.33709 2.33709C9.5129 2.16127 9.75136 2.0625 10 2.0625C10.2486 2.0625 10.4871 2.16127 10.6629 2.33709C10.8387 2.5129 10.9375 2.75136 10.9375 3V4V4.0625H11H21H21.0625V4V3C21.0625 2.75136 21.1613 2.5129 21.3371 2.33709C21.5129 2.16127 21.7514 2.0625 22 2.0625C22.2486 2.0625 22.4871 2.16127 22.6629 2.33709C22.8387 2.5129 22.9375 2.75136 22.9375 3V4ZM19.7483 15.2483L14.5 20.4978L12.2517 18.2483L12.2517 18.2483C12.0523 18.0489 11.7819 17.9369 11.5 17.9369C11.2181 17.9369 10.9477 18.0489 10.7483 18.2483C10.5489 18.4477 10.4369 18.7181 10.4369 19C10.4369 19.2819 10.5489 19.5523 10.7483 19.7517L13.7483 22.7517C13.847 22.8505 13.9641 22.9288 14.0931 22.9823C14.2221 23.0358 14.3604 23.0633 14.5 23.0633C14.6396 23.0633 14.7779 23.0358 14.9069 22.9823C15.0359 22.9288 15.153 22.8505 15.2517 22.7517L21.2517 16.7517C21.3504 16.653 21.4287 16.5358 21.4821 16.4068C21.5356 16.2778 21.5631 16.1396 21.5631 16C21.5631 15.8604 21.5356 15.7222 21.4821 15.5932C21.4287 15.4642 21.3504 15.347 21.2517 15.2483C21.153 15.1496 21.0358 15.0713 20.9068 15.0179C20.7778 14.9644 20.6396 14.9369 20.5 14.9369C20.3604 14.9369 20.2222 14.9644 20.0932 15.0179C19.9642 15.0713 19.847 15.1496 19.7483 15.2483L19.7483 15.2483ZM5.9375 10V10.0625H6H26H26.0625V10V6V5.9375H26H23H22.9375V6V7C22.9375 7.24864 22.8387 7.4871 22.6629 7.66291C22.4871 7.83873 22.2486 7.9375 22 7.9375C21.7514 7.9375 21.5129 7.83873 21.3371 7.66291C21.1613 7.4871 21.0625 7.24864 21.0625 7V6V5.9375H21H11H10.9375V6V7C10.9375 7.24864 10.8387 7.4871 10.6629 7.66291C10.4871 7.83873 10.2486 7.9375 10 7.9375C9.75136 7.9375 9.5129 7.83873 9.33709 7.66291C9.16127 7.4871 9.0625 7.24864 9.0625 7V6V5.9375H9H6H5.9375V6V10Z" fill="white" stroke="white" stroke-width="0.125"/>
</svg>
