<svg width="32" height="32" viewBox="0 0 32 32" fill="none" xmlns="http://www.w3.org/2000/svg">
    <path d="M17.5021 16L22.7517 10.7517L22.7075 10.7075L22.7517 10.7517C22.9511 10.5523 23.0631 10.2819 23.0631 10C23.0631 9.71806 22.9511 9.44767 22.7517 9.24831C22.5523 9.04894 22.2819 8.93694 22 8.93694C21.7181 8.93694 21.4477 9.04894 21.2483 9.24831L21.2925 9.2925L21.2483 9.24831L16 14.4979L10.7517 9.24831L10.7517 9.24831C10.5523 9.04894 10.2819 8.93694 10 8.93694C9.71806 8.93694 9.44767 9.04894 9.24831 9.24831C9.04894 9.44767 8.93694 9.71806 8.93694 10C8.93694 10.2819 9.04894 10.5523 9.24831 10.7517L9.24831 10.7517L14.4979 16L9.24831 21.2483L9.2925 21.2925L9.24831 21.2483C9.04894 21.4477 8.93694 21.7181 8.93694 22C8.93694 22.2819 9.04894 22.5523 9.24831 22.7517C9.44767 22.9511 9.71806 23.0631 10 23.0631C10.2819 23.0631 10.5523 22.9511 10.7517 22.7517L10.7075 22.7075L10.7517 22.7517L16 17.5021L21.2483 22.7517L21.2925 22.7075L21.2483 22.7517C21.347 22.8504 21.4642 22.9287 21.5932 22.9821C21.7222 23.0356 21.8604 23.0631 22 23.0631C22.1396 23.0631 22.2778 23.0356 22.4068 22.9821C22.5358 22.9287 22.653 22.8504 22.7517 22.7517C22.8504 22.653 22.9287 22.5358 22.9821 22.4068C23.0356 22.2778 23.0631 22.1396 23.0631 22C23.0631 21.8604 23.0356 21.7222 22.9821 21.5932C22.9287 21.4642 22.8504 21.347 22.7517 21.2483L22.7075 21.2925L22.7517 21.2483L17.5021 16ZM6 4.0625H26C26.5139 4.0625 27.0067 4.26663 27.37 4.62998C27.7334 4.99333 27.9375 5.48614 27.9375 6V26C27.9375 26.5139 27.7334 27.0067 27.37 27.37C27.0067 27.7334 26.5139 27.9375 26 27.9375H6C5.48614 27.9375 4.99333 27.7334 4.62998 27.37C4.26663 27.0067 4.0625 26.5139 4.0625 26V6C4.0625 5.48614 4.26663 4.99333 4.62998 4.62998C4.99333 4.26663 5.48614 4.0625 6 4.0625Z" fill="#0596DE" stroke="#0596DE" stroke-width="0.125"/>
</svg>
