<svg width="24" height="24" viewBox="0 0 24 24" fill="none" xmlns="http://www.w3.org/2000/svg">
    <path d="M11.1196 18.1332C11.0556 18.1332 10.9916 18.1119 10.9383 18.0639C8.90098 16.1812 6.78365 14.2399 5.22098 12.3199C3.43965 10.1332 2.57031 8.21322 2.57031 6.43722C2.57031 4.19188 4.54898 2.36255 6.98098 2.36255C9.09298 2.36255 10.1756 3.33855 11.125 4.94388C12.069 3.33855 13.157 2.36255 15.269 2.36255C17.701 2.36255 19.6796 4.19188 19.6796 6.43722C19.6796 8.20788 18.8156 10.1332 17.029 12.3199C15.461 14.2399 13.349 16.1812 11.3063 18.0585C11.253 18.1066 11.189 18.1332 11.1196 18.1332ZM6.98098 2.89588C4.84231 2.89588 3.10365 4.48522 3.10365 6.43722C3.10365 10.0745 7.14631 13.8452 11.1196 17.4986C15.093 13.8505 19.141 10.0745 19.141 6.43722C19.141 4.48522 17.4023 2.89588 15.2636 2.89588C13.2316 2.89588 12.293 3.89322 11.3543 5.61055C11.3063 5.69588 11.2156 5.74922 11.1196 5.74922C11.0236 5.74922 10.933 5.69588 10.885 5.61055C9.95165 3.89322 9.01298 2.89588 6.98098 2.89588Z" fill="#0596DE"/>
    <path d="M17.9701 21.7172H14.6955C12.5781 21.7172 10.8555 19.9945 10.8555 17.8772C10.8555 17.7278 10.9728 17.6105 11.1221 17.6105C11.2715 17.6105 11.3888 17.7278 11.3888 17.8772C11.3888 19.7012 12.8715 21.1838 14.6955 21.1838H17.9701C19.7941 21.1838 21.2768 19.7012 21.2768 17.8772V14.8638C21.2768 14.7145 21.3941 14.5972 21.5435 14.5972C21.6928 14.5972 21.8101 14.7145 21.8101 14.8638V17.8772C21.8101 19.9945 20.0875 21.7172 17.9701 21.7172Z" fill="#0596DE"/>
    <path d="M21.5451 15.1253C20.3024 15.1253 19.2891 14.1119 19.2891 12.8693C19.2891 11.6266 20.3024 10.6133 21.5451 10.6133C22.7877 10.6133 23.8011 11.6266 23.8011 12.8693C23.8011 14.1173 22.7877 15.1253 21.5451 15.1253ZM21.5451 11.1519C20.5957 11.1519 19.8224 11.9253 19.8224 12.8746C19.8224 13.8239 20.5957 14.5973 21.5451 14.5973C22.4944 14.5973 23.2677 13.8239 23.2677 12.8746C23.2677 11.9253 22.4944 11.1519 21.5451 11.1519Z" fill="#0596DE"/>
    <path d="M21.5439 13.8398C21.0106 13.8398 20.5732 13.4078 20.5732 12.8691C20.5732 12.3304 21.0052 11.8984 21.5439 11.8984C22.0826 11.8984 22.5146 12.3304 22.5146 12.8691C22.5092 13.4078 22.0772 13.8398 21.5439 13.8398ZM21.5439 12.4371C21.3039 12.4371 21.1066 12.6344 21.1066 12.8744C21.1066 13.1144 21.3039 13.3118 21.5439 13.3118C21.7839 13.3118 21.9812 13.1144 21.9812 12.8744C21.9759 12.6344 21.7839 12.4371 21.5439 12.4371ZM12.4826 11.0558C12.4026 11.0558 12.3226 11.0184 12.2692 10.9491L10.2266 8.26644L9.21856 9.58911C9.17056 9.65311 9.09056 9.69578 9.00523 9.69578C8.9199 9.69578 8.84523 9.65844 8.7919 9.58911L7.2719 7.59444L6.16256 10.7304C6.12523 10.8371 6.0239 10.9064 5.9119 10.9064H0.493229C0.343896 10.9064 0.226562 10.7891 0.226562 10.6398C0.226562 10.4904 0.343896 10.3731 0.493229 10.3731H5.72523L6.9359 6.95444C6.9679 6.86378 7.0479 6.79444 7.1439 6.77844C7.2399 6.76244 7.3359 6.79978 7.3999 6.87978L9.01056 8.98644L10.0186 7.66378C10.0666 7.59978 10.1466 7.55711 10.2319 7.55711C10.3172 7.55711 10.3919 7.59444 10.4452 7.66378L12.4026 10.2291L13.1439 8.13311C13.1759 8.04244 13.2559 7.97311 13.3519 7.95711C13.4479 7.94111 13.5439 7.97844 13.6079 8.05844L14.5679 9.31711L15.6666 6.21311C15.7039 6.10644 15.8052 6.03711 15.9172 6.03711C16.0292 6.03711 16.1306 6.10644 16.1679 6.21311L17.1759 9.05578H23.3732C23.5226 9.05578 23.6399 9.17311 23.6399 9.32244C23.6399 9.47178 23.5226 9.58911 23.3732 9.58911H16.9786C16.8666 9.58911 16.7652 9.51978 16.7279 9.41311L15.9119 7.10378L14.8986 9.96244C14.8666 10.0531 14.7866 10.1224 14.6906 10.1384C14.5946 10.1544 14.4986 10.1171 14.4346 10.0371L13.4746 8.77844L12.7332 10.8798C12.7012 10.9704 12.6212 11.0398 12.5252 11.0558H12.4826Z" fill="#0596DE"/>
</svg>
