<svg width="49" height="49" viewBox="0 0 49 49" fill="none" xmlns="http://www.w3.org/2000/svg">
    <path d="M33.749 15.1517L33.7661 15.23L33.8444 15.2471C36.5842 15.846 39.1123 17.1712 41.1635 19.0838C43.2147 20.9964 44.7133 23.4258 45.5021 26.1171C46.2908 28.8084 46.3407 31.6624 45.6465 34.3796C44.9522 37.0969 43.5394 39.5771 41.5563 41.5602C39.5732 43.5433 37.093 44.9561 34.3757 45.6504C31.6585 46.3446 28.8045 46.2948 26.1132 45.506C23.4219 44.7172 20.9925 43.2186 19.0799 41.1674C17.1673 39.1163 15.8421 36.5881 15.2432 33.8483L15.2261 33.77L15.1478 33.7529C12.408 33.154 9.87982 31.8287 7.82865 29.9161C5.77747 28.0036 4.27888 25.5742 3.4901 22.8829C2.70132 20.1915 2.65144 17.3376 3.3457 14.6203C4.03995 11.9031 5.45274 9.42283 7.43583 7.43974C9.41892 5.45665 11.8992 4.04386 14.6164 3.3496C17.3336 2.65535 20.1876 2.70523 22.8789 3.494C25.5703 4.28278 27.9997 5.78138 29.9122 7.83255C31.8248 9.88373 33.1501 12.4119 33.749 15.1517ZM27.9752 24.7735C29.0518 23.1526 29.6913 21.2812 29.8319 19.341L30.0406 19.1323L29.7075 19.1553C27.7499 19.2906 25.8615 19.9336 24.2281 21.0209L24.1012 21.1054L24.2089 21.2133L27.7826 24.7927L27.8906 24.9009L27.9752 24.7735ZM14.7633 29.2494L14.8373 29.275L14.8926 29.2196L14.8982 29.214L14.9303 29.1819L14.9343 29.1367C15.2605 25.4823 16.8606 22.0588 19.4549 19.4644C22.0492 16.8701 25.4728 15.27 29.1272 14.9439L29.2866 14.9296L29.2342 14.7785C28.6034 12.9568 27.52 11.3254 26.0857 10.0373C24.6514 8.74929 22.9133 7.84689 21.0346 7.41488C19.1558 6.98286 17.1981 7.03541 15.3453 7.56758C13.4924 8.09975 11.8052 9.09409 10.4421 10.4572C9.07893 11.8204 8.0846 13.5076 7.55242 15.3604C7.02025 17.2133 6.96771 19.171 7.39972 21.0497C7.83173 22.9284 8.73413 24.6666 10.0222 26.1009C11.3102 27.5351 12.9417 28.6186 14.7633 29.2494ZM19.1457 29.7171L19.123 30.0498L19.3315 29.8414C21.2723 29.6991 23.1437 29.0577 24.7641 27.979L24.8914 27.8943L24.783 27.7864L21.198 24.2183L21.09 24.1108L21.0057 24.2377C19.9204 25.8717 19.2794 27.7601 19.1457 29.7171ZM19.8594 34.0617L19.6997 34.0759L19.7524 34.2273C20.529 36.4588 21.9802 38.3936 23.905 39.7638C25.8299 41.134 28.1332 41.8718 30.4959 41.875H30.4962C33.1837 41.8727 35.7836 40.919 37.835 39.1828C39.8864 37.4467 41.2569 35.0403 41.7034 32.3901C42.15 29.74 41.6439 27.0174 40.2747 24.7048C38.9055 22.3923 36.7617 20.6392 34.2234 19.7563L34.072 19.7036L34.0578 19.8633C33.7327 23.5196 32.1324 26.9451 29.5368 29.5407C26.9412 32.1363 23.5157 33.7366 19.8594 34.0617Z" fill="white" stroke="white" stroke-width="0.25"/>
</svg>
