<svg width="24" height="24" viewBox="0 0 24 24" fill="none" xmlns="http://www.w3.org/2000/svg">
    <g clip-path="url(#clip0_2686_20280)">
        <path d="M24 15.352C24 14.7556 23.5148 14.2704 22.9184 14.2704H21.3856V13.7789C21.3856 12.9498 20.7111 12.2754 19.8821 12.2754H19.0398C18.8457 12.2754 18.6884 12.4327 18.6884 12.6268C18.6884 12.8209 18.8457 12.9782 19.0398 12.9782H19.8821C20.3236 12.9782 20.6828 13.3374 20.6828 13.7789V14.2704H20.201C20.0069 14.2704 19.8496 14.4277 19.8496 14.6218C19.8496 14.8159 20.0069 14.9732 20.201 14.9732H22.9184C23.1273 14.9732 23.2972 15.1431 23.2972 15.352V15.947C23.2972 16.1558 23.1273 16.3257 22.9184 16.3257H22.4652C22.2711 16.3257 22.1138 16.483 22.1138 16.6771C22.1138 16.8712 22.2711 17.0285 22.4652 17.0285H22.9184C23.1273 17.0285 23.2972 17.1984 23.2972 17.4072V18.0022C23.2972 18.2111 23.1273 18.381 22.9184 18.381H22.4652C22.2711 18.381 22.1138 18.5383 22.1138 18.7324C22.1138 18.9265 22.2711 19.0838 22.4652 19.0838H22.9184C23.1273 19.0838 23.2972 19.2537 23.2972 19.4625V20.0575C23.2972 20.2664 23.1273 20.4363 22.9184 20.4363H22.4652C22.2711 20.4363 22.1138 20.5936 22.1138 20.7877C22.1138 20.9818 22.2711 21.1391 22.4652 21.1391H22.9184C23.1273 21.1391 23.2972 21.3089 23.2972 21.5178V22.1128C23.2972 22.3217 23.1273 22.4916 22.9184 22.4916H14.0373C13.6189 22.491 13.2129 22.3493 12.885 22.0894L12.194 21.5402C12.1318 21.4908 12.0547 21.4639 11.9753 21.4639H0.351443C0.157332 21.4639 4.68529e-05 21.6212 4.68529e-05 21.8153C4.68529e-05 22.0094 0.157332 22.1667 0.351443 22.1667H11.8527L12.4477 22.6396C12.9 22.9981 13.4601 23.1936 14.0373 23.1944H22.9185C23.5149 23.1944 24 22.7092 24 22.1128V21.5178C24 21.2366 23.8921 20.9802 23.7156 20.7877C23.8921 20.5951 24 20.3387 24 20.0575V19.4625C24 19.1813 23.8921 18.9249 23.7156 18.7324C23.8921 18.5398 24 18.2834 24 18.0022V17.4072C24 17.1261 23.8921 16.8696 23.7156 16.6771C23.8921 16.4846 24 16.2282 24 15.947L24 15.352ZM0.351396 14.9732H2.82068C3.01479 14.9732 3.17208 14.8159 3.17208 14.6218C3.17208 14.4277 3.01479 14.2704 2.82068 14.2704H0.351396C0.157285 14.2704 0 14.4277 0 14.6218C0 14.8159 0.157285 14.9732 0.351396 14.9732Z" fill="#0596DE"/>
        <path d="M17.5423 12.9781C17.7364 12.9781 17.8937 12.8208 17.8937 12.6267C17.8937 12.4326 17.7364 12.2753 17.5423 12.2753H17.4137C16.8373 12.2753 16.2661 12.4662 15.8056 12.8129L13.8691 14.2704H8.99826C8.80415 14.2704 8.64687 14.4277 8.64687 14.6218C8.64687 14.8159 8.80415 14.9732 8.99826 14.9732H13.9866C14.0628 14.9732 14.137 14.9484 14.1979 14.9025L16.2282 13.3744C16.5677 13.1189 16.9887 12.9781 17.4137 12.9781H17.5423ZM16.7682 16.8255C16.7682 16.2178 16.2738 15.7234 15.6662 15.7234C15.0585 15.7234 14.5641 16.2178 14.5641 16.8255C14.5641 17.4331 15.0585 17.9275 15.6662 17.9275C16.2738 17.9275 16.7682 17.4331 16.7682 16.8255ZM15.2669 16.8255C15.2669 16.6053 15.446 16.4262 15.6661 16.4262C15.8863 16.4262 16.0654 16.6053 16.0654 16.8255C16.0654 17.0456 15.8863 17.2247 15.6661 17.2247C15.446 17.2247 15.2669 17.0456 15.2669 16.8255ZM17.9397 20.0977C17.9397 20.6719 18.4612 21.1391 19.1022 21.1391C19.7432 21.1391 20.2647 20.6719 20.2647 20.0977C20.2647 19.5234 19.7432 19.0562 19.1022 19.0562C18.4612 19.0562 17.9397 19.5234 17.9397 20.0977ZM19.1022 19.759C19.3513 19.759 19.5618 19.9141 19.5618 20.0977C19.5618 20.2812 19.3513 20.4363 19.1022 20.4363C18.853 20.4363 18.6425 20.2812 18.6425 20.0977C18.6425 19.9141 18.853 19.759 19.1022 19.759ZM7.61882 18.6758C7.02098 18.6758 6.5346 19.1622 6.5346 19.76C6.5346 20.3579 7.02098 20.8443 7.61882 20.8443C8.21671 20.8443 8.70309 20.3579 8.70309 19.76C8.70309 19.1622 8.21671 18.6758 7.61882 18.6758ZM7.61882 20.1414C7.40855 20.1414 7.23739 19.9703 7.23739 19.76C7.23739 19.5497 7.4085 19.3786 7.61882 19.3786C7.82914 19.3786 8.0003 19.5497 8.0003 19.76C8.0003 19.9703 7.82919 20.1414 7.61882 20.1414ZM10.3378 17.2247C10.1437 17.2247 9.98639 17.382 9.98639 17.5761C9.98639 17.7702 10.1437 17.9275 10.3378 17.9275H10.6928C10.8869 17.9275 11.0442 17.7702 11.0442 17.5761C11.0442 17.382 10.8869 17.2247 10.6928 17.2247H10.3378ZM14.3841 19.2127C14.19 19.2127 14.0327 19.3699 14.0327 19.564C14.0327 19.7582 14.19 19.9154 14.3841 19.9154H14.8564C15.0505 19.9154 15.2078 19.7582 15.2078 19.564C15.2078 19.3699 15.0505 19.2127 14.8564 19.2127H14.3841ZM2.48047 19.416C2.48047 19.6101 2.63775 19.7674 2.83187 19.7674H3.25766C3.45178 19.7674 3.60906 19.6101 3.60906 19.416C3.60906 19.2219 3.45178 19.0646 3.25766 19.0646H2.83187C2.73867 19.0646 2.64929 19.1016 2.58339 19.1675C2.51749 19.2334 2.48047 19.3228 2.48047 19.416ZM5.90949 17.7585C7.12682 17.7585 8.1172 16.7681 8.1172 15.5508C8.1172 14.7301 7.22366 13.5261 6.47407 12.6606C6.404 12.5796 6.31732 12.5146 6.21992 12.4701C6.12252 12.4255 6.01668 12.4025 5.90958 12.4025H5.90949C5.80238 12.4025 5.69652 12.4255 5.5991 12.4701C5.50169 12.5146 5.41499 12.5796 5.34491 12.6606C4.59531 13.5262 3.70178 14.7303 3.70178 15.5508C3.70178 16.7681 4.69216 17.7585 5.90949 17.7585ZM5.87618 13.1206C5.88498 13.1104 5.89623 13.1053 5.90949 13.1053C5.92275 13.1053 5.93395 13.1104 5.94275 13.1206C6.85053 14.1688 7.4144 15.0999 7.4144 15.5507C7.4144 16.3805 6.7393 17.0556 5.90949 17.0556C5.07968 17.0556 4.40457 16.3805 4.40457 15.5507C4.40457 15.1 4.96845 14.1688 5.87618 13.1206ZM6.15472 11.1886C6.32568 11.1887 6.49409 11.1472 6.6455 11.0678L8.01145 10.3536C8.0187 10.3498 8.02647 10.3472 8.0345 10.3457L8.85696 10.1874C9.74812 10.016 10.6094 9.71523 11.4136 9.2947L16.1182 6.83497L16.1447 6.88571C16.2989 7.1806 16.5587 7.39781 16.8762 7.49733C16.9972 7.5354 17.1233 7.55481 17.2502 7.55491C17.4485 7.55491 17.6452 7.50703 17.8259 7.41253C18.1208 7.25833 18.3381 6.99853 18.4375 6.68101C18.537 6.36349 18.5069 6.0262 18.3527 5.7313L18.1866 5.41364L19.0117 4.98227C19.0415 4.96667 19.0736 4.95583 19.1068 4.95013L20.5574 4.7012C20.622 4.68992 20.6861 4.67543 20.7493 4.65777C20.7938 4.64553 20.8355 4.62464 20.8719 4.59631C20.9083 4.56797 20.9388 4.53274 20.9616 4.49262C20.9844 4.4525 20.9991 4.40828 21.0048 4.36249C21.0105 4.3167 21.0072 4.27023 20.9949 4.22574C20.9827 4.18124 20.9618 4.13959 20.9335 4.10316C20.9052 4.06673 20.8699 4.03625 20.8298 4.01344C20.7897 3.99063 20.7455 3.97595 20.6997 3.97024C20.6539 3.96452 20.6074 3.96788 20.5629 3.98013C20.517 3.99278 20.4764 4.00206 20.4385 4.00853L18.9879 4.25745C18.8825 4.27547 18.7807 4.30989 18.686 4.35945L17.861 4.79078L17.2151 3.55537L18.04 3.12408C18.1347 3.07459 18.2211 3.01054 18.2961 2.93428L19.3284 1.88511C19.6138 1.59504 20.0083 1.46306 20.4109 1.52289C20.8135 1.58281 21.1525 1.82406 21.3411 2.18468C21.5033 2.49508 21.5298 2.84765 21.4155 3.1775C21.3866 3.26516 21.3933 3.36067 21.4342 3.44341C21.4752 3.52614 21.547 3.58946 21.6342 3.61967C21.7214 3.64989 21.817 3.64457 21.9004 3.60488C21.9837 3.56519 22.0481 3.49431 22.0796 3.40754C22.2579 2.89287 22.2169 2.34291 21.9639 1.85906C21.67 1.29701 21.1417 0.921063 20.5144 0.827732C19.8867 0.734355 19.2722 0.940085 18.8274 1.39222L17.7949 2.44153C17.7714 2.46552 17.7442 2.48566 17.7143 2.50122L16.8894 2.9325L16.7234 2.61489C16.5692 2.31995 16.3094 2.10274 15.9918 2.00327C15.6743 1.90371 15.337 1.93383 15.0421 2.08807C14.7472 2.24227 14.53 2.50207 14.4305 2.81959C14.331 3.13711 14.3611 3.4744 14.5153 3.76929L14.5418 3.82004L13.2653 4.48764C13.2242 4.50886 13.1876 4.53801 13.1577 4.57341C13.1279 4.60882 13.1053 4.64978 13.0913 4.69393C13.0773 4.73809 13.0722 4.78457 13.0763 4.83071C13.0803 4.87685 13.0935 4.92174 13.1149 4.96279C13.1364 5.00383 13.1657 5.04023 13.2013 5.06989C13.2369 5.09955 13.278 5.12189 13.3222 5.13561C13.3664 5.14933 13.413 5.15418 13.4591 5.14986C13.5052 5.14554 13.55 5.13215 13.5909 5.11046L14.8677 4.44295L15.7926 6.21216L13.606 7.35541H9.39764C9.64478 7.19143 9.90022 7.0403 10.1629 6.90263L12.2626 5.80486C12.3452 5.76169 12.4072 5.68747 12.4351 5.59854C12.463 5.50961 12.4544 5.41326 12.4112 5.33067C12.3898 5.28977 12.3606 5.25348 12.3252 5.22388C12.2898 5.19427 12.2489 5.17193 12.2049 5.15813C12.1609 5.14433 12.1145 5.13934 12.0686 5.14344C12.0226 5.14755 11.9779 5.16067 11.937 5.18205L9.83735 6.27981C9.03309 6.70019 8.29461 7.2359 7.64534 7.86995L7.04609 8.45496C7.04016 8.46074 7.03342 8.46563 7.02609 8.46948L5.66037 9.18352C5.53642 9.24789 5.42647 9.3362 5.33688 9.44335C5.24729 9.5505 5.17984 9.67435 5.13843 9.80774C5.09631 9.9409 5.08101 10.0811 5.09343 10.2202C5.10585 10.3593 5.14573 10.4946 5.21077 10.6182C5.40048 10.9809 5.77137 11.1886 6.15472 11.1886ZM15.1013 3.02982C15.1225 2.96169 15.1569 2.89844 15.2027 2.84371C15.2484 2.78898 15.3046 2.74387 15.3679 2.71098C15.431 2.67776 15.5001 2.65738 15.5712 2.65104C15.6422 2.64469 15.7138 2.6525 15.7819 2.67402C15.85 2.69517 15.9132 2.72961 15.968 2.77536C16.0227 2.82112 16.0678 2.87726 16.1007 2.94056L17.7299 6.05689C17.7972 6.18545 17.8103 6.33247 17.7669 6.47088C17.7235 6.60928 17.6289 6.72248 17.5004 6.78971C17.3719 6.85694 17.2247 6.87011 17.0864 6.82668C17.0183 6.80554 16.955 6.77109 16.9003 6.72534C16.8456 6.67959 16.8004 6.62344 16.7675 6.56013L15.1383 3.44381C15.1051 3.38067 15.0847 3.31157 15.0784 3.24051C15.072 3.16945 15.0798 3.09784 15.1013 3.02982ZM5.986 9.80638L7.35162 9.09239C7.41963 9.05682 7.48208 9.01152 7.53702 8.95792L8.13631 8.37287C8.24735 8.26445 8.36205 8.1603 8.47852 8.05825H12.2618L11.088 8.67193C10.3445 9.06076 9.54814 9.3388 8.72417 9.49724L7.90191 9.65551C7.82633 9.67004 7.75348 9.69543 7.68563 9.73095L6.31992 10.445C6.1438 10.537 5.92575 10.4687 5.83363 10.2926C5.74157 10.1165 5.80993 9.89845 5.986 9.80638Z" fill="#0596DE"/>
    </g>
    <defs>
        <clipPath id="clip0_2686_20280">
            <rect width="24" height="24" fill="white"/>
        </clipPath>
    </defs>
</svg>
