<svg width="37" height="37" viewBox="0 0 37 37" fill="none" xmlns="http://www.w3.org/2000/svg">
    <path d="M23.0469 4.69873V6.94873C23.0469 9.07005 23.0469 10.1307 23.7058 10.7897C24.3649 11.4487 25.4256 11.4487 27.5469 11.4487H29.7969" stroke="white" stroke-width="2.12637" stroke-linecap="round" stroke-linejoin="round"/>
    <path d="M6.54688 24.9487V12.9487C6.54688 8.70609 6.54688 6.58477 7.8649 5.26675C9.18292 3.94873 11.3042 3.94873 15.5469 3.94873H21.8043C22.4173 3.94873 22.7239 3.94873 22.9996 4.06291C23.2752 4.17709 23.4921 4.39387 23.9256 4.82742L29.6682 10.57C30.1017 11.0036 30.3186 11.2204 30.4327 11.496C30.5469 11.7717 30.5469 12.0783 30.5469 12.6914V24.9487C30.5469 29.1913 30.5469 31.3126 29.2288 32.6307C27.9108 33.9487 25.7895 33.9487 21.5469 33.9487H15.5469C11.3042 33.9487 9.18292 33.9487 7.8649 32.6307C6.54688 31.3126 6.54688 29.1913 6.54688 24.9487Z" stroke="white" stroke-width="2.12637" stroke-linecap="round" stroke-linejoin="round"/>
    <path d="M12.5469 17.449H24.5469M12.5469 21.949H24.5469M12.5469 26.449H18.8031" stroke="white" stroke-width="2.12637" stroke-linecap="round" stroke-linejoin="round"/>
</svg>
