<svg width="37" height="37" viewBox="0 0 37 37" fill="none" xmlns="http://www.w3.org/2000/svg">
    <path d="M30.085 12.093L22.21 4.21798C22.1054 4.11354 21.9813 4.03072 21.8448 3.97426C21.7082 3.9178 21.5618 3.8888 21.4141 3.88892H7.91406C7.31733 3.88892 6.74503 4.12597 6.32307 4.54793C5.90112 4.96988 5.66406 5.54218 5.66406 6.13892V30.8889C5.66406 31.4857 5.90112 32.0579 6.32307 32.4799C6.74503 32.9019 7.31733 33.1389 7.91406 33.1389H28.1641C28.7608 33.1389 29.3331 32.9019 29.7551 32.4799C30.177 32.0579 30.4141 31.4857 30.4141 30.8889V12.8889C30.4142 12.7411 30.3852 12.5948 30.3287 12.4582C30.2723 12.3216 30.1894 12.1975 30.085 12.093ZM22.5391 7.72939L26.5736 11.7639H22.5391V7.72939ZM28.1641 30.8889H7.91406V6.13892H20.2891V12.8889C20.2891 13.1873 20.4076 13.4734 20.6186 13.6844C20.8295 13.8954 21.1157 14.0139 21.4141 14.0139H28.1641V30.8889ZM23.6641 19.6389C23.6641 19.9373 23.5455 20.2234 23.3346 20.4344C23.1236 20.6454 22.8374 20.7639 22.5391 20.7639H13.5391C13.2407 20.7639 12.9545 20.6454 12.7436 20.4344C12.5326 20.2234 12.4141 19.9373 12.4141 19.6389C12.4141 19.3405 12.5326 19.0544 12.7436 18.8434C12.9545 18.6324 13.2407 18.5139 13.5391 18.5139H22.5391C22.8374 18.5139 23.1236 18.6324 23.3346 18.8434C23.5455 19.0544 23.6641 19.3405 23.6641 19.6389ZM23.6641 24.1389C23.6641 24.4373 23.5455 24.7234 23.3346 24.9344C23.1236 25.1454 22.8374 25.2639 22.5391 25.2639H13.5391C13.2407 25.2639 12.9545 25.1454 12.7436 24.9344C12.5326 24.7234 12.4141 24.4373 12.4141 24.1389C12.4141 23.8405 12.5326 23.5544 12.7436 23.3434C12.9545 23.1324 13.2407 23.0139 13.5391 23.0139H22.5391C22.8374 23.0139 23.1236 23.1324 23.3346 23.3434C23.5455 23.5544 23.6641 23.8405 23.6641 24.1389Z" fill="white"/>
</svg>
