<svg width="14" height="13" viewBox="0 0 14 13" fill="none" xmlns="http://www.w3.org/2000/svg">
    <path d="M12.9364 1.56251C12.2571 0.88492 11.3372 0.503877 10.3777 0.502706C9.41827 0.501535 8.49738 0.880331 7.81644 1.55626L6.99894 2.31564L6.18081 1.55376C5.50003 0.87489 4.57746 0.494261 3.61604 0.495609C2.65462 0.496957 1.73312 0.880171 1.05425 1.56095C0.375378 2.24173 -0.00525059 3.1643 -0.00390268 4.12572C-0.00255477 5.08714 0.380659 6.00864 1.06144 6.68751L6.64581 12.3538C6.69234 12.401 6.74779 12.4385 6.80895 12.4641C6.87011 12.4897 6.93576 12.5029 7.00206 12.5029C7.06837 12.5029 7.13401 12.4897 7.19517 12.4641C7.25633 12.4385 7.31179 12.401 7.35831 12.3538L12.9364 6.68751C13.6158 6.00775 13.9974 5.08605 13.9974 4.12501C13.9974 3.16397 13.6158 2.24227 12.9364 1.56251ZM12.2271 5.98501L6.99894 11.2875L1.76769 5.98001C1.27538 5.4877 0.998803 4.81999 0.998803 4.12376C0.998803 3.42753 1.27538 2.75982 1.76769 2.26751C2.25999 1.7752 2.92771 1.49863 3.62394 1.49863C4.32017 1.49863 4.98788 1.7752 5.48019 2.26751L5.49269 2.28001L6.65831 3.36439C6.75084 3.45049 6.87254 3.49836 6.99894 3.49836C7.12533 3.49836 7.24703 3.45049 7.33956 3.36439L8.50519 2.28001L8.51769 2.26751C9.01033 1.77553 9.67823 1.49941 10.3745 1.49988C11.0707 1.50035 11.7382 1.77737 12.2302 2.27001C12.7222 2.76265 12.9983 3.43055 12.9978 4.12678C12.9974 4.82301 12.7203 5.49053 12.2277 5.98251L12.2271 5.98501Z" fill="#454567"/>
</svg>
