<svg width="24" height="25" viewBox="0 0 24 25" fill="none" xmlns="http://www.w3.org/2000/svg">
    <g clip-path="url(#clip0_2392_13475)">
        <rect y="0.5" width="24" height="24" rx="12" fill="white"/>
        <path fill-rule="evenodd" clip-rule="evenodd" d="M0 0.5H14.4V11.7H0V0.5Z" fill="#1A47B8"/>
        <path fill-rule="evenodd" clip-rule="evenodd" d="M14.4 0.5V2.1H33.6V0.5H14.4ZM14.4 3.7V5.3H33.6V3.7H14.4ZM14.4 6.9V8.5H33.6V6.9H14.4ZM14.4 10.1V11.7H33.6V10.1H14.4ZM0 13.3V14.9H33.6V13.3H0ZM0 16.5V18.1H33.6V16.5H0ZM0 19.7V21.3H33.6V19.7H0ZM0 22.9V24.5H33.6V22.9H0Z" fill="#F93939"/>
        <path fill-rule="evenodd" clip-rule="evenodd" d="M1.60156 2.1001V3.7001H3.20156V2.1001H1.60156ZM4.80156 2.1001V3.7001H6.40156V2.1001H4.80156ZM8.00156 2.1001V3.7001H9.60156V2.1001H8.00156ZM11.2016 2.1001V3.7001H12.8016V2.1001H11.2016ZM9.60156 3.7001V5.3001H11.2016V3.7001H9.60156ZM6.40156 3.7001V5.3001H8.00156V3.7001H6.40156ZM3.20156 3.7001V5.3001H4.80156V3.7001H3.20156ZM1.60156 5.3001V6.9001H3.20156V5.3001H1.60156ZM4.80156 5.3001V6.9001H6.40156V5.3001H4.80156ZM8.00156 5.3001V6.9001H9.60156V5.3001H8.00156ZM11.2016 5.3001V6.9001H12.8016V5.3001H11.2016ZM1.60156 8.5001V10.1001H3.20156V8.5001H1.60156ZM4.80156 8.5001V10.1001H6.40156V8.5001H4.80156ZM8.00156 8.5001V10.1001H9.60156V8.5001H8.00156ZM11.2016 8.5001V10.1001H12.8016V8.5001H11.2016ZM9.60156 6.9001V8.5001H11.2016V6.9001H9.60156ZM6.40156 6.9001V8.5001H8.00156V6.9001H6.40156ZM3.20156 6.9001V8.5001H4.80156V6.9001H3.20156Z" fill="white"/>
    </g>
    <defs>
        <clipPath id="clip0_2392_13475">
            <rect y="0.5" width="24" height="24" rx="12" fill="white"/>
        </clipPath>
    </defs>
</svg>
