<svg width="24" height="24" viewBox="0 0 24 24" fill="none" xmlns="http://www.w3.org/2000/svg">
    <g clip-path="url(#clip0_2392_13365)">
        <path d="M23.7135 12.2763C23.7135 11.4605 23.6474 10.6404 23.5063 9.83789H12.1875V14.4589H18.6692C18.4003 15.9492 17.536 17.2676 16.2705 18.1054V21.1037H20.1375C22.4083 19.0137 23.7135 15.9272 23.7135 12.2763Z" fill="#4285F4"/>
        <path d="M12.1883 24.0008C15.4248 24.0008 18.1542 22.9382 20.1428 21.1039L16.2758 18.1055C15.1999 18.8375 13.811 19.252 12.1928 19.252C9.06213 19.252 6.40771 17.1399 5.45529 14.3003H1.46484V17.3912C3.50196 21.4434 7.65114 24.0008 12.1883 24.0008Z" fill="#34A853"/>
        <path d="M5.45004 14.3002C4.94738 12.8099 4.94738 11.196 5.45004 9.70569V6.61475H1.464C-0.238001 10.0055 -0.238001 14.0004 1.464 17.3912L5.45004 14.3002Z" fill="#FBBC04"/>
        <path d="M12.1883 4.74966C13.8992 4.7232 15.5527 5.36697 16.7917 6.54867L20.2177 3.12262C18.0483 1.0855 15.1691 -0.034466 12.1883 0.000808666C7.65114 0.000808666 3.50196 2.55822 1.46484 6.61481L5.45088 9.70575C6.39889 6.86173 9.05771 4.74966 12.1883 4.74966Z" fill="#EA4335"/>
    </g>
    <defs>
        <clipPath id="clip0_2392_13365">
            <rect width="24" height="24" fill="white"/>
        </clipPath>
    </defs>
</svg>
