<svg width="17" height="16" viewBox="0 0 17 16" fill="none" xmlns="http://www.w3.org/2000/svg">
    <mask id="path-1-inside-1_2392_11592" fill="white">
        <path d="M15.8002 9.4C15.7477 9.4394 15.6879 9.46806 15.6243 9.48436C15.5607 9.50065 15.4945 9.50426 15.4295 9.49498C15.3645 9.48569 15.3019 9.46369 15.2454 9.43024C15.1889 9.39678 15.1396 9.35253 15.1002 9.3C14.7988 8.89491 14.4066 8.56624 13.955 8.34045C13.5034 8.11465 13.0051 7.99804 12.5002 8C12.4019 7.99999 12.3057 7.97099 12.2238 7.91663C12.1419 7.86227 12.0778 7.78496 12.0396 7.69438C12.0136 7.63286 12.0002 7.56677 12.0002 7.5C12.0002 7.43323 12.0136 7.36714 12.0396 7.30563C12.0778 7.21504 12.1419 7.13773 12.2238 7.08337C12.3057 7.02901 12.4019 7.00001 12.5002 7C12.7807 6.99998 13.0556 6.92128 13.2937 6.77284C13.5318 6.6244 13.7234 6.41218 13.8469 6.16028C13.9704 5.90837 14.0208 5.62689 13.9923 5.34779C13.9638 5.06869 13.8577 4.80317 13.6859 4.58139C13.5141 4.35961 13.2835 4.19045 13.0204 4.09314C12.7573 3.99582 12.4721 3.97425 12.1973 4.03086C11.9226 4.08748 11.6692 4.22002 11.466 4.41343C11.2627 4.60684 11.1178 4.85336 11.0477 5.125C11.0313 5.18861 11.0025 5.24836 10.963 5.30085C10.9235 5.35333 10.874 5.39752 10.8174 5.43089C10.7608 5.46426 10.6982 5.48616 10.6332 5.49534C10.5681 5.50452 10.5019 5.50079 10.4383 5.48438C10.3747 5.46796 10.315 5.43918 10.2625 5.39967C10.21 5.36016 10.1658 5.3107 10.1324 5.25412C10.0991 5.19753 10.0772 5.13493 10.068 5.06988C10.0588 5.00483 10.0625 4.93861 10.0789 4.875C10.1763 4.49832 10.3602 4.14956 10.6161 3.85647C10.8719 3.56338 11.1926 3.33405 11.5527 3.18672C11.9128 3.03939 12.3023 2.97814 12.6902 3.00783C13.0781 3.03752 13.4538 3.15734 13.7872 3.35776C14.1207 3.55817 14.4028 3.83364 14.6111 4.16226C14.8193 4.49088 14.948 4.86357 14.9869 5.25067C15.0258 5.63778 14.9738 6.02862 14.835 6.39209C14.6963 6.75557 14.4746 7.08164 14.1877 7.34438C14.8676 7.63875 15.4586 8.10588 15.9021 8.69938C15.9415 8.75204 15.9701 8.81195 15.9863 8.87569C16.0025 8.93943 16.006 9.00574 15.9965 9.07082C15.987 9.13591 15.9648 9.19848 15.9311 9.25497C15.8974 9.31145 15.853 9.36074 15.8002 9.4ZM12.4327 13.25C12.4689 13.3069 12.4932 13.3705 12.5041 13.4371C12.515 13.5036 12.5124 13.5717 12.4964 13.6372C12.4803 13.7027 12.4512 13.7643 12.4107 13.8182C12.3703 13.8722 12.3193 13.9174 12.261 13.9511C12.2026 13.9849 12.138 14.0065 12.071 14.0146C12.0041 14.0227 11.9362 14.0172 11.8714 13.9984C11.8067 13.9796 11.7464 13.948 11.6942 13.9053C11.642 13.8626 11.5989 13.8098 11.5677 13.75C11.2527 13.2167 10.8041 12.7747 10.2662 12.4676C9.72827 12.1606 9.11958 11.9991 8.50019 11.9991C7.8808 11.9991 7.2721 12.1606 6.73417 12.4676C6.19624 12.7747 5.74766 13.2167 5.43269 13.75C5.40143 13.8098 5.35841 13.8626 5.30621 13.9053C5.25402 13.948 5.19372 13.9796 5.12896 13.9984C5.06419 14.0172 4.9963 14.0227 4.92936 14.0146C4.86241 14.0065 4.79781 13.9849 4.73943 13.9511C4.68104 13.9174 4.63009 13.8722 4.58963 13.8182C4.54917 13.7643 4.52005 13.7027 4.504 13.6372C4.48796 13.5717 4.48533 13.5036 4.49628 13.4371C4.50722 13.3705 4.53151 13.3069 4.56769 13.25C5.05244 12.4171 5.79156 11.7617 6.67644 11.38C6.17852 10.9988 5.81258 10.4711 5.63006 9.87114C5.44755 9.27119 5.45763 8.62912 5.65889 8.03519C5.86015 7.44126 6.24247 6.92533 6.75211 6.55992C7.26175 6.19451 7.87309 5.998 8.50019 5.998C9.12729 5.998 9.73863 6.19451 10.2483 6.55992C10.7579 6.92533 11.1402 7.44126 11.3415 8.03519C11.5428 8.62912 11.5528 9.27119 11.3703 9.87114C11.1878 10.4711 10.8219 10.9988 10.3239 11.38C11.2088 11.7617 11.9479 12.4171 12.4327 13.25ZM8.50019 11C8.89575 11 9.28243 10.8827 9.61133 10.6629C9.94023 10.4432 10.1966 10.1308 10.3479 9.76537C10.4993 9.39991 10.5389 8.99778 10.4618 8.60982C10.3846 8.22186 10.1941 7.86549 9.9144 7.58579C9.6347 7.30608 9.27833 7.1156 8.89037 7.03843C8.50241 6.96126 8.10028 7.00087 7.73482 7.15224C7.36937 7.30362 7.05701 7.55996 6.83725 7.88886C6.61749 8.21776 6.50019 8.60444 6.50019 9C6.50019 9.53043 6.7109 10.0391 7.08598 10.4142C7.46105 10.7893 7.96976 11 8.50019 11ZM5.00019 7.5C5.00019 7.36739 4.94751 7.24022 4.85374 7.14645C4.75997 7.05268 4.6328 7 4.50019 7C4.21964 6.99998 3.94473 6.92128 3.70667 6.77284C3.46861 6.6244 3.27695 6.41218 3.15346 6.16028C3.02997 5.90837 2.9796 5.62689 3.00806 5.34779C3.03653 5.06869 3.1427 4.80317 3.31451 4.58139C3.48631 4.35961 3.71688 4.19045 3.98 4.09314C4.24313 3.99582 4.52827 3.97425 4.80304 4.03086C5.07782 4.08748 5.3312 4.22002 5.53442 4.41343C5.73765 4.60684 5.88255 4.85336 5.95269 5.125C5.98584 5.25346 6.06867 5.3635 6.18295 5.43089C6.29723 5.49829 6.4336 5.51753 6.56206 5.48438C6.69053 5.45122 6.80056 5.3684 6.86796 5.25412C6.93535 5.13984 6.95459 5.00346 6.92144 4.875C6.82409 4.49832 6.64017 4.14956 6.38432 3.85647C6.12847 3.56338 5.80774 3.33405 5.44766 3.18672C5.08758 3.03939 4.69808 2.97814 4.31016 3.00783C3.92224 3.03752 3.54661 3.15734 3.21314 3.35776C2.87968 3.55817 2.59759 3.83364 2.38933 4.16226C2.18106 4.49088 2.05237 4.86357 2.01348 5.25067C1.9746 5.63778 2.0266 6.02862 2.16534 6.39209C2.30409 6.75557 2.52575 7.08164 2.81269 7.34438C2.13349 7.63903 1.54314 8.10614 1.10019 8.69938C1.02054 8.80546 0.986299 8.93884 1.00499 9.07018C1.02369 9.20151 1.09379 9.32004 1.19988 9.39969C1.30596 9.47934 1.43935 9.51358 1.57068 9.49488C1.70201 9.47619 1.82054 9.40609 1.90019 9.3C2.20156 8.89491 2.59382 8.56624 3.04541 8.34045C3.497 8.11465 3.9953 7.99804 4.50019 8C4.6328 8 4.75997 7.94732 4.85374 7.85355C4.94751 7.75979 5.00019 7.63261 5.00019 7.5Z"/>
    </mask>
    <path d="M15.8002 9.4C15.7477 9.4394 15.6879 9.46806 15.6243 9.48436C15.5607 9.50065 15.4945 9.50426 15.4295 9.49498C15.3645 9.48569 15.3019 9.46369 15.2454 9.43024C15.1889 9.39678 15.1396 9.35253 15.1002 9.3C14.7988 8.89491 14.4066 8.56624 13.955 8.34045C13.5034 8.11465 13.0051 7.99804 12.5002 8C12.4019 7.99999 12.3057 7.97099 12.2238 7.91663C12.1419 7.86227 12.0778 7.78496 12.0396 7.69438C12.0136 7.63286 12.0002 7.56677 12.0002 7.5C12.0002 7.43323 12.0136 7.36714 12.0396 7.30563C12.0778 7.21504 12.1419 7.13773 12.2238 7.08337C12.3057 7.02901 12.4019 7.00001 12.5002 7C12.7807 6.99998 13.0556 6.92128 13.2937 6.77284C13.5318 6.6244 13.7234 6.41218 13.8469 6.16028C13.9704 5.90837 14.0208 5.62689 13.9923 5.34779C13.9638 5.06869 13.8577 4.80317 13.6859 4.58139C13.5141 4.35961 13.2835 4.19045 13.0204 4.09314C12.7573 3.99582 12.4721 3.97425 12.1973 4.03086C11.9226 4.08748 11.6692 4.22002 11.466 4.41343C11.2627 4.60684 11.1178 4.85336 11.0477 5.125C11.0313 5.18861 11.0025 5.24836 10.963 5.30085C10.9235 5.35333 10.874 5.39752 10.8174 5.43089C10.7608 5.46426 10.6982 5.48616 10.6332 5.49534C10.5681 5.50452 10.5019 5.50079 10.4383 5.48438C10.3747 5.46796 10.315 5.43918 10.2625 5.39967C10.21 5.36016 10.1658 5.3107 10.1324 5.25412C10.0991 5.19753 10.0772 5.13493 10.068 5.06988C10.0588 5.00483 10.0625 4.93861 10.0789 4.875C10.1763 4.49832 10.3602 4.14956 10.6161 3.85647C10.8719 3.56338 11.1926 3.33405 11.5527 3.18672C11.9128 3.03939 12.3023 2.97814 12.6902 3.00783C13.0781 3.03752 13.4538 3.15734 13.7872 3.35776C14.1207 3.55817 14.4028 3.83364 14.6111 4.16226C14.8193 4.49088 14.948 4.86357 14.9869 5.25067C15.0258 5.63778 14.9738 6.02862 14.835 6.39209C14.6963 6.75557 14.4746 7.08164 14.1877 7.34438C14.8676 7.63875 15.4586 8.10588 15.9021 8.69938C15.9415 8.75204 15.9701 8.81195 15.9863 8.87569C16.0025 8.93943 16.006 9.00574 15.9965 9.07082C15.987 9.13591 15.9648 9.19848 15.9311 9.25497C15.8974 9.31145 15.853 9.36074 15.8002 9.4ZM12.4327 13.25C12.4689 13.3069 12.4932 13.3705 12.5041 13.4371C12.515 13.5036 12.5124 13.5717 12.4964 13.6372C12.4803 13.7027 12.4512 13.7643 12.4107 13.8182C12.3703 13.8722 12.3193 13.9174 12.261 13.9511C12.2026 13.9849 12.138 14.0065 12.071 14.0146C12.0041 14.0227 11.9362 14.0172 11.8714 13.9984C11.8067 13.9796 11.7464 13.948 11.6942 13.9053C11.642 13.8626 11.5989 13.8098 11.5677 13.75C11.2527 13.2167 10.8041 12.7747 10.2662 12.4676C9.72827 12.1606 9.11958 11.9991 8.50019 11.9991C7.8808 11.9991 7.2721 12.1606 6.73417 12.4676C6.19624 12.7747 5.74766 13.2167 5.43269 13.75C5.40143 13.8098 5.35841 13.8626 5.30621 13.9053C5.25402 13.948 5.19372 13.9796 5.12896 13.9984C5.06419 14.0172 4.9963 14.0227 4.92936 14.0146C4.86241 14.0065 4.79781 13.9849 4.73943 13.9511C4.68104 13.9174 4.63009 13.8722 4.58963 13.8182C4.54917 13.7643 4.52005 13.7027 4.504 13.6372C4.48796 13.5717 4.48533 13.5036 4.49628 13.4371C4.50722 13.3705 4.53151 13.3069 4.56769 13.25C5.05244 12.4171 5.79156 11.7617 6.67644 11.38C6.17852 10.9988 5.81258 10.4711 5.63006 9.87114C5.44755 9.27119 5.45763 8.62912 5.65889 8.03519C5.86015 7.44126 6.24247 6.92533 6.75211 6.55992C7.26175 6.19451 7.87309 5.998 8.50019 5.998C9.12729 5.998 9.73863 6.19451 10.2483 6.55992C10.7579 6.92533 11.1402 7.44126 11.3415 8.03519C11.5428 8.62912 11.5528 9.27119 11.3703 9.87114C11.1878 10.4711 10.8219 10.9988 10.3239 11.38C11.2088 11.7617 11.9479 12.4171 12.4327 13.25ZM8.50019 11C8.89575 11 9.28243 10.8827 9.61133 10.6629C9.94023 10.4432 10.1966 10.1308 10.3479 9.76537C10.4993 9.39991 10.5389 8.99778 10.4618 8.60982C10.3846 8.22186 10.1941 7.86549 9.9144 7.58579C9.6347 7.30608 9.27833 7.1156 8.89037 7.03843C8.50241 6.96126 8.10028 7.00087 7.73482 7.15224C7.36937 7.30362 7.05701 7.55996 6.83725 7.88886C6.61749 8.21776 6.50019 8.60444 6.50019 9C6.50019 9.53043 6.7109 10.0391 7.08598 10.4142C7.46105 10.7893 7.96976 11 8.50019 11ZM5.00019 7.5C5.00019 7.36739 4.94751 7.24022 4.85374 7.14645C4.75997 7.05268 4.6328 7 4.50019 7C4.21964 6.99998 3.94473 6.92128 3.70667 6.77284C3.46861 6.6244 3.27695 6.41218 3.15346 6.16028C3.02997 5.90837 2.9796 5.62689 3.00806 5.34779C3.03653 5.06869 3.1427 4.80317 3.31451 4.58139C3.48631 4.35961 3.71688 4.19045 3.98 4.09314C4.24313 3.99582 4.52827 3.97425 4.80304 4.03086C5.07782 4.08748 5.3312 4.22002 5.53442 4.41343C5.73765 4.60684 5.88255 4.85336 5.95269 5.125C5.98584 5.25346 6.06867 5.3635 6.18295 5.43089C6.29723 5.49829 6.4336 5.51753 6.56206 5.48438C6.69053 5.45122 6.80056 5.3684 6.86796 5.25412C6.93535 5.13984 6.95459 5.00346 6.92144 4.875C6.82409 4.49832 6.64017 4.14956 6.38432 3.85647C6.12847 3.56338 5.80774 3.33405 5.44766 3.18672C5.08758 3.03939 4.69808 2.97814 4.31016 3.00783C3.92224 3.03752 3.54661 3.15734 3.21314 3.35776C2.87968 3.55817 2.59759 3.83364 2.38933 4.16226C2.18106 4.49088 2.05237 4.86357 2.01348 5.25067C1.9746 5.63778 2.0266 6.02862 2.16534 6.39209C2.30409 6.75557 2.52575 7.08164 2.81269 7.34438C2.13349 7.63903 1.54314 8.10614 1.10019 8.69938C1.02054 8.80546 0.986299 8.93884 1.00499 9.07018C1.02369 9.20151 1.09379 9.32004 1.19988 9.39969C1.30596 9.47934 1.43935 9.51358 1.57068 9.49488C1.70201 9.47619 1.82054 9.40609 1.90019 9.3C2.20156 8.89491 2.59382 8.56624 3.04541 8.34045C3.497 8.11465 3.9953 7.99804 4.50019 8C4.6328 8 4.75997 7.94732 4.85374 7.85355C4.94751 7.75979 5.00019 7.63261 5.00019 7.5Z" fill="#0596DE" stroke="#0596DE" stroke-width="0.25" mask="url(#path-1-inside-1_2392_11592)"/>
</svg>
