<svg width="24" height="24" viewBox="0 0 24 24" fill="none" xmlns="http://www.w3.org/2000/svg">
    <g clip-path="url(#clip0_2686_16768)">
        <path d="M11.7812 2.81274H12.4843V3.51587H11.7812V2.81274ZM10.375 2.10962H11.0781V2.81274H10.375V2.10962ZM19.3073 19.5491C19.9375 19.5491 20.5677 19.3093 21.0475 18.8295C22.007 17.8699 22.007 16.3087 21.0475 15.3492C20.5826 14.8844 19.9646 14.6284 19.3073 14.6284C18.65 14.6284 18.032 14.8844 17.5672 15.3492C17.1024 15.814 16.8464 16.432 16.8464 17.0893C16.8464 17.628 17.0185 18.14 17.3363 18.5632L16.3242 19.5752L15.5785 18.8295L15.0812 19.3267L15.827 20.0724L15.0813 20.8182L15.5784 21.3154L16.3242 20.5696L17.07 21.3154L17.5672 20.8182L16.8214 20.0724L17.8338 19.0601C18.2689 19.3858 18.788 19.5491 19.3073 19.5491ZM18.0644 15.8464C18.3963 15.5144 18.8378 15.3316 19.3073 15.3316C19.7769 15.3316 20.2183 15.5144 20.5503 15.8464C21.2357 16.5317 21.2357 17.6469 20.5503 18.3323C19.8649 19.0176 18.7498 19.0176 18.0644 18.3323C17.7324 18.0003 17.5495 17.5589 17.5495 17.0893C17.5495 16.6198 17.7323 16.1784 18.0644 15.8464ZM21.6006 21.7683L22.0956 21.2691L22.5948 21.7641L22.0998 22.2633L21.6006 21.7683Z" fill="#0596DE"/>
        <path d="M18.375 12.3983C15.9355 12.3983 13.854 13.9595 13.0764 16.1352L11.8371 15.4981V14.2889C13.0119 13.5353 13.8209 12.2589 13.933 10.7908H14.298C15.2673 10.7908 16.0558 10.0023 16.0558 9.03301V8.32984C16.0558 7.87154 15.7619 7.48079 15.3527 7.33567V6.32828C15.3527 3.03282 12.6716 0.351807 9.37617 0.351807C7.92745 0.351807 6.52795 0.881213 5.43553 1.84248L5.89997 2.37038C6.864 1.52209 8.09855 1.05493 9.37617 1.05493C12.2839 1.05493 14.6496 3.42057 14.6496 6.32828V7.2752H13.9464V7.27515L8.67342 7.27581H8.67319C8.29969 7.27581 7.94719 7.12899 7.68066 6.86242C7.41403 6.59579 7.26722 6.24306 7.26722 5.86932V4.11151H6.56409V5.54668C5.68209 5.69528 4.98455 6.39324 4.83577 7.2752H4.10273V6.32828C4.10273 5.05074 4.56994 3.8162 5.41819 2.85207L4.89028 2.38763C3.92897 3.48024 3.39956 4.8797 3.39956 6.32828V7.33567C2.99039 7.48079 2.69644 7.87154 2.69644 8.32984V9.03301C2.69644 9.6114 2.97731 10.1252 3.40969 10.4458C2.82567 11.9618 2.47772 12.99 2.49998 13.9961C2.52216 14.9982 2.91272 15.9136 3.83123 17.0836C3.83123 17.0836 2.74317 17.6413 2.61366 17.7063C1.32877 18.3511 0 19.0178 0 20.6344V23.6483H18.375C19.4835 23.6483 20.5562 23.3259 21.477 22.7159L21.0888 22.1297C20.2834 22.6632 19.3451 22.9451 18.375 22.9451C15.6611 22.9451 13.4531 20.7372 13.4531 18.0233C13.4531 15.3093 15.6611 13.1014 18.375 13.1014C21.0889 13.1014 23.2969 15.3093 23.2969 18.0233C23.2969 18.9931 23.0149 19.9315 22.4814 20.7371L23.0676 21.1254C23.6776 20.2044 24 19.1317 24 18.0233C24 14.9217 21.4766 12.3983 18.375 12.3983ZM6.32761 13.841C6.51115 14.0058 6.70766 14.1556 6.91523 14.2889V15.4981L5.74209 16.1012C6.1867 15.4092 6.3975 14.7081 6.32761 13.841ZM7.61831 20.5501C7.65795 20.579 7.69859 20.6066 7.74014 20.6327C8.17772 20.905 8.75869 21.055 9.37603 21.055C9.99347 21.055 10.5744 20.905 11.012 20.6327C11.0536 20.6065 11.0943 20.579 11.1339 20.5501V22.9452H7.61831V20.5501ZM11.1339 19.2265C11.1339 19.7685 10.5839 20.3518 9.37603 20.3518C8.16834 20.3518 7.61831 19.7685 7.61831 19.2265V14.6577C8.15972 14.8842 8.75353 15.0095 9.37613 15.0095C9.99872 15.0095 10.5925 14.8841 11.1339 14.6577V19.2265ZM15.0011 7.97832C15.195 7.97832 15.3526 8.13601 15.3526 8.32984V9.03301C15.3526 9.61454 14.8795 10.0877 14.298 10.0877H13.9464V7.97832H15.0011ZM5.50903 7.62681C5.50913 6.95996 5.97567 6.40009 6.59953 6.25632C6.67664 6.67103 6.87731 7.05343 7.18336 7.35953C7.58278 7.75895 8.11176 7.97898 8.67314 7.97893H8.67347L13.2433 7.97837V10.4393C13.2433 12.5716 11.5085 14.3064 9.37613 14.3064C7.24378 14.3064 5.50898 12.5716 5.50898 10.4393L5.50903 7.62681ZM3.39961 8.32984C3.39961 8.13601 3.5573 7.97832 3.75117 7.97832H4.80591L4.80586 10.0877H4.4543C3.87277 10.0877 3.39961 9.61454 3.39961 9.03301V8.32984ZM4.04878 10.7431C4.18165 10.7747 4.31776 10.7908 4.45434 10.7909H4.81931C4.8648 11.3886 5.02831 11.9714 5.30039 12.5056C6.00338 14.497 5.56397 15.4161 4.39805 16.6668C3.5723 15.6189 3.22172 14.8228 3.20306 13.9806C3.18375 13.109 3.50611 12.1538 4.04878 10.7431ZM0.703125 20.6344C0.703125 19.4516 1.73466 18.9341 2.92903 18.3348C3.06066 18.2687 6.91519 16.2887 6.91519 16.2887V22.9452H0.703125V20.6344ZM15.6545 22.9452H11.8371V16.2887L12.879 16.8243C12.7932 17.2182 12.7499 17.6202 12.75 18.0233C12.75 20.1387 13.924 21.9849 15.6545 22.9452Z" fill="#0596DE"/>
    </g>
    <defs>
        <clipPath id="clip0_2686_16768">
            <rect width="24" height="24" fill="white"/>
        </clipPath>
    </defs>
</svg>
