<svg width="24" height="24" viewBox="0 0 24 24" fill="none" xmlns="http://www.w3.org/2000/svg">
    <path d="M18.8828 5.16835L18.8829 5.16846C19.7767 6.06667 20.4846 7.13243 20.9659 8.30466C21.4471 9.4769 21.6924 10.7326 21.6875 11.9998V12V19.5C21.6875 20.478 21.299 21.4159 20.6075 22.1075C19.9159 22.799 18.978 23.1875 18 23.1875H12.75C12.5677 23.1875 12.3928 23.1151 12.2639 22.9861C12.1349 22.8572 12.0625 22.6823 12.0625 22.5C12.0625 22.3177 12.1349 22.1428 12.2639 22.0139C12.3928 21.8849 12.5677 21.8125 12.75 21.8125H18C18.6133 21.8125 19.2015 21.5689 19.6352 21.1352C20.0689 20.7015 20.3125 20.1133 20.3125 19.5V19.4375H20.25H18C17.4198 19.4375 16.8634 19.207 16.4532 18.7968C16.043 18.3866 15.8125 17.8302 15.8125 17.25V13.5C15.8125 12.9198 16.043 12.3634 16.4532 11.9532C16.8634 11.543 17.4198 11.3125 18 11.3125H20.2172H20.2854L20.2795 11.2446C20.1119 9.31661 19.2724 7.50877 17.9074 6.13686L17.9074 6.13683C16.7907 5.0157 15.3776 4.23608 13.8337 3.88937C12.2898 3.54265 10.679 3.6432 9.19023 4.17922C7.70142 4.71525 6.39624 5.66454 5.42766 6.91584C4.45909 8.16714 3.86725 9.6686 3.72152 11.2442L3.7152 11.3125H3.78375H6C6.58016 11.3125 7.13656 11.543 7.5468 11.9532C7.95703 12.3634 8.1875 12.9198 8.1875 13.5V17.25C8.1875 17.8302 7.95703 18.3866 7.5468 18.7968C7.13656 19.207 6.58016 19.4375 6 19.4375H4.5C3.91984 19.4375 3.36344 19.207 2.9532 18.7968C2.54297 18.3866 2.3125 17.8302 2.3125 17.25V12C2.3125 9.43072 3.33314 6.96666 5.1499 5.1499C6.96666 3.33314 9.43072 2.3125 12 2.3125H12.0739C13.3409 2.31743 14.5944 2.5722 15.7627 3.06224C16.9311 3.55228 17.9914 4.26798 18.8828 5.16835ZM3.75 12.6875H3.6875V12.75V17.25C3.6875 17.4655 3.7731 17.6722 3.92548 17.8245C4.07785 17.9769 4.28451 18.0625 4.5 18.0625H6C6.21549 18.0625 6.42215 17.9769 6.57452 17.8245C6.7269 17.6722 6.8125 17.4655 6.8125 17.25V13.5C6.8125 13.2845 6.7269 13.0778 6.57452 12.9255C6.42215 12.7731 6.21549 12.6875 6 12.6875H3.75ZM20.3125 12.75V12.6875H20.25H18C17.7845 12.6875 17.5779 12.7731 17.4255 12.9255C17.2731 13.0778 17.1875 13.2845 17.1875 13.5V17.25C17.1875 17.4655 17.2731 17.6722 17.4255 17.8245C17.5779 17.9769 17.7845 18.0625 18 18.0625H20.25H20.3125V18V12.75Z" fill="#0596DE" stroke="#0596DE" stroke-width="0.125"/>
</svg>
