<svg width="18" height="16" viewBox="0 0 18 16" fill="none" xmlns="http://www.w3.org/2000/svg">
    <path d="M3.9043 4.23452L3.89226 4.18752H3.84375H0.75C0.567664 4.18752 0.392796 4.11509 0.263864 3.98616C0.134933 3.85723 0.0625 3.68236 0.0625 3.50002C0.0625 3.31769 0.134933 3.14282 0.263864 3.01389C0.392795 2.88496 0.567664 2.81252 0.75 2.81252H3.84375H3.89226L3.9043 2.76553C4.06608 2.13366 4.43356 1.57361 4.94881 1.17367C5.46405 0.773723 6.09775 0.556641 6.75 0.556641C7.40225 0.556641 8.03595 0.773723 8.55119 1.17367C9.06644 1.57361 9.43392 2.13366 9.5957 2.76553L9.60774 2.81252H9.65625H17.25C17.4323 2.81252 17.6072 2.88496 17.7361 3.01389C17.8651 3.14282 17.9375 3.31769 17.9375 3.50002C17.9375 3.68236 17.8651 3.85723 17.7361 3.98616C17.6072 4.11509 17.4323 4.18752 17.25 4.18752H9.65625H9.60774L9.5957 4.23452C9.43392 4.86639 9.06644 5.42644 8.55119 5.82638C8.03595 6.22632 7.40225 6.44341 6.75 6.44341C6.09775 6.44341 5.46405 6.22632 4.94881 5.82638C4.43356 5.42644 4.06608 4.86639 3.9043 4.23452ZM15.5957 11.7655L15.6077 11.8125H15.6562H17.25C17.4323 11.8125 17.6072 11.885 17.7361 12.0139C17.8651 12.1428 17.9375 12.3177 17.9375 12.5C17.9375 12.6824 17.8651 12.8572 17.7361 12.9862C17.6072 13.1151 17.4323 13.1875 17.25 13.1875H15.6562H15.6077L15.5957 13.2345C15.4339 13.8664 15.0664 14.4264 14.5512 14.8264C14.0359 15.2263 13.4023 15.4434 12.75 15.4434C12.0977 15.4434 11.4641 15.2263 10.9488 14.8264C10.4336 14.4264 10.0661 13.8664 9.9043 13.2345L9.89226 13.1875H9.84375H0.75C0.567663 13.1875 0.392795 13.1151 0.263864 12.9862C0.134933 12.8572 0.0625 12.6824 0.0625 12.5C0.0625 12.3177 0.134933 12.1428 0.263864 12.0139C0.392795 11.885 0.567663 11.8125 0.75 11.8125H9.84375H9.89226L9.9043 11.7655C10.0661 11.1337 10.4336 10.5736 10.9488 10.1737C11.4641 9.77372 12.0977 9.55664 12.75 9.55664C13.4023 9.55664 14.0359 9.77372 14.5512 10.1737C15.0664 10.5736 15.4339 11.1337 15.5957 11.7655ZM7.61808 2.20085C7.36113 2.02916 7.05903 1.93752 6.75 1.93752C6.3356 1.93752 5.93817 2.10214 5.64515 2.39517C5.35212 2.68819 5.1875 3.08562 5.1875 3.50002C5.1875 3.80906 5.27914 4.11115 5.45083 4.3681C5.62252 4.62505 5.86655 4.82532 6.15206 4.94359C6.43757 5.06185 6.75173 5.09279 7.05483 5.0325C7.35792 4.97221 7.63633 4.8234 7.85485 4.60488C8.07337 4.38636 8.22219 4.10795 8.28248 3.80485C8.34277 3.50176 8.31182 3.18759 8.19356 2.90208C8.0753 2.61657 7.87503 2.37254 7.61808 2.20085ZM11.8819 13.7992C12.1389 13.9709 12.441 14.0625 12.75 14.0625C13.1644 14.0625 13.5618 13.8979 13.8549 13.6049C14.1479 13.3119 14.3125 12.9144 14.3125 12.5C14.3125 12.191 14.2209 11.8889 14.0492 11.6319C13.8775 11.375 13.6335 11.1747 13.3479 11.0565C13.0624 10.9382 12.7483 10.9073 12.4452 10.9675C12.1421 11.0278 11.8637 11.1767 11.6451 11.3952C11.4266 11.6137 11.2778 11.8921 11.2175 12.1952C11.1572 12.4983 11.1882 12.8125 11.3064 13.098C11.4247 13.3835 11.625 13.6275 11.8819 13.7992Z" fill="white" stroke="white" stroke-width="0.125"/>
</svg>
