<svg width="16" height="16" viewBox="0 0 16 16" fill="none" xmlns="http://www.w3.org/2000/svg">
    <path d="M1.56252 14.0004V14V4C1.56252 3.75136 1.66129 3.5129 1.8371 3.33709C2.01292 3.16127 2.25138 3.0625 2.50002 3.0625H13.5C13.7487 3.0625 13.9871 3.16127 14.1629 3.33709C14.3387 3.5129 14.4375 3.75136 14.4375 4V12C14.4375 12.2486 14.3387 12.4871 14.1629 12.6629C13.9871 12.8387 13.7487 12.9375 13.5 12.9375H5.15627H5.13278L5.11511 12.953L3.10761 14.7098L3.10737 14.7096L3.10552 14.7116L3.10018 14.7161C2.93256 14.8585 2.71993 14.9369 2.5 14.9375C2.36314 14.9372 2.22797 14.9072 2.10384 14.8496L2.10358 14.8494C1.94127 14.775 1.80388 14.6553 1.70791 14.5046C1.61194 14.354 1.56146 14.179 1.56252 14.0004ZM13.5 12.0625H13.5625V12V4V3.9375H13.5H2.50002H2.43752V4V14V14.138L2.54123 14.047L4.54623 12.2882L4.54624 12.2882L4.54725 12.2873L4.55374 12.2814C4.7226 12.1399 4.93591 12.0624 5.15624 12.0625H5.15627H13.5ZM5.56252 7C5.56252 6.88397 5.60861 6.77269 5.69066 6.69064C5.77271 6.60859 5.88399 6.5625 6.00002 6.5625H10C10.116 6.5625 10.2273 6.60859 10.3094 6.69064C10.3914 6.77269 10.4375 6.88397 10.4375 7C10.4375 7.11603 10.3914 7.22731 10.3094 7.30936C10.2273 7.39141 10.116 7.4375 10 7.4375H6.00002C5.88399 7.4375 5.77271 7.39141 5.69066 7.30936C5.60861 7.22731 5.56252 7.11603 5.56252 7ZM5.56252 9C5.56252 8.88397 5.60861 8.77269 5.69066 8.69064C5.77271 8.60859 5.88399 8.5625 6.00002 8.5625H10C10.116 8.5625 10.2273 8.60859 10.3094 8.69064C10.3914 8.77269 10.4375 8.88397 10.4375 9C10.4375 9.11603 10.3914 9.22731 10.3094 9.30936C10.2273 9.39141 10.116 9.4375 10 9.4375H6.00002C5.88399 9.4375 5.77271 9.39141 5.69066 9.30936C5.60861 9.22731 5.56252 9.11603 5.56252 9Z" fill="#0596DE" stroke="#0596DE" stroke-width="0.125"/>
</svg>
