<svg width="24" height="24" viewBox="0 0 24 24" fill="none" xmlns="http://www.w3.org/2000/svg">
    <path d="M12.7437 19.4003L12.6875 19.406V19.4625V21.75C12.6875 21.9323 12.6151 22.1072 12.4861 22.2361C12.3572 22.3651 12.1823 22.4375 12 22.4375C11.8177 22.4375 11.6428 22.3651 11.5139 22.2361C11.3849 22.1072 11.3125 21.9323 11.3125 21.75V19.4625V19.406L11.2563 19.4003C9.42263 19.2137 7.72326 18.3538 6.48683 16.9869C5.2504 15.6199 4.56476 13.8431 4.5625 11.9999L4.5 12H4.5625C4.5625 11.8177 4.63493 11.6428 4.76386 11.5139C4.8928 11.3849 5.06766 11.3125 5.25 11.3125C5.43234 11.3125 5.6072 11.3849 5.73614 11.5139C5.86507 11.6428 5.9375 11.8177 5.9375 12C5.9375 13.6079 6.57623 15.1499 7.71316 16.2868C8.8501 17.4238 10.3921 18.0625 12 18.0625C13.6079 18.0625 15.1499 17.4238 16.2868 16.2868C17.4238 15.1499 18.0625 13.6079 18.0625 12C18.0625 11.8177 18.1349 11.6428 18.2639 11.5139C18.3928 11.3849 18.5677 11.3125 18.75 11.3125C18.9323 11.3125 19.1072 11.3849 19.2361 11.5139C19.3651 11.6428 19.4375 11.8176 19.4375 11.9999C19.4352 13.8431 18.7496 15.6199 17.5132 16.9869C16.2767 18.3538 14.5774 19.2137 12.7437 19.4003ZM15.1364 15.1364C14.3045 15.9683 13.1765 16.4363 12 16.4375C10.8235 16.4363 9.69551 15.9683 8.86358 15.1364C8.03164 14.3045 7.56372 13.1765 7.5625 11.9999V6C7.5625 4.8231 8.03002 3.69441 8.86221 2.86221C9.69441 2.03002 10.8231 1.5625 12 1.5625C13.1769 1.5625 14.3056 2.03002 15.1378 2.86221C15.97 3.69441 16.4375 4.8231 16.4375 6V11.9999C16.4363 13.1765 15.9684 14.3045 15.1364 15.1364ZM9.83449 3.83449C9.26016 4.40882 8.9375 5.18777 8.9375 6V12C8.9375 12.8122 9.26016 13.5912 9.83449 14.1655C10.4088 14.7398 11.1878 15.0625 12 15.0625C12.8122 15.0625 13.5912 14.7398 14.1655 14.1655C14.7398 13.5912 15.0625 12.8122 15.0625 12V6C15.0625 5.18777 14.7398 4.40882 14.1655 3.83449C13.5912 3.26016 12.8122 2.9375 12 2.9375C11.1878 2.9375 10.4088 3.26016 9.83449 3.83449Z" fill="white" stroke="white" stroke-width="0.125"/>
</svg>
