<svg width="24" height="24" viewBox="0 0 24 24" fill="none" xmlns="http://www.w3.org/2000/svg">
    <g clip-path="url(#clip0_2686_19603)">
        <path d="M21.7336 9.17182C22.0842 8.44918 22.148 7.62049 21.912 6.85272C21.6759 6.08495 21.1577 5.43517 20.4616 5.0343C20.4598 4.86895 20.4438 4.70406 20.4136 4.54146C20.3172 4.03358 20.0886 3.56009 19.7508 3.16877C19.413 2.77744 18.978 2.48211 18.4897 2.31255C18.2512 1.66028 17.8252 1.09306 17.2653 0.682236C16.7053 0.271413 16.0364 0.0353254 15.3427 0.00366283C14.6489 -0.0279997 13.9612 0.146176 13.3662 0.504287C12.7712 0.862399 12.2953 1.38846 11.9984 2.0163C11.7015 1.38846 11.2257 0.862403 10.6306 0.504296C10.0356 0.146188 9.34793 -0.0279832 8.65416 0.00368443C7.96039 0.035352 7.29147 0.271445 6.73152 0.682272C6.17157 1.0931 5.7456 1.66032 5.50717 2.3126C5.01881 2.48216 4.5838 2.77749 4.24601 3.16882C3.90822 3.56014 3.67959 4.03362 3.58318 4.54151C3.55305 4.70409 3.53699 4.86896 3.53518 5.0343C2.83915 5.43517 2.32091 6.08494 2.08489 6.8527C1.84887 7.62046 1.91262 8.44914 2.26328 9.17177C1.72478 9.42267 1.2691 9.8221 0.949824 10.3231C0.630547 10.8241 0.460938 11.4058 0.460938 11.9999C0.460937 12.594 0.630547 13.1757 0.949824 13.6767C1.2691 14.1777 1.72478 14.5771 2.26328 14.828C1.91259 15.5507 1.84884 16.3794 2.08485 17.1471C2.32087 17.9149 2.83913 18.5647 3.53518 18.9656C3.53699 19.1309 3.55305 19.2958 3.58318 19.4584C3.67959 19.9663 3.90822 20.4398 4.24601 20.8311C4.5838 21.2224 5.01881 21.5178 5.50717 21.6873C5.74561 22.3396 6.1716 22.9068 6.73156 23.3176C7.29151 23.7285 7.96044 23.9645 8.65421 23.9962C9.34798 24.0278 10.0356 23.8537 10.6307 23.4955C11.2257 23.1374 11.7016 22.6114 11.9984 21.9835C12.2854 22.5853 12.7365 23.0938 13.2997 23.4505C13.863 23.8073 14.5155 23.9977 15.1822 23.9999C15.2452 23.9999 15.3088 23.9982 15.3722 23.9948C16.0599 23.9551 16.7212 23.7157 17.2749 23.3058C17.8286 22.896 18.2508 22.3335 18.4897 21.6873C18.978 21.5178 19.413 21.2224 19.7508 20.8311C20.0886 20.4398 20.3172 19.9663 20.4136 19.4584C20.4438 19.2958 20.4598 19.1309 20.4616 18.9656C21.1577 18.5647 21.6759 17.9149 21.9119 17.1472C22.148 16.3794 22.0842 15.5507 21.7336 14.8281C22.2721 14.5772 22.7277 14.1778 23.047 13.6768C23.3663 13.1758 23.5359 12.5941 23.5359 12C23.5359 11.4059 23.3663 10.8242 23.047 10.3232C22.7277 9.82218 22.2721 9.42271 21.7336 9.17182ZM8.65515 23.433C8.13992 23.4032 7.64128 23.24 7.20815 22.9594C6.77501 22.6788 6.42225 22.2904 6.18446 21.8323C6.27212 21.8403 6.35982 21.8445 6.44734 21.8445C6.86523 21.8447 7.27835 21.7557 7.65917 21.5837C8.03999 21.4116 8.37977 21.1603 8.65585 20.8466C8.70496 20.7905 8.72974 20.7171 8.72474 20.6426C8.71974 20.5682 8.68538 20.4988 8.6292 20.4497C8.57303 20.4006 8.49965 20.3758 8.42521 20.3808C8.35076 20.3858 8.28135 20.4202 8.23224 20.4763C8.01416 20.7259 7.74592 20.9268 7.44501 21.0658C7.1441 21.2048 6.81728 21.2789 6.48585 21.2831C6.15441 21.2874 5.8258 21.2217 5.52142 21.0905C5.21705 20.9592 4.94375 20.7653 4.71933 20.5214C4.49491 20.2775 4.32441 19.989 4.21894 19.6747C4.11347 19.3605 4.0754 19.0276 4.1072 18.6976C4.13901 18.3677 4.23999 18.0482 4.40354 17.7599C4.5671 17.4716 4.78957 17.221 5.05646 17.0244C5.11652 16.9802 5.15655 16.9139 5.16773 16.8401C5.17892 16.7664 5.16035 16.6912 5.11611 16.6312C5.07187 16.5711 5.00559 16.5311 4.93184 16.5199C4.85809 16.5087 4.78291 16.5273 4.72285 16.5715C4.14335 17.0011 3.74229 17.629 3.59621 18.3354C3.17441 18.0328 2.85238 17.6114 2.67127 17.1249C2.49016 16.6384 2.4582 16.109 2.57945 15.6042C2.70071 15.0995 2.96969 14.6423 3.35202 14.2912C3.73435 13.9401 4.21268 13.7109 4.7259 13.633C4.76267 13.6277 4.79803 13.6152 4.82994 13.5962C4.86186 13.5772 4.88969 13.5521 4.91184 13.5222C4.93398 13.4924 4.95 13.4585 4.95897 13.4225C4.96794 13.3864 4.96969 13.349 4.9641 13.3122C4.95851 13.2755 4.94571 13.2403 4.92642 13.2085C4.90714 13.1768 4.88176 13.1492 4.85174 13.1273C4.82173 13.1054 4.78768 13.0897 4.75156 13.081C4.71544 13.0724 4.67796 13.071 4.64129 13.0769C4.22712 13.1394 3.82948 13.2834 3.47141 13.5007C3.11334 13.7181 2.80197 14.0043 2.55535 14.3428C2.09999 14.1434 1.71262 13.8155 1.44061 13.3994C1.1686 12.9833 1.02374 12.4969 1.02374 11.9997C1.02374 11.5026 1.1686 11.0162 1.44061 10.6001C1.71262 10.184 2.09999 9.85613 2.55535 9.65665C2.80199 9.99523 3.1134 10.2815 3.47151 10.4988C3.82962 10.7161 4.22731 10.8602 4.64153 10.9226C4.67819 10.9285 4.71567 10.9271 4.75179 10.9184C4.78791 10.9098 4.82196 10.8941 4.85198 10.8722C4.88199 10.8503 4.90737 10.8227 4.92666 10.791C4.94594 10.7592 4.95875 10.724 4.96433 10.6872C4.96992 10.6505 4.96818 10.6131 4.95921 10.577C4.95024 10.541 4.93422 10.5071 4.91207 10.4772C4.88993 10.4474 4.86209 10.4223 4.83018 10.4033C4.79826 10.3843 4.7629 10.3718 4.72613 10.3665C4.2129 10.2886 3.73455 10.0594 3.35221 9.7083C2.96986 9.35717 2.70087 8.90002 2.57961 8.39527C2.45835 7.89051 2.49033 7.36107 2.67145 6.87457C2.85257 6.38808 3.17462 5.96663 3.59645 5.66407C3.74249 6.37049 4.14353 6.9984 4.72304 7.42798C4.75278 7.44988 4.78654 7.46571 4.8224 7.47457C4.85825 7.48343 4.89551 7.48514 4.93202 7.4796C4.96854 7.47406 5.00361 7.46138 5.03523 7.44229C5.06685 7.4232 5.09439 7.39807 5.1163 7.36833C5.1382 7.33859 5.15404 7.30483 5.16289 7.26897C5.17175 7.23311 5.17346 7.19586 5.16792 7.15934C5.16238 7.12283 5.1497 7.08776 5.13061 7.05614C5.11152 7.02452 5.08639 6.99697 5.05665 6.97507C4.78976 6.7785 4.56729 6.5279 4.40373 6.2396C4.24017 5.9513 4.1392 5.63177 4.10739 5.30184C4.07558 4.9719 4.11365 4.63897 4.21912 4.32473C4.32459 4.0105 4.49509 3.72201 4.71952 3.47808C4.94394 3.23414 5.21724 3.04024 5.52161 2.90899C5.82598 2.77775 6.1546 2.71211 6.48603 2.71637C6.81747 2.72062 7.14429 2.79466 7.4452 2.93367C7.74611 3.07268 8.01434 3.27354 8.23243 3.52315C8.28159 3.57904 8.35089 3.61316 8.42516 3.61805C8.49943 3.62293 8.57261 3.59818 8.62866 3.54921C8.68471 3.50024 8.71907 3.43105 8.7242 3.3568C8.72933 3.28254 8.70482 3.20928 8.65604 3.15307C8.35058 2.80609 7.96762 2.53599 7.53825 2.36469C7.10887 2.19339 6.64517 2.12571 6.18474 2.16715C6.46567 1.62146 6.90934 1.17665 7.45429 0.894305C7.99925 0.611964 8.61851 0.506075 9.22632 0.591304C9.83412 0.676533 10.4004 0.948662 10.8467 1.37C11.2929 1.79134 11.5972 2.34102 11.7172 2.94293V7.22337H10.55L9.66362 5.68816C9.82842 5.5244 9.9289 5.30688 9.94674 5.07523C9.96457 4.84358 9.89858 4.61324 9.76079 4.42618C9.623 4.23911 9.42258 4.10779 9.19607 4.05614C8.96955 4.00448 8.73201 4.03594 8.52675 4.14477C8.32148 4.25361 8.16216 4.43257 8.07781 4.64905C7.99346 4.86553 7.9897 5.10511 8.06721 5.32413C8.14473 5.54315 8.29836 5.72702 8.50011 5.84224C8.70186 5.95746 8.9383 5.99636 9.16632 5.95184L10.1438 7.64524C10.1685 7.68802 10.204 7.72354 10.2468 7.74823C10.2896 7.77292 10.3382 7.7859 10.3876 7.78587H11.7172V9.6154H9.68631L7.98971 7.96212C8.12608 7.77425 8.19051 7.54368 8.17126 7.31234C8.15202 7.08099 8.05039 6.86424 7.88486 6.70148C7.71932 6.53873 7.50087 6.44079 7.26924 6.42547C7.0376 6.41015 6.80816 6.47847 6.62263 6.61801C6.4371 6.75755 6.30781 6.95903 6.25827 7.18583C6.20873 7.41262 6.24223 7.64967 6.35268 7.85386C6.46312 8.05804 6.64318 8.21581 6.8601 8.29848C7.07703 8.38114 7.31642 8.38321 7.53474 8.3043L9.37562 10.0982C9.42815 10.1493 9.49858 10.1779 9.57188 10.1779H11.7172V11.7187H6.97234C6.90493 11.4976 6.76035 11.308 6.56492 11.1845C6.36949 11.0611 6.13622 11.0119 5.90758 11.046C5.67894 11.08 5.47014 11.1951 5.31921 11.3702C5.16828 11.5453 5.08525 11.7688 5.08525 11.9999C5.08525 12.2311 5.16828 12.4546 5.31921 12.6297C5.47014 12.8048 5.67894 12.9198 5.90758 12.9539C6.13622 12.988 6.36949 12.9388 6.56492 12.8153C6.76035 12.6918 6.90493 12.5023 6.97234 12.2812H11.7172V13.8217H9.57188C9.49858 13.8217 9.42815 13.8503 9.37562 13.9014L7.53474 15.6953C7.31683 15.6166 7.07791 15.6187 6.86141 15.7012C6.64491 15.7837 6.4652 15.9412 6.35495 16.1449C6.2447 16.3487 6.21124 16.5853 6.26064 16.8117C6.31004 17.038 6.43903 17.2391 6.62415 17.3785C6.80928 17.5178 7.03825 17.5861 7.26944 17.5709C7.50063 17.5557 7.7187 17.458 7.884 17.2957C8.04929 17.1333 8.15085 16.917 8.1702 16.6861C8.18954 16.4553 8.1254 16.2251 7.98943 16.0375L9.68602 14.3842H11.7172V16.214H10.3874C10.338 16.214 10.2894 16.2269 10.2466 16.2516C10.2039 16.2763 10.1683 16.3118 10.1436 16.3546L9.1659 18.048C8.93878 18.0039 8.70338 18.0429 8.50257 18.1578C8.30177 18.2727 8.14891 18.4559 8.07184 18.6741C7.99478 18.8922 7.99862 19.1308 8.08268 19.3464C8.16674 19.5619 8.32542 19.7401 8.52983 19.8485C8.73423 19.9569 8.97077 19.9882 9.19635 19.9368C9.42194 19.8855 9.62157 19.7548 9.75889 19.5686C9.89621 19.3824 9.96209 19.1531 9.94452 18.9224C9.92696 18.6917 9.82712 18.475 9.6632 18.3117L10.55 16.7765H11.7172V21.0571C11.5756 21.7541 11.1888 22.3771 10.6269 22.8131C10.065 23.2491 9.36541 23.469 8.65515 23.433ZM8.98299 5.40752C8.90347 5.40753 8.82573 5.38396 8.75961 5.33979C8.69349 5.29561 8.64195 5.23282 8.61151 5.15935C8.58108 5.08589 8.57311 5.00505 8.58862 4.92705C8.60413 4.84906 8.64243 4.77742 8.69866 4.72119C8.75489 4.66496 8.82653 4.62666 8.90452 4.61115C8.98252 4.59564 9.06336 4.60361 9.13683 4.63404C9.21029 4.66448 9.27308 4.71602 9.31726 4.78214C9.36143 4.84826 9.385 4.926 9.38499 5.00552C9.38488 5.11211 9.34249 5.21429 9.26713 5.28966C9.19176 5.36502 9.08958 5.40741 8.98299 5.40752ZM7.20953 7.79955C7.13002 7.79955 7.05229 7.77598 6.98619 7.7318C6.92008 7.68763 6.86855 7.62485 6.83812 7.55139C6.8077 7.47794 6.79974 7.39711 6.81525 7.31913C6.83076 7.24115 6.86905 7.16952 6.92527 7.1133C6.98149 7.05708 7.05312 7.01879 7.1311 7.00328C7.20908 6.98777 7.28991 6.99573 7.36336 7.02615C7.43682 7.05658 7.4996 7.10811 7.54378 7.17421C7.58795 7.24032 7.61152 7.31805 7.61152 7.39755C7.61141 7.50414 7.56902 7.60632 7.49366 7.68169C7.41829 7.75705 7.31611 7.79944 7.20953 7.79955ZM6.45193 11.9999C6.45194 12.0795 6.42837 12.1572 6.38419 12.2233C6.34001 12.2894 6.27722 12.341 6.20375 12.3714C6.13028 12.4018 6.04944 12.4098 5.97144 12.3943C5.89345 12.3788 5.82181 12.3405 5.76558 12.2842C5.70935 12.228 5.67106 12.1564 5.65555 12.0784C5.64005 12.0004 5.64802 11.9195 5.67846 11.8461C5.70891 11.7726 5.76045 11.7098 5.82658 11.6656C5.89271 11.6215 5.97046 11.5979 6.04998 11.5979C6.15655 11.5981 6.25873 11.6404 6.33408 11.7158C6.40944 11.7912 6.45182 11.8934 6.45193 11.9999ZM7.61152 16.6023C7.61152 16.6819 7.58793 16.7596 7.54375 16.8257C7.49957 16.8918 7.43679 16.9433 7.36333 16.9737C7.28987 17.0041 7.20905 17.0121 7.13107 16.9966C7.05309 16.9811 6.98147 16.9428 6.92525 16.8865C6.86903 16.8303 6.83075 16.7587 6.81525 16.6807C6.79974 16.6027 6.8077 16.5219 6.83813 16.4485C6.86856 16.375 6.92008 16.3122 6.98619 16.268C7.0523 16.2239 7.13002 16.2003 7.20953 16.2003C7.31611 16.2004 7.4183 16.2428 7.49366 16.3182C7.56903 16.3936 7.61141 16.4958 7.61152 16.6023ZM9.38499 18.9943C9.38499 19.0738 9.36142 19.1516 9.31724 19.2177C9.27307 19.2838 9.21029 19.3353 9.13683 19.3657C9.06338 19.3962 8.98255 19.4041 8.90457 19.3886C8.82659 19.3731 8.75496 19.3348 8.69874 19.2786C8.64252 19.2224 8.60423 19.1507 8.58872 19.0728C8.57321 18.9948 8.58117 18.9139 8.61159 18.8405C8.64202 18.767 8.69355 18.7043 8.75965 18.6601C8.82576 18.6159 8.90349 18.5923 8.98299 18.5923C9.08957 18.5925 9.19174 18.6349 9.2671 18.7102C9.34246 18.7856 9.38486 18.8878 9.38499 18.9943ZM21.4418 14.343C21.1951 14.0044 20.8837 13.7182 20.5256 13.5009C20.1675 13.2836 19.7698 13.1395 19.3556 13.0771C19.3188 13.071 19.2812 13.0722 19.2449 13.0808C19.2086 13.0893 19.1744 13.105 19.1443 13.1269C19.1141 13.1488 19.0886 13.1764 19.0692 13.2083C19.0498 13.2401 19.037 13.2755 19.0314 13.3123C19.0258 13.3492 19.0276 13.3868 19.0366 13.4229C19.0457 13.4591 19.0619 13.4931 19.0842 13.5229C19.1065 13.5528 19.1345 13.5779 19.1666 13.5968C19.1987 13.6157 19.2343 13.6281 19.2712 13.6331C19.7844 13.7111 20.2628 13.9402 20.6451 14.2914C21.0275 14.6425 21.2965 15.0996 21.4177 15.6044C21.539 16.1092 21.507 16.6386 21.3259 17.1251C21.1448 17.6116 20.8227 18.033 20.4009 18.3356C20.2549 17.6292 19.8538 17.0013 19.2743 16.5717C19.2142 16.5275 19.1391 16.5089 19.0653 16.5201C18.9916 16.5313 18.9253 16.5713 18.881 16.6313C18.8368 16.6914 18.8182 16.7666 18.8294 16.8403C18.8406 16.9141 18.8806 16.9804 18.9407 17.0246C19.2076 17.2212 19.4301 17.4718 19.5936 17.7601C19.7572 18.0484 19.8581 18.3679 19.89 18.6978C19.9218 19.0278 19.8837 19.3607 19.7782 19.6749C19.6728 19.9892 19.5023 20.2777 19.2778 20.5216C19.0534 20.7655 18.7801 20.9594 18.4757 21.0907C18.1714 21.2219 17.8427 21.2876 17.5113 21.2833C17.1799 21.2791 16.8531 21.205 16.5521 21.066C16.2512 20.927 15.983 20.7261 15.7649 20.4765C15.7406 20.4487 15.711 20.426 15.6779 20.4096C15.6448 20.3932 15.6088 20.3835 15.572 20.381C15.5351 20.3785 15.4981 20.3833 15.4631 20.3951C15.4281 20.407 15.3958 20.4256 15.368 20.4499C15.3401 20.4742 15.3174 20.5037 15.301 20.5369C15.2846 20.57 15.2749 20.606 15.2724 20.6428C15.2699 20.6797 15.2748 20.7167 15.2866 20.7517C15.2984 20.7867 15.317 20.819 15.3413 20.8468C15.6174 21.1605 15.9572 21.4118 16.338 21.5839C16.7188 21.7559 17.1319 21.8449 17.5498 21.8447C17.6373 21.8447 17.725 21.8405 17.8127 21.8325C17.5319 22.3784 17.0882 22.8235 16.5432 23.106C15.9982 23.3885 15.3787 23.4945 14.7708 23.4093C14.1628 23.324 13.5964 23.0518 13.1501 22.6303C12.7037 22.2089 12.3995 21.659 12.2797 21.0569V16.7765H13.4469L14.3332 18.3117C14.1684 18.4755 14.0679 18.693 14.0501 18.9246C14.0323 19.1563 14.0982 19.3866 14.236 19.5737C14.3738 19.7607 14.5742 19.8921 14.8008 19.9437C15.0273 19.9954 15.2648 19.9639 15.4701 19.8551C15.6753 19.7463 15.8347 19.5673 15.919 19.3508C16.0034 19.1343 16.0071 18.8947 15.9296 18.6757C15.8521 18.4567 15.6985 18.2728 15.4967 18.1576C15.295 18.0424 15.0585 18.0035 14.8305 18.048L13.853 16.3546C13.8283 16.3118 13.7928 16.2763 13.75 16.2516C13.7072 16.2269 13.6587 16.214 13.6093 16.214H12.2797V14.3845H14.3106L16.0072 16.0377C15.8708 16.2256 15.8064 16.4561 15.8257 16.6874C15.8449 16.9187 15.9466 17.1355 16.1121 17.2982C16.2776 17.4609 16.496 17.5588 16.7276 17.5741C16.9592 17.5894 17.1886 17.5211 17.3741 17.3816C17.5596 17.242 17.6889 17.0406 17.7384 16.8138C17.7879 16.5871 17.7544 16.35 17.644 16.1459C17.5336 15.9417 17.3535 15.784 17.1366 15.7014C16.9197 15.6187 16.6804 15.6167 16.4621 15.6956L14.6212 13.9016C14.5687 13.8505 14.4983 13.8219 14.4249 13.822H12.2797V12.2812H17.0245C17.0919 12.5023 17.2365 12.6918 17.4319 12.8153C17.6273 12.9388 17.8606 12.988 18.0893 12.9539C18.3179 12.9198 18.5267 12.8048 18.6776 12.6297C18.8286 12.4546 18.9116 12.2311 18.9116 11.9999C18.9116 11.7688 18.8286 11.5453 18.6776 11.3702C18.5267 11.1951 18.3179 11.08 18.0893 11.046C17.8606 11.0119 17.6273 11.0611 17.4319 11.1845C17.2365 11.308 17.0919 11.4976 17.0245 11.7187H12.2797V10.1781H14.4249C14.4983 10.1782 14.5687 10.1496 14.6212 10.0984L16.4621 8.30454C16.68 8.38314 16.9188 8.38095 17.1352 8.29836C17.3517 8.21578 17.5313 8.05829 17.6414 7.85452C17.7515 7.65075 17.7849 7.41422 17.7354 7.18794C17.686 6.96165 17.557 6.76062 17.3718 6.62139C17.1867 6.48216 16.9578 6.41397 16.7267 6.42922C16.4955 6.44447 16.2775 6.54214 16.1123 6.70449C15.9471 6.86683 15.8456 7.08307 15.8263 7.3139C15.807 7.54472 15.8712 7.77482 16.0071 7.96235L14.3105 9.61563H12.2797V7.7861H13.6095C13.6589 7.78613 13.7074 7.77315 13.7502 7.74847C13.793 7.72378 13.8285 7.68826 13.8532 7.64548L14.8309 5.95207C15.0581 5.99614 15.2935 5.95718 15.4943 5.84227C15.6951 5.72735 15.8479 5.54414 15.925 5.326C16.0021 5.10785 15.9982 4.86928 15.9141 4.65373C15.8301 4.43818 15.6714 4.25999 15.467 4.15161C15.2626 4.04324 15.0261 4.01188 14.8005 4.06325C14.5749 4.11462 14.3753 4.24531 14.2379 4.43151C14.1006 4.61771 14.0347 4.84704 14.0523 5.07773C14.0699 5.30842 14.1697 5.52513 14.3336 5.6884L13.4469 7.22337H12.2797V2.94293C12.3996 2.34096 12.7039 1.79121 13.1502 1.36983C13.5965 0.948451 14.1628 0.676305 14.7707 0.591097C15.3785 0.505888 15.9978 0.611835 16.5428 0.89426C17.0878 1.17668 17.5314 1.6216 17.8123 2.16738C17.3519 2.12594 16.8881 2.19361 16.4588 2.3649C16.0294 2.53619 15.6464 2.80628 15.341 3.15326C15.2922 3.20947 15.2677 3.28273 15.2728 3.35698C15.278 3.43124 15.3123 3.50043 15.3684 3.54939C15.4244 3.59836 15.4976 3.62312 15.5719 3.61823C15.6461 3.61335 15.7154 3.57922 15.7646 3.52334C15.9827 3.27372 16.2509 3.07287 16.5518 2.93386C16.8527 2.79485 17.1795 2.72081 17.511 2.71655C17.8424 2.7123 18.171 2.77794 18.4754 2.90918C18.7798 3.04042 19.0531 3.23433 19.2775 3.47827C19.5019 3.7222 19.6724 4.01068 19.7779 4.32492C19.8834 4.63916 19.9214 4.97209 19.8896 5.30203C19.8578 5.63196 19.7568 5.95149 19.5933 6.23979C19.4297 6.52809 19.2073 6.77869 18.9404 6.97526C18.8803 7.0195 18.8403 7.08578 18.8291 7.15953C18.8179 7.23328 18.8365 7.30846 18.8807 7.36851C18.925 7.42857 18.9912 7.4686 19.065 7.47978C19.1387 7.49097 19.2139 7.4724 19.274 7.42816C19.8535 6.99858 20.2545 6.37067 20.4006 5.66426C20.8224 5.96683 21.1444 6.38828 21.3256 6.87477C21.5067 7.36126 21.5386 7.89069 21.4174 8.39544C21.2961 8.90018 21.0271 9.35732 20.6448 9.70845C20.2625 10.0596 19.7841 10.2888 19.2709 10.3667C19.234 10.3718 19.1985 10.3841 19.1663 10.4031C19.1342 10.422 19.1062 10.4471 19.0839 10.477C19.0616 10.5068 19.0454 10.5408 19.0364 10.5769C19.0273 10.6131 19.0255 10.6507 19.0311 10.6875C19.0367 10.7244 19.0495 10.7598 19.0689 10.7916C19.0883 10.8234 19.1138 10.8511 19.144 10.873C19.1742 10.8949 19.2084 10.9106 19.2446 10.9191C19.2809 10.9277 19.3185 10.9289 19.3553 10.9228C19.7695 10.8603 20.1672 10.7163 20.5253 10.499C20.8834 10.2817 21.1948 9.99542 21.4415 9.65683C21.8968 9.85632 22.2842 10.1842 22.5562 10.6003C22.8282 11.0164 22.9731 11.5028 22.9731 11.9999C22.9731 12.4971 22.8282 12.9834 22.5562 13.3996C22.2842 13.8157 21.8968 14.1435 21.4415 14.343H21.4418ZM15.0138 18.5923C15.0934 18.5923 15.1711 18.6159 15.2372 18.6601C15.3033 18.7042 15.3549 18.767 15.3853 18.8405C15.4158 18.914 15.4237 18.9948 15.4082 19.0728C15.3927 19.1508 15.3544 19.2224 15.2982 19.2787C15.2419 19.3349 15.1703 19.3732 15.0923 19.3887C15.0143 19.4042 14.9335 19.3962 14.86 19.3658C14.7865 19.3354 14.7237 19.2838 14.6796 19.2177C14.6354 19.1516 14.6118 19.0739 14.6118 18.9943C14.6119 18.8878 14.6543 18.7856 14.7297 18.7102C14.8051 18.6348 14.9073 18.5924 15.0138 18.5923ZM16.7873 16.2003C16.8668 16.2003 16.9445 16.2239 17.0106 16.268C17.0767 16.3122 17.1283 16.375 17.1587 16.4485C17.1891 16.5219 17.1971 16.6027 17.1816 16.6807C17.1661 16.7587 17.1278 16.8303 17.0716 16.8865C17.0154 16.9428 16.9437 16.9811 16.8658 16.9966C16.7878 17.0121 16.707 17.0041 16.6335 16.9737C16.56 16.9433 16.4973 16.8918 16.4531 16.8257C16.4089 16.7596 16.3853 16.6819 16.3853 16.6023C16.3854 16.4958 16.4278 16.3936 16.5032 16.3182C16.5785 16.2428 16.6807 16.2004 16.7873 16.2003ZM17.5449 11.9999C17.5449 11.9204 17.5685 11.8427 17.6126 11.7765C17.6568 11.7104 17.7196 11.6589 17.7931 11.6284C17.8665 11.598 17.9474 11.59 18.0254 11.6056C18.1034 11.6211 18.175 11.6594 18.2313 11.7156C18.2875 11.7718 18.3258 11.8435 18.3413 11.9215C18.3568 11.9995 18.3488 12.0803 18.3184 12.1538C18.2879 12.2273 18.2364 12.29 18.1702 12.3342C18.1041 12.3784 18.0264 12.4019 17.9469 12.4019C17.8403 12.4018 17.7381 12.3594 17.6628 12.284C17.5874 12.2087 17.545 12.1065 17.5449 11.9999ZM16.3853 7.39755C16.3853 7.31805 16.4089 7.24032 16.4531 7.17421C16.4972 7.10811 16.56 7.05658 16.6335 7.02615C16.7069 6.99573 16.7878 6.98777 16.8657 7.00328C16.9437 7.01879 17.0153 7.05708 17.0716 7.1133C17.1278 7.16952 17.1661 7.24115 17.1816 7.31913C17.1971 7.39711 17.1891 7.47794 17.1587 7.55139C17.1283 7.62485 17.0768 7.68763 17.0106 7.7318C16.9445 7.77598 16.8668 7.79955 16.7873 7.79955C16.6807 7.79943 16.5785 7.75704 16.5032 7.68167C16.4278 7.60631 16.3854 7.50413 16.3853 7.39755ZM14.6118 5.00552C14.6118 4.92601 14.6354 4.84829 14.6796 4.78218C14.7238 4.71607 14.7865 4.66455 14.86 4.63412C14.9335 4.6037 15.0143 4.59574 15.0923 4.61125C15.1702 4.62676 15.2419 4.66505 15.2981 4.72127C15.3543 4.77749 15.3926 4.84912 15.4081 4.9271C15.4236 5.00508 15.4157 5.08591 15.3852 5.15936C15.3548 5.23282 15.3033 5.2956 15.2372 5.33977C15.1711 5.38395 15.0933 5.40752 15.0138 5.40752C14.9073 5.40739 14.8051 5.36499 14.7297 5.28963C14.6544 5.21427 14.612 5.1121 14.6118 5.00552Z" fill="#0596DE"/>
    </g>
    <defs>
        <clipPath id="clip0_2686_19603">
            <rect width="24" height="24" fill="white"/>
        </clipPath>
    </defs>
</svg>
