<svg width="27" height="28" viewBox="0 0 27 28" fill="none" xmlns="http://www.w3.org/2000/svg">
    <path d="M22.6395 17.1717C22.5879 16.9857 22.7016 16.7272 22.8101 16.5412C22.8433 16.4858 22.8795 16.4323 22.9186 16.381C23.847 15.0015 24.3436 13.3768 24.3451 11.714C24.3606 6.94887 20.3397 3.08301 15.3678 3.08301C11.0316 3.08301 7.41382 6.03409 6.56623 9.95164C6.43943 10.5323 6.37532 11.1249 6.375 11.7192C6.375 16.4895 10.2409 20.4587 15.2127 20.4587C16.0035 20.4587 17.0681 20.221 17.6522 20.0608C18.2362 19.9006 18.815 19.6887 18.9649 19.6318C19.1185 19.5739 19.2814 19.5441 19.4456 19.5439C19.6247 19.5433 19.8022 19.5784 19.9675 19.6473L22.898 20.6861C22.9622 20.7133 23.0301 20.7307 23.0995 20.7378C23.2092 20.7378 23.3143 20.6943 23.3919 20.6167C23.4694 20.5392 23.513 20.434 23.513 20.3244C23.5094 20.2771 23.5007 20.2303 23.4871 20.1848L22.6395 17.1717Z" stroke="#04AD01" stroke-width="1.65385" stroke-miterlimit="10" stroke-linecap="round"/>
    <path d="M3.79784 12.5928C3.11999 13.8105 2.79208 15.192 2.85036 16.5845C2.90865 17.977 3.35085 19.3263 4.1281 20.4832C4.24748 20.6635 4.31467 20.8031 4.294 20.8966C4.27332 20.9902 3.67742 24.0942 3.67742 24.0942C3.66309 24.1669 3.66853 24.242 3.69316 24.3119C3.7178 24.3817 3.76074 24.4436 3.81748 24.4912C3.8932 24.5515 3.98735 24.584 4.08417 24.5832C4.1359 24.5833 4.1871 24.5727 4.23456 24.5521L7.13965 23.4151C7.33959 23.3363 7.56263 23.34 7.75984 23.4255C8.73871 23.8069 9.82094 24.0457 10.9037 24.0457C12.3566 24.0472 13.7841 23.664 15.0409 22.935" stroke="#04AD01" stroke-width="1.65385" stroke-miterlimit="10" stroke-linecap="round"/>
</svg>
