<svg width="72" height="72" viewBox="0 0 72 72" fill="none" xmlns="http://www.w3.org/2000/svg">
    <path d="M7.58976 44.3088C6.95181 48.4908 9.804 51.3936 13.2962 52.8402C26.6844 58.3866 45.3156 58.3866 58.7037 52.8402C62.196 51.3936 65.0481 48.4908 64.4103 44.3088C64.0182 41.7387 62.0796 39.5985 60.6432 37.5087C58.7619 34.7379 58.575 31.7154 58.5747 28.5C58.5747 16.0736 48.4677 6 36 6C23.5324 6 13.4254 16.0736 13.4254 28.5C13.4251 31.7154 13.2382 34.7379 11.3568 37.5087C9.92052 39.5985 7.98183 41.7387 7.58976 44.3088Z" fill="#0596DE" stroke="#0596DE" stroke-width="4.5" stroke-linecap="round" stroke-linejoin="round"/>
    <path d="M24 57C25.3755 62.1756 30.2265 66 36 66C41.7735 66 46.6245 62.1756 48 57" stroke="#0596DE" stroke-width="4.5" stroke-linecap="round" stroke-linejoin="round"/>
</svg>
