<svg width="24" height="24" viewBox="0 0 24 24" fill="none" xmlns="http://www.w3.org/2000/svg">
    <g clip-path="url(#clip0_2686_16779)">
        <path d="M13.556 21.0252C13.1188 21.3898 12.5672 21.5891 11.9979 21.5882C10.6714 21.5882 9.59323 20.5283 9.56182 19.2093C9.04057 19.453 8.41292 19.4474 7.87667 19.138C7.34042 18.8287 7.02167 18.2877 6.97245 17.7144C5.81464 18.3468 4.35729 17.9427 3.69401 16.7938C3.03073 15.6454 3.40948 14.1815 4.53636 13.4947C4.06432 13.1657 3.75542 12.6191 3.75542 11.9999C3.75542 11.3807 4.06432 10.8341 4.53636 10.5051C4.21064 10.307 3.93619 10.035 3.73526 9.711M20.6262 15.6824C20.6632 14.8222 20.2414 13.9715 19.4595 13.4947C19.9315 13.1657 20.2404 12.6191 20.2404 11.9999C20.2404 11.3807 19.9315 10.8341 19.4595 10.5051C20.5864 9.81834 20.9651 8.35444 20.3018 7.206C19.6385 6.05709 18.1817 5.65303 17.0239 6.28537H17.0234C16.9742 5.71209 16.6554 5.17115 16.1192 4.86178C15.5829 4.5524 14.9553 4.54678 14.434 4.79053C14.426 4.45819 14.352 4.14225 14.2235 3.85584M13.0849 2.66662C12.7473 2.49841 12.3751 2.41111 11.9979 2.41162C10.6714 2.41162 9.59323 3.47147 9.56182 4.79053C9.04057 4.54678 8.41292 4.5524 7.87667 4.86178C7.34042 5.17115 7.02167 5.71209 6.97245 6.28537C5.81464 5.65303 4.35729 6.05709 3.69401 7.206C3.53357 7.48323 3.4294 7.78939 3.38745 8.10694" stroke="#0596DE" stroke-miterlimit="10" stroke-linecap="round" stroke-linejoin="round"/>
        <path d="M9.84117 5.98716C9.66155 5.6475 9.55987 5.26027 9.55987 4.84931C9.55987 4.82967 9.56011 4.81012 9.56058 4.79062M7.02356 6.31364C7.40817 6.53569 7.70939 6.84675 7.91616 7.20572M4.58602 13.4643C4.98225 13.2356 5.41598 13.1307 5.84245 13.1377M9.56058 19.2094C9.56011 19.1899 9.55987 19.1703 9.55987 19.1507C9.55987 18.6387 9.7177 18.1636 9.98737 17.7714M18.2446 10.1858C18.3021 10.1804 18.3598 10.1777 18.4176 10.1777C18.7807 10.1772 19.1356 10.2856 19.4364 10.4889M17.0234 6.28556C17.0554 6.65675 16.9724 7.02882 16.7856 7.35117C16.7267 7.45328 16.6581 7.54947 16.5807 7.63837M11.9975 0.941953V2.41172M13.0511 0.351562C12.4446 0.870609 11.5504 0.870609 10.9439 0.351562M7.11797 3.52744L7.74731 4.61747M7.61892 2.84672C7.42172 3.40533 6.84708 3.73711 6.2647 3.62859M2.22028 11.9895H3.47892M1.88123 11.2153C2.26641 11.6654 2.26641 12.3289 1.88123 12.779M7.09978 20.4621L7.72912 19.372M6.25973 20.3685C6.84211 20.26 7.4168 20.5918 7.61395 21.1504M21.7747 12.0105H20.516M22.1137 12.7847C21.7285 12.3346 21.7285 11.6711 22.1137 11.221M16.8952 3.53794L16.2658 4.62802M17.7352 3.63145C17.1528 3.74002 16.5781 3.40823 16.381 2.84958M2.42091 6.47095L3.6938 7.20586M2.43642 5.26336C2.58267 6.04814 2.13558 6.82252 1.38281 7.08825M2.42091 17.529L3.6938 16.7941M1.38281 16.9118C2.13558 17.1775 2.58267 17.9519 2.43642 18.7367M11.9975 23.058V21.5883M10.9439 23.6484C11.5504 23.1294 12.4445 23.1294 13.051 23.6484M21.574 6.47095L20.3011 7.20586M22.6121 7.0882C21.8594 6.82247 21.4123 6.04809 21.5585 5.26331" stroke="#0596DE" stroke-miterlimit="10" stroke-linecap="round" stroke-linejoin="round"/>
        <path d="M8.63888 12.328C9.57852 12.328 10.3402 11.5663 10.3402 10.6267C10.3402 9.68702 9.57852 8.92529 8.63888 8.92529C7.69923 8.92529 6.9375 9.68702 6.9375 10.6267C6.9375 11.5663 7.69923 12.328 8.63888 12.328Z" stroke="#0596DE" stroke-miterlimit="10" stroke-linecap="round" stroke-linejoin="round"/>
        <path d="M12.981 18.7751C12.9677 18.7836 12.9542 18.7918 12.9405 18.7997C12.4389 19.0893 11.7975 18.9175 11.5079 18.4158C11.2183 17.9142 11.3901 17.2728 11.8917 16.9832C12.3509 16.7181 12.9273 16.8397 13.2436 17.247" stroke="#0596DE" stroke-miterlimit="10" stroke-linecap="round" stroke-linejoin="round"/>
        <path d="M8.4042 16.1143C8.9834 16.1143 9.45294 15.6448 9.45294 15.0656C9.45294 14.4864 8.9834 14.0168 8.4042 14.0168C7.825 14.0168 7.35547 14.4864 7.35547 15.0656C7.35547 15.6448 7.825 16.1143 8.4042 16.1143Z" stroke="#0596DE" stroke-miterlimit="10" stroke-linecap="round" stroke-linejoin="round"/>
        <path d="M12.244 8.0108C12.8232 8.0108 13.2928 7.54126 13.2928 6.96206C13.2928 6.38286 12.8232 5.91333 12.244 5.91333C11.6648 5.91333 11.1953 6.38286 11.1953 6.96206C11.1953 7.54126 11.6648 8.0108 12.244 8.0108Z" stroke="#0596DE" stroke-miterlimit="10" stroke-linecap="round" stroke-linejoin="round"/>
        <path d="M13.5908 10.1892C14.8944 9.5494 16.4886 10.0214 17.2255 11.2974C17.7979 12.2892 17.691 13.4874 17.0483 14.3513M12.395 11.3138C11.924 12.1439 11.893 13.1944 12.4044 14.0808C12.8582 14.866 13.6363 15.3464 14.4716 15.451" stroke="#0596DE" stroke-miterlimit="10" stroke-linecap="round" stroke-linejoin="round"/>
        <path d="M21.1194 21.2179C21.5802 20.5204 21.8483 19.685 21.8483 18.7869C21.8483 16.348 19.8706 14.3704 17.4317 14.3704C14.9928 14.3704 13.0156 16.348 13.0156 18.7869C13.0156 21.2258 14.9928 23.203 17.4317 23.203C18.38 23.203 19.258 22.9044 19.9775 22.3958" stroke="#0596DE" stroke-miterlimit="10" stroke-linecap="round" stroke-linejoin="round"/>
        <path d="M15.0586 17.9794H16.6283V16.4097H18.2434V17.9794H19.8131V19.5945H18.2434V21.1642H16.6283V19.5945H15.0586V17.9794Z" stroke="#0596DE" stroke-miterlimit="10" stroke-linecap="round" stroke-linejoin="round"/>
    </g>
    <defs>
        <clipPath id="clip0_2686_16779">
            <rect width="24" height="24" fill="white"/>
        </clipPath>
    </defs>
</svg>
