<svg width="37" height="37" viewBox="0 0 37 37" fill="none" xmlns="http://www.w3.org/2000/svg">
    <path d="M30.2109 33.9485V29.4485C30.2109 25.2059 30.2109 23.0844 28.8929 21.7665C27.5748 20.4485 25.4535 20.4485 21.2109 20.4485H15.2109C10.9683 20.4485 8.84698 20.4485 7.52896 21.7665C6.21094 23.0844 6.21094 25.2059 6.21094 29.4485C6.21094 30.8463 6.21094 31.5452 6.4393 32.0964C6.74378 32.8316 7.32781 33.4155 8.06288 33.72C8.61421 33.9485 9.31312 33.9485 10.7109 33.9485" stroke="white" stroke-width="2.12637" stroke-linecap="round" stroke-linejoin="round"/>
    <path d="M14.4609 20.4485L18.9609 33.9485M10.7109 21.1985V33.9485" stroke="white" stroke-width="2.12637" stroke-linecap="round" stroke-linejoin="round"/>
    <path d="M18.2109 29.4485H21.9609C23.2035 29.4485 24.2109 30.4559 24.2109 31.6985C24.2109 32.9411 23.2035 33.9485 21.9609 33.9485H18.9609" stroke="white" stroke-width="2.12637" stroke-linecap="round" stroke-linejoin="round"/>
    <path d="M23.4609 10.6987V9.19873C23.4609 6.29923 21.1104 3.94873 18.2109 3.94873C15.3114 3.94873 12.9609 6.29923 12.9609 9.19873V10.6987C12.9609 13.5982 15.3114 15.9487 18.2109 15.9487C21.1104 15.9487 23.4609 13.5982 23.4609 10.6987Z" stroke="white" stroke-width="2.12637" stroke-linecap="round" stroke-linejoin="round"/>
</svg>
