<svg width="32" height="32" viewBox="0 0 32 32" fill="none" xmlns="http://www.w3.org/2000/svg">
    <path d="M2.66797 15.9999C2.66797 11.2833 2.66797 8.92495 4.0717 7.35045C4.29622 7.09863 4.54368 6.86572 4.81125 6.65441C6.48414 5.33325 8.98986 5.33325 14.0013 5.33325H18.0013C23.0128 5.33325 25.5185 5.33325 27.1913 6.65441C27.4589 6.86572 27.7064 7.09863 27.9309 7.35045C29.3346 8.92495 29.3346 11.2833 29.3346 15.9999C29.3346 20.7166 29.3346 23.0749 27.9309 24.6494C27.7064 24.9013 27.4589 25.1341 27.1913 25.3454C25.5185 26.6666 23.0128 26.6666 18.0013 26.6666H14.0013C8.98986 26.6666 6.48414 26.6666 4.81125 25.3454C4.54368 25.1341 4.29622 24.9013 4.0717 24.6494C2.66797 23.0749 2.66797 20.7166 2.66797 15.9999Z" stroke="#0596DE" stroke-width="2" stroke-linecap="round" stroke-linejoin="round"/>
    <path d="M13.3359 21.3333H15.3359" stroke="#0596DE" stroke-width="2" stroke-miterlimit="10" stroke-linecap="round" stroke-linejoin="round"/>
    <path d="M19.3359 21.3333H24.0026" stroke="#0596DE" stroke-width="2" stroke-miterlimit="10" stroke-linecap="round" stroke-linejoin="round"/>
    <path d="M2.66797 12H29.3346" stroke="#0596DE" stroke-width="2" stroke-linejoin="round"/>
</svg>
