<svg width="32" height="32" viewBox="0 0 32 32" fill="none" xmlns="http://www.w3.org/2000/svg">
    <path d="M2.66797 11.4254C2.66797 9.83052 3.31114 8.85309 4.64214 8.11237L10.1211 5.06325C12.9921 3.46553 14.4276 2.66667 16.0013 2.66667C17.575 2.66667 19.0105 3.46553 21.8814 5.06325L27.3605 8.11237C28.6914 8.85309 29.3346 9.83053 29.3346 11.4254C29.3346 11.8579 29.3346 12.0741 29.2874 12.2519C29.0393 13.1859 28.1929 13.3333 27.3756 13.3333H4.62701C3.80966 13.3333 2.96333 13.1859 2.7152 12.2519C2.66797 12.0741 2.66797 11.8579 2.66797 11.4254Z" stroke="#0596DE" stroke-width="2"/>
    <path d="M15.9961 9.33333H16.0081" stroke="#0596DE" stroke-width="2.66667" stroke-linecap="round" stroke-linejoin="round"/>
    <path d="M5.33203 13.3333V24.6667M10.6654 13.3333V24.6667" stroke="#0596DE" stroke-width="2"/>
    <path d="M21.332 13.3333V24.6667M26.6654 13.3333V24.6667" stroke="#0596DE" stroke-width="2"/>
    <path d="M25.3346 24.6667H6.66797C4.45884 24.6667 2.66797 26.4575 2.66797 28.6667C2.66797 29.0348 2.96645 29.3333 3.33464 29.3333H28.668C29.0361 29.3333 29.3346 29.0348 29.3346 28.6667C29.3346 26.4575 27.5438 24.6667 25.3346 24.6667Z" stroke="#0596DE" stroke-width="2"/>
</svg>
