<svg width="24" height="24" viewBox="0 0 24 24" fill="none" xmlns="http://www.w3.org/2000/svg">
    <g clip-path="url(#clip0_2686_20716)">
        <path d="M11.1464 2.61369H10.3477V1.81494C10.3477 1.71549 10.3081 1.6201 10.2378 1.54978C10.1675 1.47945 10.0721 1.43994 9.97266 1.43994C9.8732 1.43994 9.77782 1.47945 9.70749 1.54978C9.63717 1.6201 9.59766 1.71549 9.59766 1.81494V2.61369H8.80078C8.75154 2.61369 8.70277 2.62339 8.65728 2.64224C8.61178 2.66108 8.57044 2.6887 8.53562 2.72353C8.50079 2.75835 8.47317 2.79969 8.45433 2.84519C8.43548 2.89068 8.42578 2.93945 8.42578 2.98869C8.42578 3.03794 8.43548 3.0867 8.45433 3.1322C8.47317 3.17769 8.50079 3.21903 8.53562 3.25386C8.57044 3.28868 8.61178 3.3163 8.65728 3.33515C8.70277 3.35399 8.75154 3.36369 8.80078 3.36369H9.59766V4.16057C9.59766 4.26002 9.63717 4.35541 9.70749 4.42573C9.77782 4.49606 9.8732 4.53557 9.97266 4.53557C10.0721 4.53557 10.1675 4.49606 10.2378 4.42573C10.3081 4.35541 10.3477 4.26002 10.3477 4.16057V3.36369H11.1464C11.2459 3.36369 11.3412 3.32418 11.4116 3.25386C11.4819 3.18353 11.5214 3.08815 11.5214 2.98869C11.5214 2.88924 11.4819 2.79385 11.4116 2.72353C11.3412 2.6532 11.2459 2.61369 11.1464 2.61369ZM17.9995 17.6249H18.187V17.8124C18.187 17.9119 18.2265 18.0073 18.2969 18.0776C18.3672 18.1479 18.4626 18.1874 18.562 18.1874C18.6615 18.1874 18.7569 18.1479 18.8272 18.0776C18.8975 18.0073 18.937 17.9119 18.937 17.8124V17.6249H19.1245C19.224 17.6249 19.3194 17.5854 19.3897 17.5151C19.46 17.4448 19.4995 17.3494 19.4995 17.2499C19.4995 17.1505 19.46 17.0551 19.3897 16.9848C19.3194 16.9144 19.224 16.8749 19.1245 16.8749H17.9995C17.9001 16.8749 17.8047 16.9144 17.7344 16.9848C17.664 17.0551 17.6245 17.1505 17.6245 17.2499C17.6245 17.3494 17.664 17.4448 17.7344 17.5151C17.8047 17.5854 17.9001 17.6249 17.9995 17.6249Z" fill="#0596DE"/>
        <path d="M23.8481 20.775C23.7486 20.6028 23.6152 20.4525 23.456 20.3333C23.2968 20.214 23.1151 20.1283 22.9219 20.0812C22.5167 19.4131 21.8895 18.9086 21.15 18.6562C21.8218 17.9791 22.1985 17.0638 22.1981 16.11C22.1982 15.8308 22.1617 15.5528 22.0894 15.2831C22.2511 15.1734 22.3874 15.0301 22.4889 14.863C22.5904 14.696 22.6548 14.509 22.6777 14.3149C22.7007 14.1208 22.6815 13.924 22.6217 13.7379C22.5619 13.5518 22.4627 13.3807 22.3309 13.2363C22.1992 13.0919 22.0379 12.9776 21.858 12.901C21.6782 12.8244 21.4839 12.7874 21.2885 12.7925C21.0931 12.7976 20.9011 12.8446 20.7254 12.9305C20.5498 13.0163 20.3947 13.1389 20.2706 13.29C19.1769 12.8813 17.9724 12.8813 16.8787 13.29C16.7576 13.1328 16.6043 13.0033 16.429 12.9102C16.2537 12.817 16.0606 12.7624 15.8625 12.75C15.5794 11.4712 15.1125 9 15.0413 8.685V2.4975C15.0378 1.83424 14.772 1.1993 14.3019 0.731359C13.8319 0.263414 13.1958 0.000486282 12.5325 0L7.41375 0C6.74887 0.000992922 6.11152 0.265685 5.64156 0.736006C5.17159 1.20633 4.90737 1.84387 4.90688 2.50875V7.7925C4.83 8.18437 4.10063 11.9288 3.92438 12.9188C3.8423 13.3304 3.8588 13.7557 3.97253 14.1598C4.08626 14.5639 4.29399 14.9353 4.57875 15.2438C3.17513 16.146 2.02042 17.3861 1.22045 18.8504C0.420477 20.3147 0.000841093 21.9564 0 23.625C0 23.7245 0.0395088 23.8198 0.109835 23.8902C0.180161 23.9605 0.275544 24 0.375 24C0.474456 24 0.569839 23.9605 0.640165 23.8902C0.710491 23.8198 0.75 23.7245 0.75 23.625C0.751264 22.0071 1.17791 20.418 1.98716 19.0171C2.7964 17.6161 3.95978 16.4526 5.36063 15.6431C5.37911 15.635 5.39671 15.6249 5.41313 15.6131C5.60063 15.5081 5.77875 15.4088 5.97563 15.3169C5.7738 16.0874 5.63089 16.8722 5.54813 17.6644C4.97979 17.7588 4.46325 18.0514 4.09016 18.4904C3.71706 18.9294 3.51152 19.4864 3.51 20.0625V23.625C3.51 23.7245 3.54951 23.8198 3.61983 23.8902C3.69016 23.9605 3.78554 24 3.885 24H4.635C4.73446 24 4.82984 23.9605 4.90017 23.8902C4.97049 23.8198 5.01 23.7245 5.01 23.625C5.01 23.5255 4.97049 23.4302 4.90017 23.3598C4.82984 23.2895 4.73446 23.25 4.635 23.25H4.26V20.0625C4.26 19.8409 4.30365 19.6215 4.38845 19.4167C4.47326 19.212 4.59756 19.026 4.75426 18.8693C4.91096 18.7126 5.09698 18.5883 5.30172 18.5035C5.50646 18.4186 5.72589 18.375 5.9475 18.375C6.16911 18.375 6.38854 18.4186 6.59328 18.5035C6.79802 18.5883 6.98404 18.7126 7.14074 18.8693C7.29744 19.026 7.42174 19.212 7.50655 19.4167C7.59135 19.6215 7.635 19.8409 7.635 20.0625V23.25H7.26C7.16054 23.25 7.06516 23.2895 6.99483 23.3598C6.92451 23.4302 6.885 23.5255 6.885 23.625C6.885 23.7245 6.92451 23.8198 6.99483 23.8902C7.06516 23.9605 7.16054 24 7.26 24H8.01C8.10946 24 8.20484 23.9605 8.27516 23.8902C8.34549 23.8198 8.385 23.7245 8.385 23.625V20.0625C8.38337 19.4776 8.17149 18.9128 7.78803 18.4712C7.40458 18.0296 6.87511 17.7406 6.29625 17.6569C6.38625 16.8806 6.59063 15.5719 6.90563 14.9288L6.96375 14.9081L9.67125 18.6038C9.70606 18.6514 9.75163 18.6902 9.80425 18.7169C9.85686 18.7436 9.91505 18.7575 9.97406 18.7575C10.0331 18.7575 10.0913 18.7436 10.1439 18.7169C10.1965 18.6902 10.2421 18.6514 10.2769 18.6038L12.9844 14.9062C13.673 15.1432 14.3308 15.4617 14.9437 15.855C14.9437 15.9394 14.9325 16.0238 14.9325 16.11C14.9323 16.5876 15.0264 17.0606 15.2095 17.5017C15.3926 17.9429 15.661 18.3435 15.9994 18.6806C15.2625 18.9347 14.6312 19.4268 14.205 20.0794C14.0096 20.1253 13.8256 20.2106 13.6643 20.3303C13.5031 20.4499 13.3681 20.6012 13.2675 20.775C13.08 21.15 13.065 21.6581 13.2506 22.4456C13.3648 22.8869 13.6211 23.2783 13.98 23.5593C14.339 23.8403 14.7805 23.9951 15.2362 24C15.3587 24.0005 15.4808 23.9867 15.6 23.9587C15.8857 23.8903 16.1436 23.7358 16.3387 23.5163C16.8319 23.9737 17.4487 23.9756 18.5644 23.9756C19.68 23.9756 20.2987 23.9756 20.7919 23.5144C20.9868 23.7347 21.2447 23.8898 21.5306 23.9587C21.6492 23.9868 21.7707 24.0006 21.8925 24C22.3465 23.9942 22.786 23.8387 23.1426 23.5576C23.4992 23.2766 23.7532 22.8857 23.865 22.4456C24.0506 21.6581 24.045 21.1575 23.8481 20.775ZM21.3225 13.5413C21.4398 13.5409 21.5547 13.5741 21.6536 13.6371C21.7525 13.7 21.8313 13.79 21.8806 13.8964C21.93 14.0028 21.9478 14.121 21.9319 14.2372C21.9161 14.3534 21.8673 14.4626 21.7913 14.5519C21.5813 14.1984 21.2981 13.8941 20.9606 13.6594C21.066 13.5832 21.1925 13.5419 21.3225 13.5413ZM12.1763 13.8975C13.3684 13.3179 14.2883 12.2971 14.7413 11.0512C14.8763 11.7188 15.0169 12.405 15.1312 12.915C14.8108 13.0859 14.5708 13.3764 14.4634 13.7233C14.3559 14.0701 14.3898 14.4454 14.5575 14.7675C13.8046 14.376 13.0042 14.0835 12.1763 13.8975ZM5.65688 7.43812V5.86875H9.57938C8.73938 6.48187 7.30125 7.32375 5.65688 7.43812ZM5.65688 8.18812C8.235 8.0325 10.2787 6.31313 10.7775 5.86688H11.55C12.375 6.26625 14.2913 7.45125 14.2913 8.72437V9.33375C14.2913 10.4775 13.8369 11.5744 13.0281 12.3831C12.2194 13.1919 11.1225 13.6462 9.97875 13.6462C8.835 13.6462 7.7381 13.1919 6.92935 12.3831C6.1206 11.5744 5.66625 10.4775 5.66625 9.33375L5.65688 8.18812ZM14.2913 6.96563C13.9191 6.54845 13.4957 6.17991 13.0312 5.86875H14.2913V6.96563ZM15.3263 14.5706C15.2019 14.456 15.1282 14.2967 15.1214 14.1277C15.1145 13.9588 15.1751 13.794 15.2897 13.6697C15.4043 13.5454 15.5636 13.4717 15.7326 13.4648C15.9015 13.458 16.0663 13.5185 16.1906 13.6331C15.8362 13.878 15.5408 14.1989 15.3263 14.5725V14.5706ZM5.65688 2.50875C5.65687 2.04263 5.84191 1.59556 6.17134 1.26579C6.50076 0.936013 6.94763 0.750497 7.41375 0.75H12.5325C12.9988 0.750496 13.4459 0.935952 13.7756 1.26567C14.1053 1.5954 14.2908 2.04245 14.2913 2.50875V5.11875H5.66625L5.65688 2.50875ZM4.66313 13.05C4.73813 12.6244 4.91625 11.685 5.10187 10.725C5.29959 11.412 5.63967 12.0496 6.1 12.5965C6.56033 13.1434 7.1306 13.5873 7.77375 13.8994C7.36297 13.9905 6.95841 14.1076 6.5625 14.25C6.53448 14.2575 6.50743 14.2682 6.48187 14.2819C6.05871 14.4406 5.64709 14.6285 5.25 14.8444C5.00767 14.6199 4.8266 14.3373 4.72391 14.0233C4.62122 13.7093 4.6003 13.3743 4.66313 13.05ZM9.97312 17.7469L7.72312 14.6794C9.20019 14.3085 10.7461 14.3085 12.2231 14.6794L9.97312 17.7469ZM15.6825 16.11C15.6825 14.3512 17.235 13.7288 18.5644 13.7288C19.8938 13.7288 21.4481 14.3512 21.4481 16.11C21.4289 16.8618 21.1168 17.5764 20.5783 18.1014C20.0397 18.6264 19.3174 18.9202 18.5653 18.9202C17.8132 18.9202 17.0909 18.6264 16.5524 18.1014C16.0138 17.5764 15.7017 16.8618 15.6825 16.11ZM15.4294 23.235C15.1145 23.2771 14.795 23.2036 14.5302 23.0281C14.2654 22.8526 14.0733 22.587 13.9894 22.2806C13.8525 21.6956 13.8375 21.3281 13.9444 21.1238C14.0063 21 14.145 20.8575 14.6944 20.7319C15.1725 20.6194 15.4012 20.61 15.5325 20.7C15.705 20.8162 15.855 21.1688 16.005 21.8119C16.0927 22.1373 16.0682 22.4827 15.9356 22.7925C15.8908 22.8995 15.8217 22.9947 15.7339 23.0705C15.646 23.1463 15.5418 23.2007 15.4294 23.2294V23.235ZM18.5644 23.235C17.3006 23.235 17.0119 23.2219 16.7137 22.8263C16.8184 22.4401 16.8235 22.0337 16.7288 21.645C16.5244 20.7731 16.2975 20.3194 15.945 20.0812C15.7722 19.9663 15.5711 19.9015 15.3638 19.8937C15.7633 19.5413 16.2669 19.3287 16.7981 19.2881C17.3383 19.5906 17.9471 19.7495 18.5662 19.7495C19.1854 19.7495 19.7942 19.5906 20.3344 19.2881C20.8812 19.3008 21.4035 19.5175 21.7987 19.8956C21.5787 19.897 21.3638 19.9621 21.18 20.0831C20.8275 20.3213 20.6006 20.775 20.3962 21.6469C20.3011 22.0363 20.3069 22.4435 20.4131 22.83C20.1169 23.2125 19.8263 23.2256 18.5625 23.2256L18.5644 23.235ZM23.1356 22.2844C23.0519 22.5897 22.8605 22.8545 22.5969 23.0299C22.3334 23.2052 22.0152 23.2794 21.7013 23.2388C21.5895 23.2078 21.4862 23.1519 21.3992 23.0752C21.3121 22.9986 21.2436 22.9032 21.1987 22.7962C21.0655 22.4867 21.0404 22.1412 21.1275 21.8156C21.2775 21.1725 21.4275 20.82 21.6 20.7038C21.6753 20.6577 21.7631 20.636 21.8512 20.6419C22.0497 20.6521 22.2464 20.6835 22.4381 20.7356C22.9819 20.8612 23.1187 21.0037 23.1881 21.1275C23.2875 21.3225 23.2725 21.69 23.1356 22.275V22.2844Z" fill="#0596DE"/>
    </g>
    <defs>
        <clipPath id="clip0_2686_20716">
            <rect width="24" height="24" fill="white"/>
        </clipPath>
    </defs>
</svg>
