<svg width="17" height="16" viewBox="0 0 17 16" fill="none" xmlns="http://www.w3.org/2000/svg">
    <path d="M14.8769 13.2813L14.8768 13.2813L14.8777 13.2827C14.9082 13.3325 14.9285 13.3879 14.9373 13.4457C14.946 13.5034 14.9432 13.5623 14.9288 13.619C14.9144 13.6756 14.8889 13.7288 14.8536 13.7754C14.8184 13.822 14.7741 13.861 14.7236 13.8902C14.673 13.9195 14.617 13.9383 14.5591 13.9455C14.5011 13.9528 14.4423 13.9483 14.386 13.9325C14.3298 13.9166 14.2773 13.8897 14.2317 13.8532C14.186 13.8168 14.1481 13.7715 14.1203 13.7202L14.1203 13.7202L14.1194 13.7187C12.931 11.6648 10.8294 10.4375 8.49846 10.4375C6.16752 10.4375 4.0659 11.6648 2.87749 13.7187L2.87747 13.7187L2.87666 13.7202C2.84878 13.7715 2.8109 13.8168 2.76526 13.8532C2.71961 13.8897 2.66712 13.9166 2.61089 13.9325C2.55466 13.9483 2.49582 13.9528 2.43785 13.9455C2.37988 13.9383 2.32395 13.9195 2.27336 13.8902C2.22277 13.861 2.17855 13.822 2.1433 13.7754C2.10805 13.7288 2.08248 13.6756 2.06812 13.619C2.05375 13.5623 2.05088 13.5034 2.05966 13.4457C2.06844 13.3879 2.0887 13.3325 2.11924 13.2827L2.11926 13.2827L2.12007 13.2813C3.06437 11.6481 4.51901 10.4783 6.21598 9.92442L6.34683 9.88171L6.22856 9.8113C5.39355 9.31421 4.7448 8.55677 4.38193 7.65528C4.01907 6.7538 3.96216 5.75813 4.21993 4.82118C4.47771 3.88422 5.03593 3.05779 5.80886 2.46879C6.58179 1.87979 7.52669 1.5608 8.49846 1.5608C9.47023 1.5608 10.4151 1.87979 11.1881 2.46879C11.961 3.05779 12.5192 3.88422 12.777 4.82118C13.0348 5.75813 12.9779 6.7538 12.615 7.65528C12.2521 8.55677 11.6034 9.31421 10.7684 9.8113L10.6501 9.88168L10.7809 9.92441C12.4779 10.4789 13.9326 11.6488 14.8769 13.2813ZM4.93596 6V6.00007C4.93697 6.94457 5.31262 7.85011 5.98049 8.51797C6.64836 9.18584 7.55389 9.56149 8.49839 9.5625H8.49846C9.20306 9.5625 9.89183 9.35356 10.4777 8.96211C11.0635 8.57066 11.5201 8.01427 11.7898 7.36331C12.0594 6.71235 12.13 5.99605 11.9925 5.30499C11.855 4.61393 11.5158 3.97916 11.0175 3.48093C10.5193 2.98271 9.88453 2.64341 9.19347 2.50595C8.50241 2.36849 7.78611 2.43904 7.13515 2.70868C6.48419 2.97832 5.9278 3.43493 5.53635 4.02078C5.1449 4.60663 4.93596 5.29541 4.93596 6Z" fill="#0596DE" stroke="#0596DE" stroke-width="0.125"/>
</svg>
