<svg width="24" height="24" viewBox="0 0 24 24" fill="none" xmlns="http://www.w3.org/2000/svg">
    <path d="M11.5514 22.363L11.551 22.3629C10.1313 21.8906 3.0625 19.1171 3.0625 10.7606V5.25C3.0625 4.86875 3.21395 4.50312 3.48353 4.23353C3.75312 3.96395 4.11875 3.8125 4.5 3.8125H19.5C19.8812 3.8125 20.2469 3.96395 20.5165 4.23353C20.786 4.50312 20.9375 4.86875 20.9375 5.25V10.7606C20.9375 19.1171 13.8705 21.8906 12.449 22.3629L12.4486 22.363C12.1577 22.4619 11.8423 22.4619 11.5514 22.363ZM11.9802 21.0565L12 21.0631L12.0198 21.0565C13.3029 20.6278 19.5625 18.1579 19.5625 10.7616V5.25V5.1875H19.5H4.5H4.4375V5.25V10.7616C4.4375 18.1645 10.7084 20.6325 11.9802 21.0565ZM10.4558 13.9829L10.5 14.0271L10.5442 13.9829L15.2636 9.26357C15.3274 9.19969 15.4033 9.14902 15.4867 9.11445C15.5702 9.07988 15.6597 9.06208 15.75 9.06208C15.8403 9.06208 15.9298 9.07988 16.0133 9.11445C16.0967 9.14902 16.1726 9.19969 16.2364 9.26357C16.3003 9.32745 16.351 9.40328 16.3856 9.48675C16.4201 9.57021 16.4379 9.65966 16.4379 9.75C16.4379 9.84034 16.4201 9.92979 16.3856 10.0133C16.351 10.0967 16.3003 10.1726 16.2364 10.2364L10.9864 15.4864L10.9864 15.4865C10.9226 15.5504 10.8467 15.6011 10.7633 15.6357C10.6798 15.6703 10.5903 15.6881 10.5 15.6881C10.4097 15.6881 10.3202 15.6703 10.2367 15.6357C10.1533 15.6011 10.0774 15.5504 10.0136 15.4865L10.0136 15.4864L7.76357 13.2364C7.63456 13.1074 7.56208 12.9324 7.56208 12.75C7.56208 12.5676 7.63456 12.3926 7.76357 12.2636C7.89258 12.1346 8.06755 12.0621 8.25 12.0621C8.43245 12.0621 8.60742 12.1346 8.73643 12.2636L10.4558 13.9829Z" fill="#0596DE" stroke="#0596DE" stroke-width="0.125"/>
</svg>
