<svg width="25" height="24" viewBox="0 0 25 24" fill="none" xmlns="http://www.w3.org/2000/svg">
    <path d="M7.11664 15.4816C5.70187 16.324 1.99243 18.0441 4.25173 20.1966C5.35538 21.248 6.58456 22 8.12994 22H16.9482C18.4936 22 19.7228 21.248 20.8264 20.1966C23.0857 18.0441 19.3763 16.324 17.9615 15.4816C14.6439 13.5061 10.4343 13.5061 7.11664 15.4816Z" stroke="#454567" stroke-width="1.5" stroke-linecap="round" stroke-linejoin="round"/>
    <path d="M17.0391 6.5C17.0391 8.98528 15.0244 11 12.5391 11C10.0538 11 8.03906 8.98528 8.03906 6.5C8.03906 4.01472 10.0538 2 12.5391 2C15.0244 2 17.0391 4.01472 17.0391 6.5Z" stroke="#454567" stroke-width="1.5"/>
</svg>
