<svg width="24" height="24" viewBox="0 0 24 24" fill="none" xmlns="http://www.w3.org/2000/svg">
    <g clip-path="url(#clip0_2686_12404)">
        <path d="M21.8315 11.699C19.9318 8.74184 19.813 7.90041 19.8067 7.85721C18.9499 0.57235 13.0573 0 11.2718 0C11.1089 0 10.9649 0.0107991 10.856 0.0107991C10.7913 0.0107991 10.7373 0.022498 10.6995 0.022498C9.80944 0.022498 1.99632 0.237579 1.95312 8.0291V8.07229C1.95312 12.7123 3.27061 14.3312 4.32802 15.6154C4.70508 16.0789 5.02816 16.4785 5.25044 16.9536C6.09726 18.8201 5.97037 20.8053 5.82189 21.8195C5.78298 22.0747 5.82133 22.3356 5.93199 22.5688C6.04265 22.802 6.22056 22.9967 6.44283 23.128C7.44624 23.7102 9.0526 24.0018 10.6509 24.0018C12.2707 24.0018 13.8906 23.7003 14.8922 23.1019C15.1038 22.977 15.279 22.7987 15.4001 22.5848C15.5212 22.371 15.5841 22.1291 15.5824 21.8834L15.577 19.153C15.5995 19.1206 15.7228 19.063 15.9604 19.063H16.0297C16.0297 19.063 16.144 19.0738 16.3384 19.0738C17.5254 19.0738 19.5484 18.8938 19.7806 17.6817C19.9749 16.6557 19.8454 14.8757 19.7806 14.1855C20.3327 13.9613 20.8706 13.7038 21.3914 13.4142C21.8288 13.155 21.9737 12.8419 22.0214 12.6151C22.0798 12.2966 22.0117 11.968 21.8315 11.699ZM21.3131 12.4657C21.2909 12.5348 21.2543 12.5985 21.2058 12.6524C21.1572 12.7064 21.0978 12.7495 21.0315 12.7789C20.4641 13.1012 19.8743 13.3824 19.2667 13.6203C19.1924 13.6499 19.1297 13.7026 19.0879 13.7707C19.046 13.8389 19.0273 13.9187 19.0345 13.9983C19.0399 14.0199 19.2892 16.3939 19.0732 17.5593C18.9832 18.0344 17.8799 18.3476 16.3429 18.3476H15.9649C15.1505 18.3476 14.8589 18.7688 14.8589 19.1575V21.8879C14.861 22.007 14.8316 22.1245 14.7738 22.2286C14.7159 22.3327 14.6317 22.4197 14.5295 22.4809C12.7387 23.5383 8.62604 23.55 6.8091 22.5034C6.7124 22.4451 6.63536 22.3592 6.58789 22.2567C6.54042 22.1542 6.52469 22.0399 6.54272 21.9284C6.70381 20.8386 6.8334 18.6887 5.91278 16.6512C5.6599 16.0906 5.28283 15.637 4.89767 15.1619C3.90775 13.9533 2.68566 12.454 2.68566 8.06149V8.0183C2.72436 1.0889 9.37118 0.745135 10.704 0.745135C10.7621 0.746207 10.8202 0.742293 10.8776 0.733436H11.2763C12.9106 0.733436 18.3011 1.25179 19.0831 7.92111C19.0939 8.07229 19.2343 8.97851 21.2258 12.0967C21.2258 12.0967 21.2312 12.0967 21.2312 12.1075C21.3027 12.212 21.332 12.3396 21.3131 12.4648V12.4657Z" fill="#0596DE"/>
        <path d="M16.0386 6.14105C16.0494 6.08615 16.0719 6.04296 16.0818 6.00066C16.1718 5.5907 16.1383 5.16325 15.9855 4.77233C15.8326 4.38141 15.5673 4.04457 15.2231 3.80438C14.8789 3.56418 14.4712 3.43141 14.0516 3.42285C13.6319 3.41428 13.2192 3.53031 12.8655 3.75626C12.7068 3.32933 12.4182 2.96295 12.0402 2.70875C11.773 2.53704 11.4708 2.42712 11.1557 2.38699C10.8406 2.34685 10.5205 2.37752 10.2188 2.47675C9.91701 2.57599 9.6412 2.74129 9.41142 2.96061C9.18164 3.17993 9.00368 3.44775 8.89051 3.74456C8.83111 3.71306 8.77172 3.67976 8.71772 3.64736C8.34892 3.45903 7.93305 3.38277 7.52142 3.42799C7.10978 3.47321 6.72039 3.63793 6.40127 3.90184C6.08215 4.16575 5.84725 4.5173 5.72557 4.91313C5.60388 5.30896 5.60072 5.73175 5.71648 6.12935C5.16982 6.16844 4.6596 6.41796 4.2931 6.82546C3.92661 7.23295 3.73238 7.76668 3.75126 8.31441C3.77014 8.86215 4.00065 9.38123 4.39434 9.76253C4.78802 10.1438 5.31421 10.3576 5.86227 10.359H5.87847C5.97394 10.359 6.0655 10.3211 6.13301 10.2535C6.20051 10.186 6.23844 10.0945 6.23844 9.99901C6.23844 9.90354 6.20051 9.81198 6.13301 9.74447C6.0655 9.67697 5.97394 9.63904 5.87847 9.63904H5.86227C5.68191 9.63995 5.50315 9.6051 5.33633 9.53652C5.16951 9.46794 5.01793 9.36698 4.89036 9.23948C4.75975 9.11136 4.65583 8.95863 4.58462 8.79011C4.51341 8.62158 4.47632 8.44061 4.47549 8.25766C4.47475 7.88898 4.61933 7.53487 4.87791 7.27208C5.1365 7.00928 5.48823 6.85899 5.85687 6.85379C5.94428 6.8545 6.0313 6.86568 6.11605 6.88708C6.30298 7.10536 6.52763 7.28826 6.77929 7.42703C6.85282 7.46199 6.92858 7.49205 7.00607 7.51703C7.04413 7.53799 7.08681 7.54913 7.13026 7.54942C7.20405 7.54863 7.27588 7.52563 7.3364 7.48341C7.39692 7.44119 7.44331 7.38172 7.46953 7.31274C7.48891 7.26812 7.49882 7.21996 7.49865 7.17131C7.49847 7.12265 7.4882 7.07457 7.4685 7.03008C7.44879 6.9856 7.42008 6.94568 7.38416 6.91286C7.34825 6.88004 7.30592 6.85502 7.25985 6.83939L7.11406 6.77459C6.91534 6.66764 6.74384 6.51647 6.61281 6.33273C6.46493 6.1254 6.37704 5.88134 6.35878 5.62733C6.34052 5.37333 6.39261 5.1192 6.50932 4.89286C6.67935 4.56593 6.97133 4.31915 7.32202 4.20595C7.67271 4.09276 8.05387 4.12228 8.38295 4.28811C8.52129 4.36594 8.64971 4.46022 8.76542 4.56888C8.78307 4.94583 8.89609 5.31213 9.09389 5.63349C9.12743 5.68413 9.17324 5.72545 9.22706 5.75362C9.28087 5.78178 9.34094 5.79587 9.40166 5.79458C9.47156 5.79777 9.54073 5.77922 9.59964 5.74148C9.68041 5.68799 9.73696 5.60496 9.75715 5.51022C9.77735 5.41548 9.75957 5.3166 9.70763 5.23483C9.56207 5.00931 9.48517 4.74637 9.48629 4.47796C9.48741 4.20955 9.5665 3.94725 9.71393 3.72296C9.81278 3.5687 9.94146 3.43575 10.0924 3.33192C10.2434 3.22809 10.4135 3.15548 10.593 3.11834C10.7724 3.0812 10.9574 3.08029 11.1371 3.11565C11.3169 3.15102 11.4878 3.22196 11.6398 3.32429C11.814 3.43649 11.9601 3.58731 12.0667 3.76507C12.1733 3.94282 12.2375 4.14273 12.2544 4.3493C12.1092 4.56871 12.0049 4.81263 11.9466 5.06924C11.9101 5.2213 11.8919 5.37721 11.8926 5.5336C11.8917 5.58147 11.9003 5.62906 11.918 5.67357C11.9356 5.71807 11.962 5.75861 11.9955 5.7928C12.029 5.827 12.069 5.85416 12.1132 5.87269C12.1573 5.89123 12.2047 5.90078 12.2526 5.90077H12.258C12.3059 5.90078 12.3533 5.89123 12.3974 5.87269C12.4416 5.85416 12.4816 5.827 12.5151 5.7928C12.5487 5.75861 12.575 5.71807 12.5927 5.67357C12.6103 5.62906 12.6189 5.58147 12.618 5.5336C12.621 5.42777 12.6349 5.32253 12.6594 5.21953C12.7075 5.02253 12.7978 4.83831 12.924 4.67957C13.0847 4.46961 13.3024 4.31029 13.5512 4.22062C13.7999 4.13095 14.0692 4.1147 14.3269 4.17382C14.5373 4.22705 14.7327 4.32771 14.8982 4.4681C15.0638 4.60848 15.195 4.78486 15.2818 4.98375C15.3686 5.18263 15.4089 5.39875 15.3993 5.61556C15.3898 5.83237 15.3308 6.04413 15.2269 6.23464C14.8307 6.36278 14.4809 6.60434 14.2207 6.92938C14.1908 6.9662 14.1685 7.00856 14.155 7.05404C14.1416 7.09952 14.1372 7.14721 14.1422 7.19438C14.1472 7.24155 14.1615 7.28726 14.1843 7.32888C14.207 7.37051 14.2378 7.40723 14.2747 7.43693C14.3398 7.48659 14.4197 7.5129 14.5015 7.51163C14.5567 7.51293 14.6114 7.50084 14.661 7.47639C14.7105 7.45194 14.7534 7.41586 14.7859 7.37124C14.9853 7.13128 15.2561 6.96132 15.5589 6.88618C15.6615 6.8641 15.7662 6.85294 15.8712 6.85288C16.2411 6.85288 16.5959 6.99984 16.8575 7.26143C17.1191 7.52303 17.2661 7.87782 17.2661 8.24776C17.2661 8.61771 17.1191 8.9725 16.8575 9.23409C16.5959 9.49568 16.2411 9.64264 15.8712 9.64264C15.8234 9.64263 15.7761 9.65215 15.732 9.67063C15.6879 9.68911 15.6479 9.71619 15.6144 9.75029C15.5809 9.78439 15.5545 9.82482 15.5368 9.86922C15.5191 9.91362 15.5104 9.96111 15.5112 10.0089C15.5104 10.0564 15.5191 10.1036 15.5369 10.1477C15.5547 10.1917 15.5812 10.2317 15.6148 10.2653C15.6484 10.2989 15.6884 10.3254 15.7324 10.3432C15.7765 10.361 15.8237 10.3697 15.8712 10.3689C16.4199 10.3734 16.9488 10.1643 17.3459 9.78568C17.7431 9.4071 17.9774 8.88883 17.9991 8.34057C18.0209 7.79231 17.8284 7.2571 17.4625 6.84825C17.0966 6.4394 16.5859 6.18899 16.0386 6.15005V6.14105Z" fill="#0596DE"/>
        <path d="M15.053 11.3956L13.839 11.2013L14.559 10.2113C14.6037 10.1506 14.6278 10.0771 14.6278 10.0017C14.6278 9.92622 14.6037 9.85274 14.559 9.79199C14.2698 9.38963 13.9184 9.03601 13.5178 8.74448C13.4546 8.70223 13.3804 8.67967 13.3045 8.67967C13.2285 8.67967 13.1543 8.70223 13.0912 8.74448L12.1013 9.46441L11.9069 8.24412C11.8934 8.17011 11.8571 8.10219 11.803 8.04989C11.7489 7.9976 11.6798 7.96355 11.6054 7.95255C11.1181 7.86705 10.6196 7.86705 10.1322 7.95255C10.0581 7.96298 9.98918 7.99693 9.93573 8.04941C9.88227 8.10189 9.84706 8.17014 9.83527 8.24412L9.64089 9.46441L8.64288 8.74448C8.58078 8.70223 8.50741 8.67964 8.4323 8.67964C8.35719 8.67964 8.28381 8.70223 8.22171 8.74448C7.82016 9.03348 7.46846 9.38608 7.18051 9.78839C7.13669 9.84952 7.11313 9.92285 7.11313 9.99807C7.11313 10.0733 7.13669 10.1466 7.18051 10.2077L7.90044 11.1977L6.69185 11.392C6.61511 11.4042 6.54424 11.4405 6.48954 11.4957C6.43484 11.5509 6.39916 11.6221 6.38767 11.6989C6.34646 11.9412 6.32658 12.1866 6.32828 12.4324C6.32615 12.6781 6.34603 12.9236 6.38767 13.1658C6.3989 13.2419 6.43424 13.3125 6.4885 13.367C6.54276 13.4216 6.61308 13.4574 6.68915 13.4691L7.89774 13.6625L7.17781 14.6525C7.13343 14.7157 7.10962 14.7912 7.10962 14.8684C7.10962 14.9457 7.13343 15.0211 7.17781 15.0844C7.46628 15.4837 7.81797 15.8333 8.21901 16.1193C8.27902 16.1666 8.35319 16.1923 8.4296 16.1923C8.506 16.1923 8.58018 16.1666 8.64018 16.1193L9.63819 15.3994L9.83257 16.6188C9.84639 16.6932 9.88243 16.7616 9.93592 16.8151C9.98942 16.8686 10.0579 16.9046 10.1322 16.9185C10.3773 16.953 10.6245 16.9711 10.872 16.9725C11.1189 16.9708 11.3654 16.9528 11.6099 16.9185C11.6838 16.9032 11.7515 16.8663 11.8044 16.8124C11.8573 16.7586 11.8929 16.6902 11.9069 16.6161L12.1013 15.3967L13.0912 16.1166C13.1522 16.1639 13.2273 16.1896 13.3045 16.1896C13.3817 16.1896 13.4567 16.1639 13.5178 16.1166C13.9163 15.8277 14.2676 15.4785 14.559 15.0817C14.6037 15.0186 14.6277 14.9431 14.6277 14.8657C14.6277 14.7884 14.6037 14.7129 14.559 14.6498L13.839 13.6598L15.053 13.4664C15.1291 13.4547 15.1994 13.4189 15.2537 13.3643C15.3079 13.3098 15.3433 13.2392 15.3545 13.1631C15.3933 12.9205 15.4135 12.6753 15.4148 12.4297C15.413 12.184 15.3929 11.9388 15.3545 11.6962C15.3411 11.6213 15.305 11.5523 15.2511 11.4985C15.1971 11.4447 15.128 11.4088 15.053 11.3956ZM14.6697 12.7986L13.5151 12.9786C13.449 12.9893 13.3872 13.0182 13.3366 13.0621C13.2861 13.106 13.2488 13.1631 13.2289 13.227C13.1911 13.3242 13.1479 13.4214 13.0939 13.5393C13.0645 13.5993 13.0521 13.6663 13.0579 13.7329C13.0638 13.7995 13.0877 13.8632 13.1272 13.9172L13.812 14.8666C13.6597 15.0516 13.4901 15.2216 13.3054 15.3742L12.3551 14.6867C12.3 14.6499 12.2365 14.6277 12.1706 14.6222C12.1046 14.6167 12.0384 14.628 11.978 14.6552C11.874 14.7074 11.7674 14.7543 11.6585 14.7955C11.5963 14.8154 11.5408 14.852 11.4981 14.9014C11.4554 14.9508 11.4271 15.011 11.4164 15.0754L11.2365 16.2309C10.9969 16.2514 10.7561 16.2514 10.5165 16.2309L10.3365 15.0754C10.3248 15.0106 10.2956 14.9502 10.2519 14.9009C10.2083 14.8515 10.152 14.8151 10.0891 14.7955C9.98106 14.7524 9.87217 14.7056 9.77678 14.666C9.7187 14.6319 9.65189 14.6157 9.58468 14.6194C9.51747 14.6231 9.45282 14.6465 9.39881 14.6867L8.44849 15.3778C8.26292 15.2243 8.09154 15.0545 7.93644 14.8702L8.62758 13.9208C8.66663 13.8665 8.68977 13.8023 8.69438 13.7356C8.69899 13.6688 8.68489 13.6021 8.65368 13.5429C8.59946 13.4416 8.55254 13.3367 8.51329 13.2288C8.4934 13.1649 8.45608 13.1078 8.40553 13.0639C8.35498 13.02 8.29319 12.9911 8.22711 12.9804L7.06712 12.8004C7.05632 12.6708 7.05092 12.5529 7.05092 12.4333C7.05092 12.3136 7.05632 12.1957 7.06712 12.0778L8.22711 11.8978C8.29296 11.8865 8.35446 11.8574 8.40492 11.8136C8.45537 11.7698 8.49286 11.713 8.51329 11.6494C8.54524 11.5407 8.58868 11.4357 8.64288 11.3363C8.67409 11.2771 8.68819 11.2103 8.68358 11.1436C8.67897 11.0768 8.65584 11.0126 8.61678 10.9583L7.92564 10.0089C8.08099 9.82515 8.25235 9.6556 8.4377 9.50221L9.38801 10.1817C9.43974 10.2234 9.50278 10.2487 9.56902 10.2543C9.63526 10.2599 9.70166 10.2456 9.75968 10.2131C9.86313 10.1622 9.96951 10.1174 10.0783 10.0791C10.1426 10.0587 10.1999 10.0206 10.2437 9.96923C10.2875 9.91783 10.3159 9.85517 10.3257 9.78839L10.5057 8.63379C10.7452 8.61151 10.9862 8.61151 11.2257 8.63379L11.4056 9.78839C11.4155 9.85517 11.4439 9.91783 11.4877 9.96923C11.5314 10.0206 11.5888 10.0587 11.6531 10.0791C11.7603 10.1157 11.8651 10.1587 11.9672 10.2077C12.0261 10.2403 12.0934 10.2547 12.1605 10.2491C12.2276 10.2435 12.2915 10.2181 12.3443 10.1763L13.2883 9.49681C13.4762 9.6476 13.6481 9.81738 13.8012 10.0035L13.1164 10.9529C13.0768 11.0068 13.0527 11.0706 13.0468 11.1372C13.041 11.2039 13.0535 11.2708 13.0831 11.3309C13.1371 11.4388 13.1803 11.5459 13.2181 11.644C13.2385 11.7076 13.276 11.7644 13.3264 11.8082C13.3769 11.852 13.4384 11.8811 13.5043 11.8924L14.6589 12.0724C14.6697 12.1903 14.675 12.3208 14.675 12.4279C14.675 12.5349 14.6804 12.669 14.6697 12.7986Z" fill="#0596DE"/>
        <path d="M10.8724 10.8892C10.5671 10.889 10.2685 10.9794 10.0146 11.1489C9.76066 11.3184 9.5627 11.5594 9.44578 11.8415C9.32885 12.1235 9.29821 12.4339 9.35774 12.7334C9.41726 13.0329 9.56427 13.308 9.78017 13.5238C9.99606 13.7397 10.2711 13.8868 10.5706 13.9463C10.8701 14.0058 11.1805 13.9752 11.4625 13.8582C11.7446 13.7413 11.9856 13.5434 12.1551 13.2894C12.3246 13.0355 12.415 12.737 12.4149 12.4316C12.4134 12.023 12.2505 11.6315 11.9615 11.3425C11.6725 11.0535 11.281 10.8906 10.8724 10.8892ZM10.8724 13.2515C10.7102 13.2515 10.5517 13.2034 10.4169 13.1133C10.2821 13.0232 10.177 12.8952 10.115 12.7454C10.0529 12.5956 10.0367 12.4307 10.0683 12.2717C10.0999 12.1127 10.178 11.9666 10.2927 11.8519C10.4073 11.7373 10.5534 11.6592 10.7124 11.6276C10.8715 11.5959 11.0363 11.6122 11.1861 11.6742C11.3359 11.7363 11.464 11.8413 11.5541 11.9762C11.6441 12.111 11.6922 12.2695 11.6922 12.4316C11.692 12.649 11.6055 12.8574 11.4518 13.0111C11.2981 13.1648 11.0897 13.2512 10.8724 13.2515Z" fill="#0596DE"/>
    </g>
    <defs>
        <clipPath id="clip0_2686_12404">
            <rect width="24" height="24" fill="white"/>
        </clipPath>
    </defs>
</svg>
