<svg width="32" height="32" viewBox="0 0 32 32" fill="none" xmlns="http://www.w3.org/2000/svg">
    <path d="M16 27.0625H16.0001C18.933 27.0592 21.7448 25.8926 23.8187 23.8187C25.8926 21.7448 27.0592 18.933 27.0625 16.0001V16C27.0625 13.812 26.4137 11.6732 25.1981 9.854C23.9826 8.03479 22.2548 6.61688 20.2334 5.77958C18.212 4.94229 15.9877 4.72321 13.8418 5.15006C11.6959 5.57691 9.72476 6.63051 8.17764 8.17763C6.63052 9.72475 5.57692 11.6959 5.15007 13.8418C4.72322 15.9877 4.94229 18.212 5.77959 20.2334C6.61688 22.2548 8.03479 23.9826 9.85401 25.1981C11.6732 26.4137 13.812 27.0625 16 27.0625ZM8.81232 5.24286C10.9399 3.82128 13.4412 3.06251 16 3.0625C19.4301 3.06613 22.7187 4.43035 25.1442 6.85583C27.5697 9.28131 28.9339 12.5699 28.9375 16.0001C28.9375 18.5588 28.1787 21.0601 26.7571 23.1877C25.3356 25.3152 23.315 26.9735 20.951 27.9527C18.587 28.9319 15.9857 29.1881 13.476 28.6889C10.9664 28.1897 8.66115 26.9575 6.85181 25.1482C5.04247 23.3389 3.81029 21.0336 3.3111 18.524C2.8119 16.0144 3.06811 13.4131 4.04731 11.049C5.02652 8.68501 6.68475 6.66445 8.81232 5.24286ZM23.9375 16.0001C23.9375 17.5699 23.472 19.1045 22.5998 20.4098C21.7276 21.7152 20.4879 22.7325 19.0376 23.3333C17.5872 23.9341 15.9912 24.0913 14.4515 23.785C12.9118 23.4787 11.4974 22.7227 10.3873 21.6127C9.27727 20.5026 8.52129 19.0883 8.21502 17.5485C7.90875 16.0088 8.06594 14.4128 8.66671 12.9625C9.26748 11.5121 10.2849 10.2724 11.5902 9.40021C12.8955 8.52804 14.4301 8.06251 15.9999 8.0625C18.1044 8.0648 20.122 8.90181 21.6101 10.3899C23.0982 11.878 23.9352 13.8956 23.9375 16.0001Z" fill="#0596DE" stroke="#0596DE" stroke-width="0.125"/>
</svg>
