<svg width="24" height="24" viewBox="0 0 24 24" fill="none" xmlns="http://www.w3.org/2000/svg">
    <g clip-path="url(#clip0_2686_18375)">
        <path d="M2.14504 18.9398C2.07152 18.8828 1.97837 18.8574 1.88608 18.8691C1.7938 18.8808 1.70994 18.9286 1.65295 19.0022C0.89184 19.984 0.472656 21.2081 0.472656 22.4488V23.6249C0.472656 23.8186 0.629704 23.9756 0.823418 23.9756C1.01713 23.9756 1.17418 23.8186 1.17418 23.6249V22.4488C1.17418 21.3629 1.54112 20.2915 2.20738 19.4319C2.2356 19.3955 2.25638 19.3539 2.26852 19.3095C2.28066 19.265 2.28393 19.2186 2.27814 19.173C2.27235 19.1273 2.25762 19.0831 2.23478 19.0431C2.21194 19.0031 2.18145 18.968 2.14504 18.9398ZM6.12249 20.9489H3.23329C2.90521 20.9489 2.63826 21.2158 2.63826 21.544V22.6214C2.63826 22.9495 2.90521 23.2164 3.23329 23.2164H6.12249C6.45057 23.2164 6.71752 22.9495 6.71752 22.6214V21.544C6.71752 21.2158 6.45057 20.9489 6.12249 20.9489ZM6.016 22.5149H3.33978V21.6505H6.016V22.5149ZM21.384 13.4358C21.3127 13.376 21.2205 13.3471 21.1279 13.3553C21.0352 13.3635 20.9496 13.4082 20.8899 13.4796C20.8301 13.5509 20.8012 13.643 20.8094 13.7357C20.8176 13.8284 20.8623 13.914 20.9337 13.9737C22.1359 14.9802 22.8254 16.4556 22.8254 18.0215C22.8254 20.9313 20.4581 23.2985 17.5484 23.2985C14.6387 23.2985 12.2714 20.9313 12.2714 18.0215C12.2714 15.1117 14.6387 12.7444 17.5484 12.7444C18.3137 12.7444 19.052 12.9048 19.7428 13.2211C19.7846 13.2403 19.8299 13.251 19.8759 13.2527C19.9219 13.2544 19.9678 13.247 20.011 13.231C20.0542 13.2149 20.0938 13.1905 20.1275 13.1592C20.1613 13.1278 20.1885 13.0901 20.2077 13.0482C20.2269 13.0064 20.2376 12.9611 20.2393 12.9151C20.241 12.869 20.2336 12.8231 20.2175 12.78C20.2015 12.7368 20.1771 12.6972 20.1457 12.6634C20.1144 12.6297 20.0767 12.6024 20.0348 12.5833C19.2518 12.2247 18.4153 12.0429 17.5484 12.0429C16.7885 12.0429 16.0615 12.1857 15.3923 12.4453C15.4604 12.1591 15.4949 11.866 15.4951 11.5718V7.11756C15.4951 5.2755 14.7939 3.52829 13.5207 2.19764C13.4564 2.13043 13.368 2.09152 13.275 2.08948C13.182 2.08744 13.092 2.12242 13.0248 2.18674C12.9576 2.25105 12.9186 2.33944 12.9166 2.43244C12.9145 2.52544 12.9495 2.61546 13.0138 2.68267C14.1615 3.88209 14.7936 5.4571 14.7936 7.11756V11.5718C14.793 12.0234 14.6938 12.4695 14.5027 12.8788C14.2006 13.0585 13.9147 13.2642 13.6484 13.4938C13.6289 13.3109 13.4703 13.173 13.2842 13.1807C13.1913 13.1849 13.1039 13.2259 13.0411 13.2946C12.9784 13.3633 12.9455 13.454 12.9497 13.547L12.9712 14.0218C12.3581 14.7667 11.5589 15.3186 10.6455 15.6277V14.822C12.0022 13.9282 12.8574 12.3954 12.8574 10.7225V6.8298C12.8567 6.28244 12.6702 5.75154 12.3284 5.32405C12.2779 5.26116 12.2134 5.21099 12.14 5.17757C12.0666 5.14416 11.9864 5.12842 11.9058 5.13164C11.8253 5.13506 11.7466 5.15727 11.6762 5.19651C11.6058 5.23575 11.5455 5.29093 11.5002 5.35763L10.9615 6.15437C10.7066 6.53174 10.3654 6.84291 9.96629 7.06206C9.56712 7.28122 9.12146 7.40203 8.66626 7.41449L9.87807 6.10718C9.90938 6.0734 9.93374 6.03378 9.94974 5.99059C9.96574 5.94739 9.97308 5.90147 9.97133 5.85544C9.96959 5.80941 9.95879 5.76417 9.93956 5.72232C9.92034 5.68046 9.89305 5.6428 9.85927 5.61148C9.82549 5.58016 9.78588 5.5558 9.74269 5.53979C9.69949 5.52378 9.65357 5.51644 9.60754 5.51818C9.56151 5.51992 9.51627 5.53071 9.47441 5.54994C9.43255 5.56917 9.39489 5.59645 9.36357 5.63024L8.13727 6.95317C7.97543 7.12732 7.77948 7.26628 7.56161 7.3614C7.34373 7.45652 7.10861 7.50577 6.87088 7.50606H6.3749C6.60914 7.32174 6.81831 7.10761 6.9971 6.86913L7.96123 5.58137C8.01698 5.50689 8.04087 5.41332 8.02764 5.32124C8.0144 5.22916 7.96513 5.1461 7.89066 5.09035C7.81618 5.03459 7.72261 5.0107 7.63053 5.02394C7.53845 5.03717 7.45539 5.08645 7.39964 5.16092L6.43551 6.44868C5.95628 7.0888 5.2129 7.48909 4.41961 7.54245L5.26574 6.3558C5.29249 6.3183 5.31158 6.27589 5.32194 6.23101C5.3323 6.18612 5.33371 6.13964 5.3261 6.09421C5.31849 6.04878 5.30201 6.00529 5.2776 5.96623C5.25318 5.92717 5.22131 5.8933 5.18381 5.86656C5.10807 5.81256 5.01398 5.79086 4.92224 5.80622C4.8305 5.82159 4.74862 5.87277 4.69461 5.9485L3.52367 7.59067C3.47899 7.65296 3.45241 7.7264 3.44688 7.80286C3.44135 7.87931 3.45709 7.95581 3.49234 8.02388C3.52637 8.09017 3.57762 8.14607 3.6407 8.18573C3.70378 8.22538 3.77638 8.24733 3.85086 8.24926V10.7365C3.85086 12.4265 4.72613 13.9765 6.10949 14.8661V15.6276C5.19611 15.3186 4.39693 14.7667 3.78385 14.0218L3.80536 13.5469C3.80745 13.5009 3.80045 13.4549 3.78476 13.4116C3.76908 13.3683 3.74502 13.3285 3.71395 13.2945C3.68289 13.2605 3.64543 13.2329 3.60371 13.2134C3.562 13.1939 3.51684 13.1828 3.47083 13.1807C3.27777 13.171 3.11328 13.3217 3.10454 13.5152L3.08475 13.9519L3.07839 13.9467C2.36855 13.359 1.96143 12.4933 1.96143 11.5717V7.11751C1.96148 3.57973 4.83973 0.701523 8.37751 0.701523C9.63436 0.701523 10.8516 1.06519 11.8978 1.7532C11.9755 1.80432 12.0704 1.82246 12.1615 1.80364C12.2526 1.78481 12.3325 1.73057 12.3836 1.65284C12.4347 1.5751 12.4529 1.48025 12.4341 1.38914C12.4152 1.29802 12.361 1.21812 12.2833 1.16701C11.1223 0.403563 9.77172 0 8.37751 0C4.45291 0 1.25995 3.19291 1.25995 7.11756V11.5718C1.25995 12.703 1.75972 13.7656 2.63101 14.4871L3.02971 14.8172C3.1097 14.8839 3.21048 14.9204 3.31457 14.9205C3.37732 14.9204 3.43936 14.9072 3.49669 14.8817C3.52351 14.8695 3.54908 14.8547 3.57301 14.8375C4.25078 15.5329 5.08737 16.0465 6.02451 16.338L3.8381 17.2972C3.47436 17.457 3.12854 17.6549 2.80639 17.8874C2.76904 17.9144 2.73736 17.9484 2.71317 17.9876C2.68898 18.0268 2.67275 18.0704 2.6654 18.1159C2.65805 18.1613 2.65973 18.2078 2.67035 18.2526C2.68096 18.2975 2.7003 18.3398 2.72726 18.3771C2.75976 18.4222 2.80253 18.459 2.85204 18.4843C2.90155 18.5096 2.95638 18.5227 3.01198 18.5226C3.0856 18.5227 3.15734 18.4994 3.21697 18.4563C3.49894 18.2527 3.80164 18.0795 4.12002 17.9396L6.10051 17.0707L7.93205 20.2606C7.97713 20.3389 8.04202 20.4039 8.1202 20.4493C8.19838 20.4946 8.2871 20.5185 8.37747 20.5187H8.37779C8.56113 20.5187 8.73178 20.4201 8.82321 20.2612L10.6594 17.0728L11.5944 17.483C11.5785 17.6605 11.5699 17.84 11.5699 18.0215C11.5699 21.318 14.2518 24 17.5484 24C20.8449 24 23.5269 21.318 23.5269 18.0215C23.5269 16.2474 22.7458 14.576 21.384 13.4358ZM4.55243 10.7366V8.23542C4.62643 8.22849 4.70017 8.21914 4.77355 8.2074C4.77524 8.2074 4.77683 8.20763 4.77851 8.20763H6.87097C7.09307 8.20763 7.31227 8.17625 7.52306 8.11723H8.58587C9.16957 8.1176 9.74444 7.97464 10.26 7.70091C10.7755 7.42718 11.216 7.03105 11.5426 6.54732L11.9277 5.97782C12.0768 6.23702 12.1555 6.53075 12.1559 6.8298V10.7225C12.1559 12.4992 11.0309 14.0921 9.35656 14.6861L9.32186 14.6984C8.67908 14.9257 7.97754 14.9243 7.3357 14.6943C5.6709 14.0961 4.55243 12.5056 4.55243 10.7366ZM8.37798 19.6285L6.72828 16.7554C6.7816 16.6923 6.81092 16.6124 6.81106 16.5298V15.2399C6.90534 15.2807 7.00084 15.3194 7.0984 15.3545C7.49499 15.4968 7.91319 15.5695 8.33453 15.5693C8.75074 15.5695 9.16392 15.4986 9.55626 15.3597L9.59096 15.3474C9.71115 15.3047 9.82887 15.2576 9.94401 15.2063V16.5299C9.94401 16.6161 9.97572 16.6972 10.0301 16.7598L8.37798 19.6285ZM10.7306 16.338C11.1796 16.1984 11.6102 16.0054 12.0132 15.763C11.8805 16.0871 11.7767 16.4223 11.7032 16.7647L10.7306 16.338Z" fill="#0596DE"/>
        <path d="M20.6108 15.891H20.8213V16.1317C20.8213 16.3255 20.9783 16.4825 21.172 16.4825C21.3657 16.4825 21.5228 16.3255 21.5228 16.1317V15.5402C21.5228 15.4472 21.4858 15.358 21.42 15.2922C21.3543 15.2264 21.265 15.1895 21.172 15.1895H20.6108C20.4171 15.1895 20.2601 15.3465 20.2601 15.5402C20.2601 15.734 20.4171 15.891 20.6108 15.891ZM14.2718 16.1318V15.891H14.4822C14.676 15.891 14.833 15.734 14.833 15.5403C14.833 15.3465 14.676 15.1895 14.4822 15.1895H13.9211C13.828 15.1895 13.7388 15.2265 13.673 15.2922C13.6073 15.358 13.5703 15.4472 13.5703 15.5403V16.1318C13.5703 16.2248 13.6073 16.314 13.673 16.3798C13.7388 16.4456 13.828 16.4825 13.9211 16.4825C14.0141 16.4825 14.1033 16.4456 14.1691 16.3798C14.2349 16.314 14.2718 16.2248 14.2718 16.1318ZM20.8213 19.9113V20.152H20.6108C20.4171 20.152 20.2601 20.309 20.2601 20.5028C20.2601 20.6966 20.4171 20.8536 20.6108 20.8536H21.172C21.265 20.8536 21.3543 20.8166 21.42 20.7508C21.4858 20.685 21.5228 20.5958 21.5228 20.5028V19.9113C21.5228 19.8183 21.4858 19.7291 21.42 19.6633C21.3543 19.5975 21.265 19.5606 21.172 19.5606C21.079 19.5606 20.9898 19.5975 20.924 19.6633C20.8582 19.7291 20.8213 19.8183 20.8213 19.9113ZM13.9211 19.5606C13.828 19.5606 13.7388 19.5975 13.673 19.6633C13.6073 19.7291 13.5703 19.8183 13.5703 19.9113V20.5028C13.5703 20.5958 13.6073 20.685 13.673 20.7508C13.7388 20.8166 13.828 20.8536 13.9211 20.8536H14.4822C14.676 20.8536 14.833 20.6966 14.833 20.5028C14.833 20.309 14.676 20.152 14.4822 20.152H14.2718V19.9113C14.2718 19.8183 14.2349 19.7291 14.1691 19.6633C14.1033 19.5975 14.0141 19.5606 13.9211 19.5606Z" fill="#0596DE"/>
        <path d="M22.2403 17.5778C22.2403 17.4847 22.2033 17.3955 22.1375 17.3298C22.0718 17.264 21.9825 17.227 21.8895 17.227H18.5946V16.8275L19.2083 16.3331C19.3544 16.2153 19.4741 16.068 19.5597 15.9009C19.6453 15.7337 19.6947 15.5505 19.7049 15.363C19.7149 15.1755 19.6853 14.988 19.6181 14.8127C19.551 14.6374 19.4477 14.4781 19.315 14.3453C18.8339 13.8641 18.0742 13.8269 17.5499 14.2334C17.0255 13.8269 16.2659 13.8641 15.7847 14.3453C15.652 14.4781 15.5487 14.6374 15.4815 14.8127C15.4144 14.9881 15.3848 15.1756 15.3948 15.3631C15.405 15.5505 15.4544 15.7338 15.54 15.9009C15.6255 16.068 15.7453 16.2153 15.8914 16.3331L16.5051 16.8275V17.227H13.2101C13.0164 17.227 12.8594 17.384 12.8594 17.5778C12.8594 17.7715 13.0164 17.9285 13.2101 17.9285H16.5051V19.1221L15.8914 19.6165C15.7453 19.7343 15.6255 19.8816 15.54 20.0487C15.4544 20.2158 15.4049 20.3991 15.3948 20.5866C15.3848 20.7741 15.4144 20.9615 15.4815 21.1369C15.5487 21.3122 15.652 21.4714 15.7847 21.6043V21.6043C16.0456 21.8652 16.3881 21.9955 16.7307 21.9955C17.0202 21.9955 17.3097 21.9024 17.5499 21.7162C18.0742 22.1227 18.8338 22.0854 19.315 21.6043C19.4477 21.4714 19.551 21.3122 19.6182 21.1369C19.6853 20.9615 19.7149 20.7741 19.7049 20.5866C19.6948 20.3991 19.6453 20.2158 19.5597 20.0487C19.4742 19.8816 19.3544 19.7343 19.2083 19.6164L18.5946 19.122V17.9285H21.8895C21.9356 17.9285 21.9812 17.9194 22.0237 17.9018C22.0663 17.8842 22.105 17.8584 22.1375 17.8258C22.1701 17.7932 22.196 17.7546 22.2136 17.712C22.2312 17.6694 22.2403 17.6238 22.2403 17.5778ZM17.076 16.3865L16.3315 15.7868C16.189 15.672 16.1051 15.5081 16.0953 15.3254C16.0854 15.1427 16.1513 14.9707 16.2807 14.8413C16.5288 14.5932 16.9326 14.5932 17.1807 14.8414C17.3842 15.045 17.7155 15.0448 17.919 14.8413C18.1671 14.5931 18.5708 14.5931 18.8189 14.8413C18.9483 14.9707 19.0142 15.1426 19.0043 15.3254C18.9946 15.5081 18.9107 15.672 18.7681 15.7868L18.0237 16.3865C17.9829 16.4194 17.95 16.461 17.9273 16.5082C17.9047 16.5555 17.893 16.6073 17.893 16.6597V17.227H17.2066V16.6597C17.2066 16.6073 17.1949 16.5555 17.1723 16.5083C17.1497 16.461 17.1168 16.4194 17.076 16.3865ZM18.0238 19.563L18.7682 20.1627C18.9107 20.2776 18.9946 20.4414 19.0044 20.6242C19.0142 20.8069 18.9484 20.9788 18.819 21.1082C18.5708 21.3563 18.1671 21.3563 17.919 21.1082C17.7155 20.9047 17.3842 20.9046 17.1807 21.1082C16.9326 21.3564 16.5289 21.3563 16.2807 21.1082V21.1083C16.1513 20.9788 16.0855 20.8069 16.0953 20.6242C16.1051 20.4414 16.189 20.2776 16.3315 20.1627L17.076 19.563C17.1168 19.5302 17.1497 19.4886 17.1723 19.4413C17.195 19.394 17.2067 19.3423 17.2067 19.2899V17.9285H17.8931V19.2899C17.8931 19.3423 17.9048 19.394 17.9274 19.4413C17.95 19.4886 17.9829 19.5302 18.0238 19.563Z" fill="#0596DE"/>
    </g>
    <defs>
        <clipPath id="clip0_2686_18375">
            <rect width="24" height="24" fill="white"/>
        </clipPath>
    </defs>
</svg>
