<svg width="20" height="20" viewBox="0 0 20 20" fill="none" xmlns="http://www.w3.org/2000/svg">
    <path d="M17.76 2.24062C17.6028 2.08353 17.4066 1.97119 17.1915 1.91517C16.9765 1.85914 16.7504 1.86145 16.5366 1.92187H16.5248L1.52952 6.47187C1.28543 6.54207 1.0685 6.68496 0.907646 6.88152C0.746787 7.07808 0.649622 7.31898 0.629091 7.57214C0.60856 7.8253 0.665637 8.0787 0.79272 8.29861C0.919804 8.51852 1.11086 8.6945 1.34046 8.80312L8.02952 11.9711L11.1975 18.6602C11.2975 18.8744 11.4567 19.0555 11.6563 19.1822C11.856 19.3088 12.0876 19.3757 12.3241 19.375C12.36 19.375 12.3959 19.3734 12.4319 19.3703C12.6841 19.3499 12.9241 19.2528 13.1196 19.0921C13.3151 18.9313 13.4568 18.7146 13.5256 18.4711L18.0725 3.47578C18.0725 3.47187 18.0725 3.46796 18.0725 3.46406C18.1337 3.25075 18.137 3.02499 18.0821 2.80998C18.0272 2.59497 17.916 2.39845 17.76 2.24062ZM12.3311 18.1133L12.3272 18.1242L9.25218 11.6328L12.9428 7.9414C13.0551 7.82324 13.1167 7.66589 13.1146 7.50292C13.1126 7.33994 13.0469 7.18423 12.9316 7.06898C12.8164 6.95372 12.6607 6.88806 12.4977 6.88597C12.3347 6.88388 12.1774 6.94554 12.0592 7.05781L8.3678 10.7484L1.87562 7.67343H1.88655L16.8756 3.12499L12.3311 18.1133Z" fill="white"/>
</svg>
