<svg width="24" height="24" viewBox="0 0 24 24" fill="none" xmlns="http://www.w3.org/2000/svg">
    <path d="M23.1875 11.9999V11.9998C23.189 10.1702 22.5145 8.40459 21.2938 7.04186L21.2931 7.04111C21.2333 6.97219 21.1605 6.91585 21.0788 6.87537C20.997 6.83489 20.9081 6.81107 20.8171 6.80531C20.726 6.79954 20.6348 6.81195 20.5486 6.8418C20.4624 6.87165 20.383 6.91835 20.3151 6.97918C20.2471 7.04001 20.1919 7.11375 20.1528 7.19611C20.1136 7.27847 20.0912 7.36781 20.0869 7.45891C20.0826 7.55001 20.0964 7.64106 20.1276 7.72675C20.1589 7.81245 20.2068 7.89107 20.2687 7.95805L20.2694 7.9588C21.2635 9.07029 21.813 10.5092 21.813 12.0003C21.813 13.4913 21.2636 14.93 20.2697 16.0415M23.1875 11.9999L20.2228 16.0002M23.1875 11.9999C23.1886 13.8295 22.5144 15.5951 21.2941 16.9584M23.1875 11.9999L21.3403 17.0005M20.2697 16.0415C20.2696 16.0416 20.2695 16.0417 20.2694 16.0418L20.2228 16.0002M20.2697 16.0415C20.2698 16.0413 20.2699 16.0412 20.27 16.0411L20.2228 16.0002M20.2697 16.0415C20.1517 16.1778 20.092 16.3549 20.1034 16.5349C20.1148 16.715 20.1965 16.8833 20.331 17.0037C20.4654 17.124 20.6418 17.1867 20.822 17.1782C21.0021 17.1696 21.1717 17.0907 21.2941 16.9584M20.2228 16.0002C20.0939 16.1489 20.0286 16.3424 20.041 16.5388C20.0535 16.7353 20.1426 16.919 20.2893 17.0503C20.436 17.1815 20.6284 17.2499 20.825 17.2406C21.0216 17.2313 21.2067 17.145 21.3403 17.0005M21.2941 16.9584C21.294 16.9585 21.2939 16.9587 21.2937 16.9588L21.3403 17.0005M21.2941 16.9584C21.2942 16.9583 21.2943 16.9582 21.2944 16.9581L21.3403 17.0005M13.8281 2.45762L13.8281 2.4576C13.9296 2.37857 14.0512 2.32959 14.1791 2.31622C14.307 2.30286 14.4361 2.32563 14.5517 2.38197C14.6674 2.43848 14.7649 2.52636 14.8331 2.63559C14.9014 2.74483 14.9375 2.87104 14.9375 2.99984V20.9998C14.9374 21.1284 14.9012 21.2545 14.8331 21.3636C14.7649 21.4727 14.6675 21.5605 14.5519 21.617C14.4363 21.6734 14.3072 21.6964 14.1793 21.6831C14.0513 21.6699 13.9296 21.621 13.8281 21.5421L7.28055 16.4505L7.26363 16.4373H7.24219H3C2.61875 16.4373 2.25312 16.2859 1.98353 16.0163C1.71395 15.7467 1.5625 15.3811 1.5625 14.9998V8.99985C1.5625 8.6186 1.71395 8.25297 1.98353 7.98338C2.25312 7.7138 2.61875 7.56235 3 7.56235H7.24219H7.26363L7.28055 7.54919L13.8281 2.45762ZM3 8.93735H2.9375V8.99985V14.9998V15.0623H3H6.75H6.8125V14.9998V8.99985V8.93735H6.75H3ZM13.4616 19.5154L13.5625 19.5939V19.4661V4.5336V4.40582L13.4616 4.48426L8.21163 8.56707L8.1875 8.58584V8.61641V15.3833V15.4139L8.21163 15.4326L13.4616 19.5154ZM18.5159 9.56274C19.1089 10.2361 19.4361 11.1026 19.4361 11.9998C19.4361 12.8971 19.1089 13.7636 18.5159 14.4369C18.3945 14.5702 18.2256 14.6504 18.0456 14.6603C17.8654 14.6702 17.6885 14.6088 17.5532 14.4895C17.4178 14.3701 17.3348 14.2024 17.322 14.0223C17.3093 13.8425 17.3677 13.6648 17.4847 13.5277C17.8563 13.1055 18.0613 12.5623 18.0613 11.9998C18.0613 11.4374 17.8563 10.8942 17.4847 10.472C17.3677 10.3348 17.3093 10.1572 17.322 9.97735C17.3348 9.79734 17.4178 9.62956 17.5532 9.51021C17.6885 9.39087 17.8654 9.32953 18.0456 9.33944C18.2256 9.34934 18.3945 9.42953 18.5159 9.56274Z" fill="white" stroke="white" stroke-width="0.125"/>
</svg>
