<svg width="24" height="24" viewBox="0 0 24 24" fill="none" xmlns="http://www.w3.org/2000/svg">
    <g clip-path="url(#clip0_2686_20081)">
        <path d="M19.9395 7.69927C21.9458 7.69927 23.5781 6.06698 23.5781 4.06059C23.5781 2.0542 21.9458 0.421875 19.9395 0.421875C17.9331 0.421875 16.3008 2.0542 16.3008 4.06059C16.3008 6.06698 17.9331 7.69927 19.9395 7.69927ZM19.9395 1.07812C21.584 1.07812 22.9219 2.41608 22.9219 4.06059C22.9219 5.70511 21.584 7.04302 19.9395 7.04302C18.2949 7.04302 16.957 5.70511 16.957 4.06059C16.957 2.41608 18.2949 1.07812 19.9395 1.07812ZM18.8778 5.12222V5.95603C18.8778 6.04305 18.9124 6.12651 18.9739 6.18805C19.0354 6.24959 19.1189 6.28416 19.2059 6.28416H20.673C20.7601 6.28416 20.8435 6.24959 20.9051 6.18805C20.9666 6.12651 21.0012 6.04305 21.0012 5.95603V5.12222H21.835C21.922 5.12222 22.0055 5.08765 22.067 5.02611C22.1285 4.96458 22.1631 4.88112 22.1631 4.79409V3.327C22.1631 3.23998 22.1285 3.15652 22.067 3.09498C22.0055 3.03345 21.922 2.99887 21.835 2.99887H21.0012V2.16506C21.0012 2.07804 20.9666 1.99458 20.9051 1.93304C20.8435 1.87151 20.7601 1.83694 20.673 1.83694H19.2059C19.1189 1.83694 19.0354 1.87151 18.9739 1.93304C18.9124 1.99458 18.8778 2.07804 18.8778 2.16506V2.99887H18.0439C17.9569 2.99887 17.8734 3.03345 17.8119 3.09498C17.7504 3.15652 17.7158 3.23998 17.7158 3.327V4.79414C17.7158 4.88116 17.7504 4.96462 17.8119 5.02616C17.8734 5.0877 17.9569 5.12227 18.0439 5.12227L18.8778 5.12222ZM18.372 3.65512H19.2059C19.2929 3.65512 19.3764 3.62055 19.4379 3.55902C19.4995 3.49748 19.534 3.41402 19.534 3.327V2.49319H20.3449V3.327C20.3449 3.41402 20.3795 3.49748 20.441 3.55902C20.5026 3.62055 20.586 3.65512 20.673 3.65512H21.5069V4.46602H20.673C20.586 4.46602 20.5026 4.50059 20.441 4.56212C20.3795 4.62366 20.3449 4.70712 20.3449 4.79414V5.62795H19.534V4.79414C19.534 4.70712 19.4995 4.62366 19.4379 4.56212C19.3764 4.50059 19.2929 4.46602 19.2059 4.46602H18.372V3.65512ZM22.9646 18.6861C22.9247 18.5372 22.8576 18.495 22.4208 18.2205C22.3308 18.1639 22.2261 18.0981 22.1506 18.0482L21.8311 16.8555L21.9037 16.836C21.9877 16.8135 22.0594 16.7585 22.1029 16.6832C22.1464 16.6078 22.1582 16.5182 22.1357 16.4342L20.4477 10.1344C20.3578 9.79889 20.1417 9.51797 19.8393 9.34331C19.5368 9.1687 19.1856 9.12201 18.8499 9.21187C18.1551 9.39806 17.7413 10.1148 17.9274 10.8097L19.6155 17.1095C19.638 17.1935 19.693 17.2652 19.7684 17.3087C19.8437 17.3522 19.9333 17.3641 20.0174 17.3415L20.0899 17.3221L21.7011 23.3349C21.7236 23.419 21.7786 23.4906 21.854 23.5341C21.9293 23.5777 22.0189 23.5895 22.103 23.567C22.9495 23.3401 23.8185 21.8725 23.5146 20.7382L22.9646 18.6861ZM20.1644 16.6227L20.035 16.1396L21.2874 15.804L21.4169 16.2871L20.1644 16.6227ZM19.0197 9.84586C19.0741 9.83123 19.1302 9.82381 19.1865 9.82378C19.299 9.82378 19.4104 9.8535 19.5112 9.91167C19.6618 9.99862 19.7693 10.1381 19.8138 10.3042L21.1176 15.1701L19.8651 15.5057L18.5613 10.6399C18.4688 10.2945 18.6744 9.93834 19.0197 9.84586ZM22.2266 22.7605L20.7238 17.1523L21.1972 17.0254L21.5476 18.3333C21.5661 18.4023 21.6066 18.4634 21.663 18.5072C21.7375 18.5653 21.867 18.6475 22.0716 18.7761C22.1608 18.8322 22.2835 18.9093 22.3585 18.9596L22.8806 20.9081C23.0545 21.5569 22.6462 22.3942 22.2266 22.7605ZM8.22384 9.85622C8.22384 10.1151 8.01394 10.325 7.75509 10.325C7.4962 10.325 7.28634 10.1151 7.28634 9.85622C7.28634 9.59737 7.49625 9.38747 7.75509 9.38747C8.01398 9.38742 8.22384 9.59733 8.22384 9.85622ZM10.4027 9.85622C10.4027 9.59737 10.6125 9.38747 10.8714 9.38747C11.1303 9.38747 11.3402 9.59737 11.3402 9.85622C11.3402 10.1151 11.1303 10.325 10.8714 10.325C10.6125 10.325 10.4027 10.1151 10.4027 9.85622ZM8.98519 3.89316C8.98519 3.71241 9.13261 3.56503 9.31331 3.56503C9.49402 3.56503 9.64144 3.71241 9.64144 3.89316C9.64144 4.07391 9.49402 4.22128 9.31331 4.22128C9.13256 4.22128 8.98519 4.07391 8.98519 3.89316ZM16.8793 15.81L13.9148 15.1213C13.4953 14.4551 12.9369 13.8874 12.2777 13.457C12.7767 12.8628 13.1001 12.1171 13.1691 11.2999H13.3683C14.1644 11.2999 14.812 10.6523 14.812 9.85617C14.812 9.34941 14.5493 8.90316 14.1532 8.64544V7.73531C14.1532 5.43661 12.9637 3.8115 11.1631 3.59156C11.0184 2.70089 10.2442 2.01862 9.31327 2.01862C8.38233 2.01862 7.60809 2.70084 7.46339 3.59156C5.66283 3.8115 4.47328 5.43661 4.47328 7.73531V8.64544C4.07719 8.90311 3.8145 9.34941 3.8145 9.85617C3.8145 10.6522 4.46213 11.2999 5.2582 11.2999H5.45742C5.52642 12.1171 5.84977 12.8628 6.3487 13.4569C5.69008 13.8877 5.13197 14.4553 4.71234 15.1211L1.74717 15.81C0.966844 15.9914 0.421875 16.6816 0.421875 17.4885V23.25C0.421875 23.337 0.456445 23.4205 0.517981 23.482C0.579516 23.5436 0.662976 23.5781 0.75 23.5781H17.8766C17.9636 23.5781 18.0471 23.5436 18.1086 23.482C18.1701 23.4205 18.2047 23.337 18.2047 23.25V17.4885C18.2047 16.6897 17.661 15.9998 16.8793 15.81ZM12.9323 14.893L12.067 14.6919V14.1072C12.3863 14.333 12.6769 14.5969 12.9323 14.893ZM6.09881 10.9718L6.09886 9.06872H12.5277L12.5277 10.9718C12.5277 11.296 12.479 11.6091 12.3893 11.9044C11.9192 11.6382 10.8137 11.1239 9.31327 11.1434C9.28767 11.143 9.2625 11.1429 9.23709 11.1429C7.77567 11.1429 6.69956 11.6433 6.23728 11.9046C6.14535 11.6022 6.09869 11.2878 6.09881 10.9718ZM9.23864 11.7992C9.26489 11.7992 9.29114 11.7993 9.31739 11.7996C10.7436 11.7827 11.7848 12.3112 12.1321 12.515C11.5852 13.5101 10.5268 14.1862 9.31327 14.1862C8.09972 14.1862 7.04133 13.5101 6.49434 12.5149C6.83653 12.314 7.84884 11.7992 9.23864 11.7992ZM7.21584 14.2224C7.82072 14.614 8.54058 14.8425 9.31327 14.8425C10.086 14.8425 10.8059 14.614 11.4107 14.2224V14.8428L9.31327 17.628L7.21584 14.8428V14.2224ZM13.3683 10.6437H13.184L13.1839 9.06872H13.3683C13.8025 9.06872 14.1558 9.42197 14.1558 9.85617C14.1558 10.2904 13.8025 10.6437 13.3683 10.6437ZM9.31327 2.67492C9.98498 2.67492 10.5315 3.22139 10.5315 3.89311C10.5315 4.56483 9.98498 5.1113 9.31327 5.1113C8.64155 5.1113 8.09508 4.56483 8.09508 3.89311C8.09508 3.22139 8.64155 2.67492 9.31327 2.67492ZM4.47075 9.85622C4.47075 9.42202 4.824 9.06876 5.2582 9.06876H5.44261L5.44256 10.6437H5.2582C4.82405 10.6437 4.47075 10.2904 4.47075 9.85622ZM5.77069 8.41251H5.2582C5.2148 8.41251 5.17195 8.41476 5.12953 8.41856V7.73541C5.12953 5.82712 6.05911 4.47 7.47375 4.25245C7.64184 5.11472 8.40258 5.76764 9.31327 5.76764C10.224 5.76764 10.9847 5.11472 11.1528 4.25245C12.5674 4.47005 13.497 5.82712 13.497 7.73541V8.41856C13.4542 8.41463 13.4113 8.41261 13.3683 8.41251H12.8558H5.77069ZM6.55959 14.1067V14.6919L5.69498 14.8928C5.9503 14.5967 6.24063 14.3328 6.55959 14.1067ZM17.5485 22.9219H1.07812V17.4885C1.07812 16.9805 1.40672 16.563 1.89572 16.4493L4.31067 15.8882C4.14112 16.2857 4.01997 16.7021 3.94983 17.1285C3.17939 17.3379 2.53444 18.1642 2.181 19.4281C1.95159 20.2485 2.00475 20.8644 2.33897 21.2588C2.57414 21.5364 2.88998 21.6356 3.14203 21.6665C3.22753 21.7562 3.34772 21.8125 3.48089 21.8125C3.73908 21.8125 3.94964 21.6019 3.94964 21.3437C3.94964 21.0855 3.73908 20.875 3.48089 20.875C3.36036 20.8751 3.24452 20.9217 3.15764 21.0053C3.04575 20.9832 2.92491 20.9353 2.83964 20.8346C2.66002 20.6226 2.65055 20.1858 2.81302 19.6049C3.13613 18.4495 3.72192 17.7318 4.3418 17.7318C4.96167 17.7318 5.54752 18.4495 5.87058 19.6049C6.03305 20.1859 6.02358 20.6226 5.84395 20.8346C5.75873 20.9352 5.63789 20.9832 5.52595 21.0053C5.43907 20.9217 5.32324 20.8751 5.2027 20.875C4.94452 20.875 4.73395 21.0855 4.73395 21.3437C4.73395 21.6019 4.94452 21.8125 5.2027 21.8125C5.33592 21.8125 5.45616 21.7561 5.54161 21.6664C5.79338 21.6356 6.10931 21.5366 6.34463 21.2588C6.6788 20.8644 6.73195 20.2485 6.50255 19.4281C6.132 18.103 5.44102 17.2586 4.62098 17.1022C4.71653 16.6098 4.88941 16.1355 5.13319 15.697L6.75403 15.3204L9.05114 18.3707C9.08172 18.4113 9.12131 18.4443 9.1668 18.467C9.21229 18.4897 9.26243 18.5015 9.31327 18.5015C9.3641 18.5015 9.41424 18.4897 9.45973 18.467C9.50522 18.4443 9.54481 18.4113 9.57539 18.3707L11.8725 15.3204L13.4939 15.6972C13.8865 16.4037 14.0925 17.1986 14.0925 18.0068V18.1058C13.4133 18.2562 12.9036 18.8629 12.9036 19.5868C12.9036 20.4234 13.5842 21.104 14.4207 21.104C15.2572 21.104 15.9378 20.4233 15.9378 19.5868C15.9378 18.8629 15.4281 18.2562 14.7488 18.1058V18.0068C14.7488 17.2663 14.5973 16.548 14.3166 15.8883L16.7276 16.4485C17.2185 16.5677 17.5484 16.9856 17.5484 17.4885V22.9219H17.5485ZM14.4207 18.7259C14.8954 18.7259 15.2816 19.1121 15.2816 19.5868C15.2816 20.0615 14.8954 20.4477 14.4207 20.4477C13.946 20.4477 13.5599 20.0615 13.5599 19.5868C13.5599 19.1121 13.946 18.7259 14.4207 18.7259Z" fill="#0596DE"/>
    </g>
    <defs>
        <clipPath id="clip0_2686_20081">
            <rect width="24" height="24" fill="white"/>
        </clipPath>
    </defs>
</svg>
