<svg width="27" height="27" viewBox="0 0 27 27" fill="none" xmlns="http://www.w3.org/2000/svg">
    <g clip-path="url(#clip0_2392_34975)">
        <path d="M19.378 2.10229H7.80108C6.43099 2.10229 5.32031 3.21297 5.32031 4.58306V22.7754C5.32031 24.1455 6.43099 25.2561 7.80108 25.2561H19.378C20.7481 25.2561 21.8588 24.1455 21.8588 22.7754V4.58306C21.8588 3.21297 20.7481 2.10229 19.378 2.10229Z" stroke="#9747FF" stroke-width="1.65385" stroke-linejoin="round"/>
        <path d="M11.1094 4.58301H16.0709" stroke="#9747FF" stroke-width="1.65385" stroke-linecap="round" stroke-linejoin="round"/>
        <path d="M17.5968 15.1526C17.4017 14.9448 17.1655 14.78 16.9032 14.6687C16.6408 14.5574 16.3581 14.502 16.0732 14.5061C15.4736 14.5061 14.9315 14.734 14.5465 15.1485C14.1614 15.563 13.9676 16.1367 14.0121 16.7507C14.1004 17.9642 15.025 18.9508 16.0732 18.9508C17.1213 18.9508 18.0443 17.9642 18.1338 16.7517C18.1792 16.1429 17.988 15.5749 17.5968 15.1526ZM19.5716 23.6022H12.5748C12.4837 23.6037 12.3934 23.5851 12.3103 23.5479C12.2271 23.5107 12.1532 23.4556 12.0936 23.3867C12.029 23.3094 11.9827 23.2185 11.958 23.1208C11.9333 23.0231 11.9309 22.9211 11.951 22.8223C12.1189 21.9148 12.6425 21.1525 13.4653 20.6176C14.1961 20.1426 15.1222 19.8811 16.0732 19.8811C17.0241 19.8811 17.9503 20.1426 18.6811 20.6176C19.5039 21.1525 20.0274 21.9148 20.1954 22.8223C20.2154 22.9211 20.213 23.0231 20.1884 23.1208C20.1637 23.2185 20.1173 23.3094 20.0527 23.3867C19.9932 23.4556 19.9192 23.5107 19.8361 23.5479C19.7529 23.5851 19.6627 23.6037 19.5716 23.6022V23.6022Z" fill="#9747FF"/>
    </g>
    <defs>
        <clipPath id="clip0_2392_34975">
            <rect width="26.4615" height="26.4615" fill="white" transform="translate(0.359375 0.448486)"/>
        </clipPath>
    </defs>
</svg>
