<svg width="27" height="27" viewBox="0 0 27 27" fill="none" xmlns="http://www.w3.org/2000/svg">
    <path d="M3.67067 13.5255C3.67067 13.5255 2.84375 13.2154 2.84375 11.8716C2.84375 10.5279 3.67067 10.2178 3.67067 10.2178M23.5168 13.0086C23.5168 13.0086 24.3437 12.7848 24.3437 11.8716C24.3437 10.9584 23.5168 10.7346 23.5168 10.7346M13.5937 8.56392V15.1793M6.15144 8.56392V15.1793M21.4464 2.99356C21.4464 2.99356 16.9686 8.56392 12.7668 8.56392H4.4976C4.27828 8.56392 4.06795 8.65105 3.91287 8.80612C3.7578 8.9612 3.67067 9.17153 3.67067 9.39085V14.3524C3.67067 14.5717 3.7578 14.782 3.91287 14.9371C4.06795 15.0922 4.27828 15.1793 4.4976 15.1793H12.7668C16.9686 15.1793 21.4464 20.7729 21.4464 20.7729C21.7596 21.1864 22.6899 20.9032 22.6899 20.2649V3.49902C22.6899 2.86281 21.8113 2.52635 21.4464 2.99356Z" stroke="#FF7900" stroke-width="1.65385" stroke-linecap="round" stroke-linejoin="round"/>
    <path d="M7.80469 15.1792V23.8619C7.80469 23.9715 7.84825 24.0767 7.92579 24.1543C8.00333 24.2318 8.10849 24.2754 8.21815 24.2754H10.9573C11.0869 24.2754 11.2146 24.245 11.3302 24.1866C11.4459 24.1283 11.5462 24.0435 11.6231 23.9393C11.7 23.835 11.7513 23.7142 11.7729 23.5865C11.7945 23.4587 11.7859 23.3277 11.7476 23.204C11.3145 21.8147 10.2855 20.2482 10.2855 17.66H11.1124C11.3317 17.66 11.542 17.5728 11.6971 17.4178C11.8522 17.2627 11.9393 17.0524 11.9393 16.833V16.0061C11.9393 15.7868 11.8522 15.5765 11.6971 15.4214C11.542 15.2663 11.3317 15.1792 11.1124 15.1792H10.2855" stroke="#FF7900" stroke-width="1.65385" stroke-linecap="round" stroke-linejoin="round"/>
</svg>
