<svg width="24" height="24" viewBox="0 0 24 24" fill="none" xmlns="http://www.w3.org/2000/svg">
    <path d="M20.25 18.8125H20.3125V18.75V8.25V8.1875H20.25H5.25H5.24991C5.00155 8.18786 4.75497 8.14563 4.52088 8.06265L4.4375 8.0331V8.12156V18C4.4375 18.2155 4.5231 18.4222 4.67548 18.5745C4.82785 18.7269 5.03451 18.8125 5.25 18.8125H20.25ZM5.25 6.8125H20.25C20.6312 6.8125 20.9969 6.96395 21.2665 7.23353C21.536 7.50312 21.6875 7.86875 21.6875 8.25V18.75C21.6875 19.1312 21.536 19.4969 21.2665 19.7665C20.9969 20.036 20.6312 20.1875 20.25 20.1875H5.25C4.66984 20.1875 4.11344 19.957 3.7032 19.5468C3.29297 19.1366 3.0625 18.5802 3.0625 18V6C3.0625 5.41984 3.29297 4.86344 3.7032 4.4532C4.11344 4.04297 4.66984 3.8125 5.25 3.8125H18C18.1823 3.8125 18.3572 3.88493 18.4861 4.01386C18.6151 4.1428 18.6875 4.31766 18.6875 4.5C18.6875 4.68234 18.6151 4.8572 18.4861 4.98614C18.3572 5.11507 18.1823 5.1875 18 5.1875H5.25C5.03451 5.1875 4.82785 5.2731 4.67548 5.42548C4.5231 5.57785 4.4375 5.78451 4.4375 6C4.4375 6.21549 4.5231 6.42215 4.67548 6.57452C4.82785 6.7269 5.03451 6.8125 5.25 6.8125ZM15.8125 13.125C15.8125 12.9149 15.8748 12.7094 15.9916 12.5347C16.1083 12.36 16.2743 12.2238 16.4684 12.1434C16.6625 12.063 16.8762 12.0419 17.0823 12.0829C17.2884 12.1239 17.4777 12.2251 17.6263 12.3737C17.7749 12.5223 17.8761 12.7116 17.9171 12.9177C17.9581 13.1238 17.937 13.3375 17.8566 13.5316C17.7762 13.7257 17.64 13.8917 17.4653 14.0084C17.2906 14.1252 17.0851 14.1875 16.875 14.1875C16.5932 14.1875 16.323 14.0756 16.1237 13.8763C15.9244 13.677 15.8125 13.4068 15.8125 13.125Z" fill="white" stroke="white" stroke-width="0.125"/>
</svg>
